<svg width="375" height="320" viewBox="0 0 375 320" fill="none" xmlns="http://www.w3.org/2000/svg">
<mask id="mask0" mask-type="alpha" maskUnits="userSpaceOnUse" x="0" y="0" width="375" height="320">
<rect width="375" height="320" fill="white"/>
</mask>
<g mask="url(#mask0)">
<path opacity="0.898103" fill-rule="evenodd" clip-rule="evenodd" d="M-22.8452 279.193C-22.8452 279.193 51.7734 178.267 111.096 220.493C170.418 262.719 214.297 306.669 297.77 236.699C381.242 166.73 420.355 227.691 420.355 227.691L395.261 18.889L0.473207 -44.0486L-22.8452 279.193Z" fill="#130DFF"/>
<path opacity="0.733817" fill-rule="evenodd" clip-rule="evenodd" d="M-7.82908 230.528C-7.82908 230.528 19.9356 218.685 65.2126 244.373C110.49 270.061 167.337 211.024 219.894 211.024C272.451 211.024 294.476 278.386 377.846 227.602C461.215 176.819 377.846 177.331 377.846 177.331L387.86 -5.23762L-8.87097 -120.173L-22.3569 227.602L-7.82908 230.528Z" fill="#130DFF"/>
</g>
</svg>
