<svg width="277" height="230" viewBox="0 0 277 230" fill="none" xmlns="http://www.w3.org/2000/svg">
<path fill-rule="evenodd" clip-rule="evenodd" d="M31.3424 88.1468C34.5617 88.1468 37.4153 89.3994 39.2271 91.3313C41.841 89.9884 44.9277 89.1996 48.2475 89.1996C49.0283 89.1996 49.7877 89.257 50.5363 89.3404C50.162 88.3188 49.9524 87.2382 49.9524 86.1176C49.9524 79.8946 56.1642 74.8494 63.8307 74.8494C67.2425 74.8494 70.3634 75.8535 72.7805 77.5127C76.3934 72.6186 82.9647 69.3334 90.4985 69.3334C101.913 69.3334 111.164 76.8473 111.164 86.1176C111.164 95.1587 102.358 102.509 91.3349 102.869C91.3349 102.89 91.3391 102.911 91.3391 102.933C91.3391 110.517 83.769 116.667 74.4319 116.667C69.1527 116.667 64.4424 114.7 61.3386 111.622C58.2391 114.7 53.5289 116.667 48.2475 116.667C39.4624 116.667 32.2451 111.218 31.4237 104.255C31.3938 104.255 31.3681 104.259 31.3424 104.259C25.8621 104.259 21.4214 100.654 21.4214 96.2028C21.4214 91.7553 25.8621 88.1468 31.3424 88.1468Z" fill="#5E76FA" fill-opacity="0.1"/>
<path fill-rule="evenodd" clip-rule="evenodd" d="M209.327 43.0752C211.157 43.3073 212.686 44.111 213.572 45.1637C215.156 44.711 216.97 44.5572 218.857 44.7965C219.301 44.8527 219.727 44.9347 220.146 45.0285C220.01 44.514 219.972 43.9831 220.055 43.4483C220.517 40.478 224.423 38.5176 228.778 39.0701C230.717 39.316 232.416 40.0203 233.666 40.9865C236.083 38.9109 240.062 37.8165 244.344 38.3597C250.83 39.1823 255.529 43.4357 254.84 47.8605C254.168 52.1758 248.618 55.0497 242.327 54.4268C242.326 54.4367 242.326 54.447 242.325 54.4569C241.761 58.0774 237.002 60.4672 231.695 59.794C228.696 59.4136 226.164 58.1352 224.63 56.4422C222.639 57.6881 219.816 58.2872 216.816 57.9067C211.822 57.2733 208.125 54.1525 208.176 50.7698C208.16 50.7678 208.145 50.7676 208.13 50.7656C205.015 50.3705 202.759 48.3298 203.09 46.2053C203.421 44.0816 206.213 42.6802 209.327 43.0752Z" fill="#5E76FA" fill-opacity="0.1"/>
<path fill-rule="evenodd" clip-rule="evenodd" d="M192.024 13.0177C192.024 9.77286 188.729 7.14066 184.668 7.14066C183.21 7.14066 181.855 7.48435 180.711 8.06893C178.579 6.7274 175.894 5.9206 172.969 5.9206C172.384 5.9206 171.815 5.96421 171.252 6.02444C171.253 5.99017 171.259 5.95487 171.259 5.9206C171.259 2.67474 167.966 0.0435791 163.903 0.0435791C161.07 0.0435791 158.614 1.32489 157.386 3.20222C154.834 1.68312 151.681 0.773534 148.254 0.773534C139.791 0.773534 132.93 6.25599 132.93 13.0177C132.93 19.7804 139.791 25.2629 148.254 25.2629C153.744 25.2629 167.607 25.9565 172.969 25.9565C178.61 25.9565 183.379 22.9795 184.954 18.8833C188.883 18.7628 192.024 16.1867 192.024 13.0177Z" fill="#5E76FA" fill-opacity="0.1"/>
<path fill-rule="evenodd" clip-rule="evenodd" d="M117.122 51.3829C123.3 45.9815 133.071 46.2063 138.946 51.8851C144.822 57.5638 144.578 66.5461 138.4 71.9475C132.223 77.3489 122.452 77.1241 116.576 71.4453C110.7 65.7666 110.945 56.7843 117.122 51.3829Z" fill="#FFD816"/>
<path fill-rule="evenodd" clip-rule="evenodd" d="M118.732 52.9388C123.975 48.3546 132.267 48.5454 137.254 53.365C142.24 58.1845 142.033 65.8076 136.79 70.3916C131.548 74.9758 123.255 74.785 118.268 69.9655C113.282 65.1461 113.489 57.523 118.732 52.9388Z" fill="#FFCD00"/>
<path fill-rule="evenodd" clip-rule="evenodd" d="M140.587 59.1465C140.01 61.3059 138.777 63.3441 136.894 64.9903C131.652 69.5744 123.359 69.3836 118.372 64.5641C116.641 62.8902 115.536 60.8781 115.05 58.7728C114.021 62.6267 115.083 66.867 118.279 69.9556C123.266 74.7753 131.559 74.966 136.801 70.3819C140.223 67.3899 141.499 63.1033 140.587 59.1465Z" fill="#FDBE11"/>
<path fill-rule="evenodd" clip-rule="evenodd" d="M119.445 55.2269C124.073 51.1803 131.393 51.3488 135.795 55.603C138.368 58.0898 139.374 61.4219 138.842 64.5698C139.977 61.0432 139.089 57.0714 136.133 54.2151C131.732 49.9607 124.411 49.7922 119.783 53.8389C117.861 55.5201 116.706 57.6647 116.328 59.9023C116.884 58.1761 117.924 56.5565 119.445 55.2269Z" fill="#FFDC53"/>
<path fill-rule="evenodd" clip-rule="evenodd" d="M134.634 57.0282L133.424 58.0857C133.808 58.6002 134.025 59.1055 134.076 59.6012C134.126 60.097 134.034 60.6929 133.798 61.3888L131.981 60.8709C132.295 59.9627 132.174 59.24 131.618 58.7031C131.274 58.3703 130.881 58.1877 130.441 58.1555C130 58.1232 129.619 58.2474 129.298 58.5279C129.006 58.7832 128.855 59.0843 128.846 59.4311C128.837 59.7704 128.976 60.3181 129.265 61.0741C129.512 61.7294 129.69 62.2938 129.8 62.767C129.91 63.2401 129.95 63.6332 129.922 63.9463C129.862 64.8125 129.476 65.5567 128.765 66.1789C128.065 66.7903 127.249 67.137 126.315 67.2187C125.389 67.3008 124.503 67.1032 123.657 66.6261L122.38 67.7428L121.353 66.7502L122.593 65.6657C121.958 64.8096 121.65 64.0014 121.671 63.2416C121.692 62.4817 122.048 61.6223 122.741 60.6638L124.316 61.6634C123.867 62.3804 123.636 62.9786 123.623 63.4581C123.633 63.9382 123.86 64.3919 124.302 64.8193C124.733 65.2351 125.239 65.4554 125.82 65.4799C126.394 65.5042 126.909 65.3166 127.365 64.9175C127.773 64.5614 127.98 64.1601 127.988 63.7136C127.986 63.4921 127.942 63.2014 127.856 62.8413C127.769 62.4812 127.63 62.0461 127.439 61.536C127.038 60.4894 126.868 59.7195 126.93 59.2265C126.999 58.4676 127.346 57.8149 127.971 57.2682C128.268 57.0091 128.588 56.8117 128.933 56.6756C129.278 56.5396 129.639 56.463 130.017 56.4459C130.395 56.4287 130.786 56.4746 131.188 56.5835C131.591 56.6925 131.994 56.8624 132.397 57.0931L133.606 56.0356L134.634 57.0282Z" fill="#E79B24"/>
<mask id="mask0" mask-type="alpha" maskUnits="userSpaceOnUse" x="124" y="42" width="32" height="29">
<path fill-rule="evenodd" clip-rule="evenodd" d="M124.222 42.7231H155.096V70.5878H124.222V42.7231Z" fill="white"/>
</mask>
<g mask="url(#mask0)">
<path fill-rule="evenodd" clip-rule="evenodd" d="M128.042 47.4805C133.656 41.69 143.409 41.1036 149.825 46.1708C156.241 51.238 156.89 60.0398 151.276 65.8304C145.661 71.6207 135.909 72.2071 129.493 67.14C123.077 62.0729 122.428 53.2711 128.042 47.4805Z" fill="#FFD816"/>
</g>
<path fill-rule="evenodd" clip-rule="evenodd" d="M129.8 48.869C134.565 43.9547 142.842 43.4569 148.287 47.7573C153.732 52.0578 154.283 59.5279 149.518 64.4422C144.753 69.3565 136.477 69.8541 131.032 65.5536C125.586 61.2533 125.035 53.7833 129.8 48.869Z" fill="#FFCD00"/>
<path fill-rule="evenodd" clip-rule="evenodd" d="M152.181 53.1348C151.821 55.2937 150.796 57.388 149.085 59.1527C144.32 64.067 136.043 64.5647 130.598 60.2642C128.707 58.7707 127.407 56.8947 126.714 54.8764C126.072 58.7291 127.552 62.7871 131.041 65.5432C136.487 69.8436 144.763 69.3459 149.528 64.4316C152.638 61.224 153.483 56.9279 152.181 53.1348Z" fill="#FDBE11"/>
<path fill-rule="evenodd" clip-rule="evenodd" d="M130.738 51.0471C134.944 46.709 142.25 46.2697 147.056 50.0658C149.866 52.2847 151.199 55.4596 150.982 58.581C151.762 55.0394 150.482 51.2297 147.255 48.681C142.449 44.8848 135.143 45.3242 130.937 49.6621C129.189 51.4647 128.252 53.6565 128.098 55.8754C128.48 54.1418 129.355 52.4727 130.738 51.0471Z" fill="#FFDC53"/>
<path fill-rule="evenodd" clip-rule="evenodd" d="M146.041 51.5551L144.942 52.6886C145.375 53.16 145.642 53.636 145.742 54.1166C145.841 54.5973 145.809 55.1874 145.643 55.8871L143.782 55.5306C144.004 54.6169 143.812 53.9202 143.206 53.4412C142.829 53.1443 142.42 52.9982 141.978 53.003C141.536 53.0077 141.169 53.1607 140.877 53.4614C140.612 53.7352 140.492 54.0419 140.517 54.3818C140.541 54.7143 140.735 55.2382 141.098 55.9535C141.409 56.5737 141.643 57.1108 141.799 57.5644C141.955 58.0179 142.034 58.3989 142.037 58.7073C142.064 59.5592 141.754 60.3185 141.107 60.9854C140.471 61.641 139.693 62.0474 138.771 62.2043C137.857 62.3609 136.955 62.2408 136.065 61.8442L134.904 63.0414L133.783 62.1557L134.91 60.9932C134.192 60.2084 133.806 59.4437 133.751 58.6991C133.696 57.9545 133.965 57.0849 134.56 56.0906L136.228 56.938C135.852 57.676 135.681 58.2798 135.716 58.7498C135.775 59.2183 136.045 59.6432 136.528 60.0245C136.998 60.3956 137.524 60.5692 138.105 60.5451C138.679 60.5216 139.173 60.2957 139.588 59.8677C139.958 59.486 140.125 59.0764 140.089 58.6394C140.065 58.4229 139.992 58.1424 139.87 57.7975C139.748 57.4525 139.566 57.0386 139.326 56.5557C138.822 55.5657 138.576 54.8269 138.589 54.3396C138.582 53.5921 138.862 52.9253 139.431 52.3392C139.7 52.0617 140 51.8421 140.33 51.6806C140.66 51.5191 141.012 51.4145 141.387 51.3664C141.761 51.3187 142.154 51.3312 142.566 51.4045C142.978 51.4778 143.396 51.6106 143.821 51.8029L144.92 50.6693L146.041 51.5551Z" fill="#E79B24"/>
<path fill-rule="evenodd" clip-rule="evenodd" d="M146.738 48.545C152.916 43.242 162.687 43.4627 168.562 49.038C174.438 54.6133 174.194 63.4319 168.016 68.7349C161.839 74.0378 152.068 73.8172 146.192 68.2418C140.316 62.6665 140.561 53.848 146.738 48.545Z" fill="#FFD816"/>
<path fill-rule="evenodd" clip-rule="evenodd" d="M148.348 50.0726C153.591 45.5719 161.883 45.7593 166.87 50.491C171.857 55.2227 171.649 62.7069 166.406 67.2074C161.164 71.708 152.871 71.5207 147.885 66.789C142.898 62.0574 143.105 54.5732 148.348 50.0726Z" fill="#FFCD00"/>
<path fill-rule="evenodd" clip-rule="evenodd" d="M170.203 56.1672C169.627 58.2872 168.393 60.2882 166.51 61.9044C161.268 66.4051 152.975 66.2177 147.989 61.486C146.257 59.8427 145.152 57.8672 144.667 55.8003C143.637 59.5839 144.7 63.747 147.896 66.7793C152.882 71.5112 161.175 71.6984 166.418 67.1979C169.839 64.2603 171.116 60.0518 170.203 56.1672Z" fill="#FDBE11"/>
<path fill-rule="evenodd" clip-rule="evenodd" d="M149.061 52.319C153.689 48.3462 161.009 48.5116 165.411 52.6883C167.984 55.1298 168.989 58.4013 168.458 61.4917C169.593 58.0294 168.705 54.1299 165.749 51.3257C161.347 47.1488 154.027 46.9834 149.399 50.9564C147.477 52.6069 146.322 54.7124 145.944 56.9093C146.499 55.2145 147.54 53.6244 149.061 52.319Z" fill="#FFDC53"/>
<path fill-rule="evenodd" clip-rule="evenodd" d="M164.249 54.0874L163.04 55.1256C163.423 55.6308 163.64 56.1268 163.691 56.6135C163.742 57.1003 163.649 57.6853 163.414 58.3685L161.597 57.8601C161.91 56.9684 161.79 56.2589 161.234 55.7318C160.89 55.405 160.497 55.2258 160.056 55.1942C159.615 55.1624 159.235 55.2844 158.914 55.5597C158.622 55.8104 158.471 56.106 158.462 56.4465C158.452 56.7796 158.592 57.3174 158.881 58.0595C159.128 58.703 159.306 59.257 159.416 59.7216C159.525 60.1861 159.566 60.572 159.537 60.8795C159.478 61.7299 159.092 62.4605 158.38 63.0714C157.681 63.6717 156.864 64.012 155.931 64.0922C155.005 64.1728 154.119 63.9788 153.273 63.5105L151.995 64.6068L150.968 63.6323L152.208 62.5675C151.573 61.727 151.266 60.9336 151.287 60.1875C151.307 59.4415 151.664 58.5977 152.357 57.6567L153.932 58.6382C153.482 59.3421 153.251 59.9293 153.238 60.4001C153.249 60.8715 153.476 61.3169 153.918 61.7365C154.348 62.1448 154.854 62.361 155.436 62.3851C156.01 62.4089 156.525 62.2248 156.981 61.8329C157.388 61.4833 157.596 61.0893 157.604 60.651C157.602 60.4335 157.558 60.148 157.471 59.7945C157.385 59.4411 157.246 59.0138 157.055 58.513C156.654 57.4855 156.484 56.7297 156.546 56.2456C156.615 55.5006 156.962 54.8597 157.587 54.323C157.883 54.0687 158.204 53.8748 158.549 53.7413C158.894 53.6077 159.255 53.5326 159.633 53.5157C160.011 53.4989 160.401 53.5439 160.804 53.6508C161.207 53.7578 161.609 53.9246 162.013 54.1511L163.222 53.1129L164.249 54.0874Z" fill="#E79B24"/>
<path fill-rule="evenodd" clip-rule="evenodd" d="M123.726 78.0961C123.665 78.0691 123.602 78.0465 123.536 78.0303C122.926 77.8786 122.51 78.3453 121.951 78.3631C121.702 78.3711 121.116 77.9146 120.979 78.3015C120.93 78.4447 120.723 78.9128 120.544 79.395C120.261 79.7167 119.991 80.0517 119.677 80.3452C118.885 81.0882 116.327 81.7313 116.758 83.1537C116.841 83.4289 116.928 83.7106 117.103 83.9398C117.246 84.1271 117.44 84.269 117.637 84.399C117.791 84.5002 118.01 84.6973 118.187 84.6626C118.372 84.6262 118.677 84.2639 118.827 84.142C119.256 83.7938 119.684 83.4453 120.113 83.0969C120.533 82.7553 121.06 82.3917 121.574 82.5658C121.687 82.604 121.791 82.667 121.908 82.6896C122.04 82.715 122.175 82.6869 122.305 82.6554C122.783 82.5394 123.263 82.3825 123.702 82.159C124.486 81.7588 124.646 80.3982 124.791 79.6431C124.828 79.455 124.859 79.259 124.809 79.074C124.728 78.7733 124.456 78.5682 124.201 78.387C124.049 78.2796 123.895 78.1707 123.726 78.0961Z" fill="#EDD2BD"/>
<path fill-rule="evenodd" clip-rule="evenodd" d="M108.082 89.2827C108.782 89.3305 109.492 89.378 110.182 89.2566C110.732 89.1599 111.251 88.9585 111.76 88.7469C114.916 87.4352 117.843 85.6761 120.403 83.5533C119.716 82.2129 118.731 80.9974 117.526 80C115.039 81.2642 112.44 82.349 109.763 83.2404C109.215 83.4226 108.657 83.5986 108.075 83.6423C107.237 83.7057 106.408 83.4923 105.6 83.281C102.468 82.4618 99.3358 81.6427 96.2036 80.8234C94.3139 80.3292 92.3516 79.8299 90.4064 80.0948C85.0126 80.8295 85.248 87.0656 90.2045 88.1083C95.7698 89.279 102.368 88.8918 108.082 89.2827Z" fill="#32454B"/>
<path fill-rule="evenodd" clip-rule="evenodd" d="M59.0935 151.418C59.4663 151.891 59.9461 152.249 60.3708 152.667C62.0575 151.453 63.6061 150.216 65.0028 148.654C63.8027 148.456 63.6163 147.424 62.1681 148.442C61.6992 148.772 59.8976 150.956 59.0935 151.418Z" fill="#EDD2BD"/>
<path fill-rule="evenodd" clip-rule="evenodd" d="M61.1111 152.225C61.41 152.481 61.422 152.768 61.4041 153.119C61.3936 153.322 61.3087 153.525 61.3478 153.727C61.3869 153.93 61.4847 154.08 61.6044 154.26C62.2352 155.21 63.9266 157.201 61.5846 157.33C59.4578 157.448 57.8589 154.415 56.9908 152.618C56.9338 152.5 56.8632 152.383 56.88 152.248C56.8968 152.113 56.9651 151.975 57.0521 151.851C57.5357 151.165 58.1233 150.287 59.0161 150.842C59.397 151.079 59.4282 151.561 59.8333 151.809C60.1653 152.013 60.812 151.969 61.1111 152.225Z" fill="#4C4C4C"/>
<path fill-rule="evenodd" clip-rule="evenodd" d="M69.8315 119.587C69.3509 123.339 75.5754 127.264 74.3186 130.284C71.6894 136.602 66.3258 141.916 61.904 146.815C61.588 147.166 59.5406 149.114 59.0935 149.555C60.0386 150.774 61.4503 151.618 62.7023 152.667C69.0212 148.35 80.3614 140.355 83.4056 136.679C87.5379 131.689 88.4107 122.323 90.3914 115.855C90.7193 114.784 91.2127 113.241 90.4615 112.219C89.8852 111.435 89.0307 111.065 87.9383 110.778C85.0156 110.009 81.048 108.45 78.1764 109.984C75.0377 111.661 70.2007 116.704 69.8315 119.587Z" fill="#27393D"/>
<path fill-rule="evenodd" clip-rule="evenodd" d="M99.7202 153.864C100.378 153.994 101.041 153.931 101.7 154C102.229 151.793 102.646 149.63 102.675 147.333C101.518 148.062 100.641 147.378 100.197 149.254C100.053 149.861 100.086 152.914 99.7202 153.864Z" fill="#EDD2BD"/>
<path fill-rule="evenodd" clip-rule="evenodd" d="M102.594 152.667C103.014 152.667 103.223 152.882 103.455 153.136C103.589 153.283 103.655 153.492 103.812 153.621C103.97 153.751 104.158 153.791 104.382 153.839C105.56 154.097 108.31 154.465 106.515 156.005C104.886 157.404 101.504 156.259 99.5463 155.535C99.4177 155.488 99.2757 155.448 99.1912 155.343C99.1067 155.239 99.0698 155.095 99.0511 154.957C98.947 154.184 98.8048 153.161 99.9063 152.997C100.376 152.927 100.77 153.248 101.273 153.169C101.686 153.104 102.174 152.666 102.594 152.667Z" fill="#4C4C4C"/>
<path fill-rule="evenodd" clip-rule="evenodd" d="M83.7684 122.92C86.8424 125.626 95.6403 127.613 97.0718 130.729C97.6459 131.978 99.0717 141.554 99.3595 148.061C99.3801 148.526 98.8633 151.21 98.8577 151.824C100.497 152.239 102.526 151.774 104.293 151.884C105.584 144.386 107.107 129.828 107.107 129.828C105.358 123.27 96.9184 115.751 92.235 109.843C91.4593 108.865 90.5522 107.525 89.16 107.36C88.0921 107.234 87.2492 107.566 86.2891 108.117C83.7203 109.59 75.9542 111.941 75.3849 114.876C74.7628 118.083 81.4065 120.841 83.7684 122.92Z" fill="#27393D"/>
<path fill-rule="evenodd" clip-rule="evenodd" d="M83.9637 81.7555C81.3318 83.8792 77.3686 85.8217 75.7877 88.7769C71.9636 95.926 69.6433 103.602 68.4357 111.446C68.0825 113.74 67.7293 116.034 67.376 118.328C67.0285 120.585 67.1149 121.109 69.1267 121.275C73.1929 121.616 77.5948 120.392 81.5007 119.431C82.4967 119.185 83.5045 118.917 84.3701 118.403C85.6782 117.627 86.5993 116.325 88.0387 115.777C88.7187 115.518 89.464 115.45 90.197 115.384C91.7652 115.243 93.5202 115.151 94.7316 116.075C95.4407 116.616 95.7973 117.473 96.5197 117.981C97.0231 117.348 96.3236 115.379 96.201 114.592C96.0127 113.383 95.849 112.171 95.8204 110.949C95.7625 108.468 95.9335 105.986 96.1701 103.522C96.5835 99.2157 96.7992 94.8889 97.185 90.5928C97.4613 87.5156 98.1577 85.1062 95.873 82.5066C94.6293 81.0915 92.3491 78.6337 90.2871 78.667C88.0988 78.7021 85.5172 80.502 83.9637 81.7555Z" fill="#5D76F9"/>
<path fill-rule="evenodd" clip-rule="evenodd" d="M96.5451 77.0961C95.8131 77.7415 94.8922 78.1621 94.0596 78.691C93.2497 79.2054 92.7918 79.7749 92.3035 80.5418C91.9509 81.0957 91.5246 81.4717 90.7188 81.2849C89.199 80.9325 90.0907 79.9797 90.1138 79.0501C90.1403 77.9876 89.6605 76.9589 89.4612 75.9262C88.8853 72.9426 91.3815 68.418 95.1562 68.6773C99.2834 68.9608 98.7663 75.1375 96.5451 77.0961Z" fill="#EDD2BD"/>
<path fill-rule="evenodd" clip-rule="evenodd" d="M91.6161 72.7773C91.1676 73.0368 90.9206 73.5986 91.1693 74.0222C91.3026 74.2489 91.549 74.4058 91.7015 74.6226C92.1491 75.2579 91.6283 76.1027 90.9723 76.5705C90.3166 77.0383 89.4937 77.3616 89.0514 77.9999C86.8203 76.3787 85.1128 74.0293 84.957 71.4576C84.8445 69.6016 85.6682 67.6677 87.209 66.4107C89.0175 64.9354 90.8467 65.0166 93.2008 64.8366C94.0891 64.7686 95.0067 64.6967 95.8824 64.8915C96.6844 65.0699 97.2762 65.5841 98.0234 65.8133C99.2603 66.193 101.325 65.7969 102.292 64.9825C102.884 64.4837 103.233 63.7231 103.979 63.436C104.7 63.1583 105.602 63.4693 106.033 64.0575C106.464 64.6456 106.459 65.4374 106.135 66.0785C105.924 66.4959 105.592 66.8582 105.392 67.2799C104.97 68.1681 105.168 69.2303 104.681 70.0914C104.166 71.0026 103.02 71.4618 101.937 71.7773C100.811 72.1049 99.585 72.3853 98.7715 73.2134C98.9204 72.6642 97.9384 71.4407 97.2892 71.3157C96.4497 71.154 95.1197 72.0094 94.2597 72.1935C93.4315 72.3708 92.3494 72.3533 91.6161 72.7773Z" fill="#56453F"/>
<path fill-rule="evenodd" clip-rule="evenodd" d="M127.245 131.333H94.355C93.6465 131.333 93.072 130.811 93.072 130.167V81.1667C93.072 80.5223 93.6465 80 94.355 80H127.245C127.954 80 128.528 80.5223 128.528 81.1667V130.167C128.528 130.811 127.954 131.333 127.245 131.333Z" fill="#BEBEBE"/>
<mask id="mask1" mask-type="alpha" maskUnits="userSpaceOnUse" x="56" y="42" width="168" height="120">
<path fill-rule="evenodd" clip-rule="evenodd" d="M56.8774 162H223.077V42.6666H56.8774V162Z" fill="white"/>
</mask>
<g mask="url(#mask1)">
<path fill-rule="evenodd" clip-rule="evenodd" d="M94.5493 126H126.312V82.6666H94.5493V126Z" fill="#D2E7EE"/>
<path fill-rule="evenodd" clip-rule="evenodd" d="M108.584 128.667H112.277V128H108.584V128.667Z" fill="white"/>
<path fill-rule="evenodd" clip-rule="evenodd" d="M104.727 92.9043C107.029 85.4587 115.583 81.1075 123.833 83.1853C132.082 85.2633 136.904 92.9835 134.601 100.429C132.299 107.874 123.745 112.226 115.495 110.148C107.246 108.07 102.425 100.35 104.727 92.9043Z" fill="#FFD816"/>
<path fill-rule="evenodd" clip-rule="evenodd" d="M106.847 93.8646C108.766 87.6601 115.894 84.0339 122.769 85.7655C129.643 87.4972 133.661 93.9306 131.743 100.135C129.824 106.34 122.695 109.966 115.821 108.234C108.946 106.503 104.928 100.069 106.847 93.8646Z" fill="#FFCD00"/>
<path fill-rule="evenodd" clip-rule="evenodd" d="M128.053 88.6666C128.748 90.7673 128.824 93.0708 128.14 95.3442C126.234 101.675 119.154 105.375 112.327 103.608C109.955 102.994 107.927 101.802 106.368 100.241C107.608 103.99 110.818 107.093 115.194 108.226C122.022 109.992 129.102 106.293 131.007 99.9619C132.251 95.8298 130.983 91.5987 128.053 88.6666Z" fill="#FDBE11"/>
<path fill-rule="evenodd" clip-rule="evenodd" d="M108.762 95.8289C110.488 90.1519 116.902 86.8341 123.087 88.4185C126.702 89.3447 129.438 91.7409 130.744 94.7056C129.747 91.1288 126.753 88.1259 122.601 87.0621C116.416 85.4778 110.002 88.7956 108.276 94.4725C107.559 96.8313 107.764 99.2259 108.693 101.333C108.205 99.5826 108.195 97.6944 108.762 95.8289Z" fill="#FFDC53"/>
<path fill-rule="evenodd" clip-rule="evenodd" d="M122.435 89.7013L122 91.1782C122.597 91.4391 123.051 91.7704 123.361 92.1719C123.671 92.5735 123.916 93.1283 124.096 93.8365L122.304 94.2478C122.075 93.3207 121.584 92.7575 120.831 92.5585C120.365 92.435 119.94 92.4633 119.556 92.6432C119.171 92.8231 118.922 93.109 118.806 93.5008C118.701 93.8576 118.738 94.1868 118.918 94.4889C119.094 94.7844 119.506 95.1887 120.155 95.7014C120.714 96.1472 121.168 96.5475 121.515 96.9018C121.861 97.2563 122.108 97.5745 122.253 97.8566C122.671 98.6281 122.753 99.4481 122.497 100.317C122.245 101.171 121.753 101.853 121.021 102.363C120.295 102.87 119.451 103.118 118.489 103.107L118.029 104.667L116.639 104.298L117.084 102.784C116.093 102.348 115.401 101.8 115.007 101.138C114.614 100.476 114.446 99.5707 114.505 98.4219L116.355 98.5379C116.369 99.3647 116.5 99.9868 116.748 100.404C117.017 100.811 117.451 101.094 118.049 101.252C118.632 101.406 119.172 101.357 119.669 101.104C120.16 100.855 120.487 100.451 120.651 99.8938C120.797 99.3965 120.753 98.9544 120.519 98.5674C120.397 98.3783 120.203 98.1497 119.937 97.8815C119.67 97.6133 119.32 97.3054 118.885 96.9575C117.986 96.2485 117.429 95.6678 117.213 95.2156C116.861 94.5321 116.797 93.8084 117.021 93.0449C117.128 92.6831 117.288 92.3627 117.502 92.0835C117.715 91.8043 117.974 91.5684 118.28 91.3754C118.585 91.183 118.934 91.0385 119.328 90.9423C119.722 90.8462 120.149 90.8022 120.609 90.8102L121.044 89.3333L122.435 89.7013Z" fill="#E79B24"/>
<path fill-rule="evenodd" clip-rule="evenodd" d="M97.4342 113.547C97.4578 113.488 97.4764 113.427 97.4885 113.365C97.6002 112.785 97.079 112.43 97.0171 111.91C96.9896 111.679 97.4224 111.1 97.0064 110.999C96.8526 110.964 96.3462 110.803 95.8271 110.671C95.4682 110.428 95.0964 110.2 94.7645 109.929C93.9247 109.241 93.0531 106.902 91.596 107.403C91.3142 107.5 91.0258 107.6 90.7991 107.779C90.6139 107.926 90.4804 108.117 90.3594 108.31C90.2652 108.46 90.0757 108.679 90.1257 108.841C90.1781 109.011 90.5814 109.27 90.7207 109.402C91.1188 109.777 91.5169 110.152 91.9152 110.527C92.3056 110.895 92.7273 111.361 92.5847 111.853C92.5534 111.961 92.4956 112.062 92.4809 112.173C92.4643 112.298 92.5041 112.422 92.5474 112.541C92.7059 112.978 92.9073 113.415 93.1754 113.808C93.6553 114.511 95.0934 114.566 95.896 114.648C96.0957 114.669 96.3033 114.684 96.4933 114.625C96.8023 114.528 96.996 114.26 97.1662 114.009C97.267 113.861 97.3692 113.709 97.4342 113.547Z" fill="#EDD2BD"/>
<path fill-rule="evenodd" clip-rule="evenodd" d="M91.9902 111.333C92.0507 111.333 92.1052 111.298 92.1556 111.265C93.0627 110.661 93.8738 109.916 94.5495 109.063C94.2328 108.731 93.9159 108.399 93.5992 108.067C93.5756 108.043 93.5506 108.017 93.5181 108.006C93.4501 107.983 93.3804 108.031 93.3249 108.076L91.5023 109.556C91.2301 109.777 90.741 110.074 90.8808 110.465C90.9558 110.673 91.7811 111.336 91.9902 111.333Z" fill="#F2F2F2"/>
<path fill-rule="evenodd" clip-rule="evenodd" d="M82.382 100.111C82.3813 100.751 82.3817 101.401 82.5563 102.019C82.6954 102.512 82.9412 102.97 83.1969 103.417C84.7823 106.189 86.574 108.497 88.9611 110.667C90.307 109.941 91.3806 108.669 92.3335 107.498C90.8445 105.33 89.8988 103.556 88.7841 101.187C88.5561 100.703 88.3341 100.208 88.2478 99.6824C88.1232 98.9248 88.2871 98.154 88.4502 97.4035C89.0827 94.4928 89.7152 91.5821 90.3477 88.6715C90.7295 86.9154 91.1112 85.0929 90.6993 83.3432C89.5573 78.4915 83.0881 79.1727 82.3508 83.7597C81.5231 88.9102 82.3883 94.8835 82.382 100.111Z" fill="#5D76F9"/>
<path fill-rule="evenodd" clip-rule="evenodd" d="M92.9228 107.385C92.7087 107.263 92.3536 107.36 92.3343 107.632C92.3198 107.833 92.5153 108.013 92.7126 107.999C93.0287 107.977 93.216 107.565 92.9335 107.391C92.93 107.389 92.9264 107.387 92.9228 107.385Z" fill="#F2F2F2"/>
<path fill-rule="evenodd" clip-rule="evenodd" d="M92.1841 106.718C91.9698 106.597 91.615 106.694 91.5955 106.966C91.5812 107.166 91.7766 107.347 91.9737 107.333C92.29 107.31 92.4772 106.899 92.1948 106.725C92.1912 106.722 92.1877 106.72 92.1841 106.718Z" fill="#F2F2F2"/>
<path fill-rule="evenodd" clip-rule="evenodd" d="M179.721 101.807C179.772 101.713 179.825 101.626 179.873 101.551C180.216 101.02 180.644 100.531 181.142 100.101C181.23 100.025 181.324 99.9482 181.441 99.9093C181.537 99.8772 181.643 99.8729 181.746 99.8691C182.811 99.8296 183.786 99.6574 184.828 99.4697C185.608 99.3293 186.824 99.1242 187.295 99.8691C187.437 100.093 187.581 100.322 187.614 100.57C187.641 100.772 187.592 100.976 187.532 101.174C187.485 101.329 187.458 101.582 187.29 101.664C187.113 101.749 186.594 101.698 186.38 101.709C185.772 101.738 185.164 101.768 184.555 101.798C183.959 101.828 183.259 101.906 182.978 102.318C182.916 102.408 182.88 102.509 182.803 102.592C182.717 102.685 182.586 102.747 182.457 102.803C181.986 103.009 181.481 103.191 180.96 103.306C180.484 103.411 180.211 103.193 179.814 103.012C179.318 102.786 179.495 102.227 179.721 101.807Z" fill="#D5AB8D"/>
<path fill-rule="evenodd" clip-rule="evenodd" d="M198.447 99.707C197.519 100.403 196.438 100.892 195.069 101.259C191.685 102.168 188.127 102.644 184.562 102.667C184.039 101.371 183.836 99.9914 183.967 98.6331C186.812 98.0725 189.602 97.3273 192.301 96.4071C193.623 95.9563 194.702 95.3761 195.079 94.1859C195.92 91.5359 196.515 88.8344 196.858 86.1116C196.934 85.5095 197.002 84.8927 197.315 84.3439C197.889 83.3375 199.253 82.7151 200.618 82.6697C201.982 82.6242 203.322 83.0947 204.377 83.8004C205.134 84.3062 205.784 84.9623 206.002 85.7381C206.227 86.5406 205.971 87.3756 205.685 88.1644C204.408 91.6836 202.504 95.051 200.049 98.1287C199.553 98.7506 199.03 99.2697 198.447 99.707Z" fill="#396B7D"/>
<path fill-rule="evenodd" clip-rule="evenodd" d="M165.845 78.9106C168.959 72.1065 177.596 68.8692 185.135 71.6799C192.674 74.4906 196.261 82.285 193.147 89.0893C190.032 95.8934 181.396 99.1308 173.857 96.32C166.318 93.5093 162.731 85.7149 165.845 78.9106Z" fill="#FFD816"/>
<path fill-rule="evenodd" clip-rule="evenodd" d="M167.893 79.674C170.54 73.8905 177.881 71.1388 184.289 73.5279C190.697 75.917 193.746 82.5423 191.099 88.3259C188.452 94.1095 181.111 96.8611 174.703 94.472C168.295 92.0828 165.246 85.4576 167.893 79.674Z" fill="#FFCD00"/>
<path fill-rule="evenodd" clip-rule="evenodd" d="M189.633 77.3333C190.047 79.3927 189.829 81.5787 188.87 83.6562C186.202 89.441 178.803 92.1935 172.344 89.8038C170.101 88.9738 168.266 87.6325 166.939 85.9931C167.677 89.6684 170.425 92.9403 174.565 94.4718C181.024 96.8615 188.424 94.1091 191.092 88.3241C192.833 84.5484 192.128 80.4141 189.633 77.3333Z" fill="#FDBE11"/>
<path fill-rule="evenodd" clip-rule="evenodd" d="M169.554 81.5299C171.9 76.4026 178.405 73.9631 184.084 76.0812C187.403 77.3193 189.704 79.8406 190.576 82.7457C190.074 79.3005 187.603 76.1856 183.791 74.7635C178.112 72.6455 171.607 75.0851 169.261 80.2123C168.287 82.3426 168.184 84.6016 168.804 86.6667C168.558 84.9803 168.783 83.2148 169.554 81.5299Z" fill="#FFDC53"/>
<path fill-rule="evenodd" clip-rule="evenodd" d="M182.867 77.825L182.287 79.1581C182.813 79.4653 183.197 79.823 183.439 80.2309C183.681 80.639 183.844 81.1833 183.928 81.8638L182.208 82.0573C182.103 81.1672 181.712 80.5888 181.034 80.3228C180.613 80.158 180.213 80.1392 179.834 80.2663C179.454 80.3935 179.187 80.6339 179.033 80.9875C178.893 81.3097 178.889 81.6211 179.021 81.9223C179.149 82.217 179.486 82.6382 180.031 83.1862C180.5 83.6622 180.876 84.0842 181.157 84.452C181.439 84.8201 181.631 85.1434 181.734 85.4224C182.032 86.1874 182.012 86.9619 181.67 87.7465C181.335 88.5173 180.795 89.1021 180.051 89.5003C179.314 89.8961 178.497 90.0378 177.601 89.9252L176.989 91.3333L175.735 90.8415L176.33 89.4743C175.456 88.9621 174.875 88.376 174.587 87.7161C174.298 87.0561 174.248 86.1927 174.439 85.1259L176.151 85.4312C176.066 86.2049 176.115 86.7998 176.297 87.2163C176.5 87.6248 176.871 87.9348 177.411 88.1465C177.936 88.3526 178.446 88.364 178.939 88.1806C179.426 88 179.779 87.6579 179.998 87.1546C180.194 86.7057 180.205 86.288 180.032 85.9018C179.941 85.7123 179.787 85.4781 179.57 85.1991C179.353 84.9203 179.062 84.5954 178.698 84.2243C177.943 83.4664 177.492 82.8648 177.345 82.4196C177.096 81.7437 177.122 81.0611 177.422 80.3718C177.564 80.0453 177.751 79.7631 177.984 79.5249C178.216 79.2869 178.486 79.0942 178.793 78.9465C179.101 78.7992 179.444 78.7015 179.822 78.6536C180.201 78.6057 180.605 78.6099 181.033 78.6665L181.613 77.3333L182.867 77.825Z" fill="#E79B24"/>
<path fill-rule="evenodd" clip-rule="evenodd" d="M203.872 158.667C203.339 158.664 202.806 158.661 202.272 158.658C201.916 156.916 201.708 155.123 201.656 153.333C202.414 153.66 203.424 153.394 203.631 154.616C203.698 155.011 203.767 158.666 203.872 158.667Z" fill="#EDD2BD"/>
<path fill-rule="evenodd" clip-rule="evenodd" d="M202.293 158.003C202.023 158.048 201.777 158.228 201.62 158.496C201.528 158.651 201.464 158.836 201.349 158.964C201.235 159.088 201.084 159.146 200.937 159.201C200.233 159.461 199.705 159.547 199.046 159.944C198.811 160.086 198.552 160.193 198.281 160.261C198.199 160.281 198.112 160.3 198.051 160.355C197.978 160.42 197.96 160.523 197.963 160.617C197.977 161.009 198.298 161.349 198.683 161.507C199.143 161.694 199.666 161.701 200.138 161.86C200.693 162.048 201.27 162.027 201.84 161.913C202.994 161.683 204.039 161.111 205.056 160.578C205.146 160.531 205.241 160.478 205.295 160.376C205.352 160.267 205.352 160.123 205.348 159.988C205.324 159.235 205.304 158.087 204.458 158.117C204.097 158.13 203.778 158.411 203.389 158.399C203.07 158.389 202.536 157.962 202.293 158.003Z" fill="#4C4C4C"/>
<path fill-rule="evenodd" clip-rule="evenodd" d="M194.518 133.548C194.384 134.275 194.25 135.007 194.272 135.745C194.295 136.538 194.498 137.316 194.7 138.086C196.498 144.947 198.297 151.807 200.095 158.667C201.275 158.581 202.456 158.496 203.636 158.411C204.168 158.372 205.115 157.959 205.618 157.787C205.618 157.787 205.665 157.124 205.612 156.658C204.68 148.386 203.227 142.128 203.651 134.808C203.758 132.968 204.893 131.742 205.857 130.145C209.131 124.717 209.775 120.155 211.258 116.58C211.352 116.354 201.462 115.426 200.973 115.38C199.73 115.263 198.669 115.287 197.993 116.408C197.245 117.647 197.189 119.425 196.924 120.796C196.535 122.806 196.151 124.817 195.771 126.828C195.348 129.067 194.931 131.307 194.518 133.548Z" fill="#27393D"/>
<path fill-rule="evenodd" clip-rule="evenodd" d="M217.168 159.196C216.6 159.242 216.032 159.288 215.464 159.333C214.89 157.602 214.469 155.807 214.213 154C215.056 154.262 216.102 153.9 216.459 155.118C216.574 155.512 217.056 159.205 217.168 159.196Z" fill="#EDD2BD"/>
<path fill-rule="evenodd" clip-rule="evenodd" d="M215.754 158.098C215.461 158.176 215.21 158.4 215.066 158.712C214.983 158.893 214.933 159.104 214.82 159.257C214.709 159.407 214.548 159.486 214.392 159.561C213.643 159.92 213.069 160.068 212.385 160.574C212.141 160.755 211.867 160.899 211.575 161.001C211.487 161.032 211.393 161.062 211.332 161.129C211.259 161.209 211.25 161.324 211.265 161.428C211.325 161.861 211.72 162.206 212.164 162.341C212.694 162.503 213.275 162.457 213.815 162.587C214.45 162.739 215.087 162.658 215.705 162.475C216.955 162.105 218.045 161.366 219.109 160.674C219.204 160.613 219.303 160.544 219.35 160.426C219.401 160.3 219.385 160.14 219.364 159.991C219.251 159.159 219.096 157.89 218.163 158.008C217.765 158.058 217.445 158.401 217.013 158.427C216.659 158.448 216.018 158.028 215.754 158.098Z" fill="#4C4C4C"/>
<path fill-rule="evenodd" clip-rule="evenodd" d="M209.233 142.709C210.534 147.474 212.326 152.181 212.676 157.075C212.693 157.304 212.715 157.554 212.89 157.723C213.065 157.892 213.344 157.934 213.601 157.957C215.241 158.104 216.922 157.872 218.434 157.29C218.454 154.732 217.616 152.239 217.153 149.714C216.583 146.603 216.581 143.434 216.592 140.282C216.62 132.586 219.256 124.465 218.514 116.797C218.373 115.344 215.658 114.279 215.015 112.938C211.587 113.57 207.991 113.476 204.611 112.667C204.743 114.241 205.139 115.641 205.42 117.172C205.789 119.188 205.791 121.302 205.99 123.338C206.397 127.496 206.897 131.65 207.66 135.769C208.092 138.098 208.606 140.415 209.233 142.709Z" fill="#27393D"/>
<path fill-rule="evenodd" clip-rule="evenodd" d="M211.766 80.5507C212.529 80.7989 213.214 81.1394 213.744 81.5887C215.415 83.0064 216.791 84.9988 217.885 86.8273C220.127 90.5717 221.686 94.8054 222.435 99.0378C223.697 106.178 222.911 113.51 221.701 120.667C211.888 118.231 202 116.068 192.053 114.183C193.122 114.385 196.348 108.883 196.825 108.052C198.064 105.893 199.498 103.158 199.646 100.658C199.907 96.2352 198.66 91.8502 199.101 87.4276C199.269 85.7462 199.096 84.249 200.344 82.9181C201.687 81.485 203.602 80.5331 205.599 80.1847C207.322 79.8842 209.805 79.9131 211.766 80.5507Z" fill="#5D76F9"/>
<path fill-rule="evenodd" clip-rule="evenodd" d="M203.552 82.2861C203.572 82.6237 203.616 83.0011 203.582 83.3991C203.498 84.3869 203.312 85.3731 203.063 86.3349C202.847 87.1701 202.574 87.9924 202.396 88.8355C202.201 89.7548 202.12 90.692 202.051 91.6275C201.599 97.7815 201.646 104.045 199.858 109.977C199.44 111.362 198.922 112.731 198.726 114.16C198.684 114.467 198.671 114.817 198.893 115.044C199.08 115.236 199.377 115.279 199.65 115.311C201.736 115.555 203.825 115.785 205.915 116C205.726 113.545 206.177 111.093 206.462 108.646C206.895 104.924 206.943 101.161 206.604 97.4296C206.338 94.4974 205.834 91.5894 205.581 88.656C205.436 86.9741 205.13 85.2534 205.427 83.5703C205.569 82.765 206.347 81.9542 206.447 81.2614C206.584 80.3155 205.37 80.7423 204.564 80.9012C203.575 81.0964 203.514 81.6111 203.552 82.2861Z" fill="white"/>
<path fill-rule="evenodd" clip-rule="evenodd" d="M203.983 81.9875C204.048 82.0811 205.992 81.62 206.208 81.5789C206.884 81.4499 207.177 81.2126 207.143 80.5366C207.107 79.802 207.205 79.1037 207.479 78.4115C207.7 77.8512 208.134 77.4123 208.38 76.8666C208.598 76.3857 208.755 75.8827 208.86 75.372C209.031 74.539 209.071 73.6827 209.026 72.8373C208.991 72.1893 208.626 71.6174 208.433 70.9925C208.286 70.5194 208.132 70.0326 207.795 69.6468C207.205 68.9695 206.181 68.7439 205.229 68.6835C202.519 68.5117 197.69 69.6356 197.975 72.7826C198.037 73.4734 198.223 74.1495 198.409 74.8222C198.8 76.2412 198.973 78.9596 200.899 79.4399C201.442 79.5752 202.053 79.4648 202.556 79.6928C203.445 80.095 203.459 81.2253 203.983 81.9875Z" fill="#D5AB8D"/>
<path fill-rule="evenodd" clip-rule="evenodd" d="M213.619 67.6841C212.831 67.488 212.184 66.9939 211.551 66.5307C210.918 66.0677 210.227 65.6047 209.42 65.4954C208.688 65.3959 207.963 65.6028 207.228 65.6218C206.453 65.6417 205.684 65.4532 204.91 65.374C202.677 65.1451 200.377 65.892 198.937 67.3386C198.081 68.1989 196.692 70.1969 197.436 71.392C197.598 71.6523 197.891 71.8447 198.217 71.905C198.65 71.9851 199.121 71.7891 199.541 71.893C199.852 71.97 200.012 72.1703 200.234 72.3858C200.716 72.8543 201.176 73.362 201.841 73.6283C202.475 73.8816 203.197 73.8608 203.89 73.8355C204.044 73.8298 204.206 73.8219 204.335 73.7471C204.522 73.6387 204.585 73.4257 204.684 73.2469C204.875 72.9019 205.286 72.6344 205.714 72.6753C206.141 72.7161 206.501 73.1401 206.345 73.4985C206.186 73.8632 205.674 73.9579 205.248 74.0433C205.118 74.0693 204.962 74.1271 204.955 74.2461C204.95 74.3262 205.02 74.3926 205.084 74.4485L207.095 76.1912C207.503 76.5451 208.414 77.7584 209.002 77.1789C209.995 76.201 210.036 74.8869 210.951 73.9552C211.37 73.5287 211.749 73.0721 212.084 72.5913C212.725 71.6681 213.044 70.598 213.862 69.7781C214.172 69.4681 214.563 69.227 214.878 68.9211C215.404 68.4113 215.699 67.7238 215.691 67.0257C215.382 67.6689 214.407 67.8803 213.619 67.6841Z" fill="#56453F"/>
<path fill-rule="evenodd" clip-rule="evenodd" d="M206.268 81.4938C206.464 81.5455 206.67 81.6241 206.769 81.7826C206.923 82.0263 206.748 82.3392 206.504 82.5163C206.261 82.6934 205.954 82.7937 205.717 82.9767C205.168 83.3999 205.124 84.1293 205.12 84.7743C205.072 91.8646 204.759 98.9535 204.18 106.025C203.597 106.239 203.013 106.453 202.43 106.667C201.965 105.453 201.646 104.184 201.657 102.902C201.664 101.948 201.855 101.002 202.035 100.061C202.724 96.4626 203.277 92.8449 203.782 89.223C204.033 87.4293 204.297 85.6346 204.509 83.837C204.579 83.2456 204.369 82.5416 204.468 81.9943C204.614 81.181 205.368 81.2568 206.268 81.4938Z" fill="#1D899D"/>
<path fill-rule="evenodd" clip-rule="evenodd" d="M193.678 84.6969L157.31 87.6177C156.44 87.6877 155.793 88.3419 155.864 89.0791L158.814 119.452C158.886 120.189 159.648 120.73 160.518 120.661L203.16 117.236C204.03 117.166 204.677 116.512 204.605 115.774L202.173 90.7192C201.816 87.0451 198.013 84.3487 193.678 84.6969Z" fill="#608EA0"/>
<path fill-rule="evenodd" clip-rule="evenodd" d="M192.434 84.6964L155.606 87.7083C154.872 87.7683 154.326 88.3307 154.386 88.9645L157.373 120.289C157.434 120.923 158.078 121.388 158.812 121.328L201.909 117.804C202.643 117.744 203.189 117.181 203.129 116.547L200.657 90.6332C200.312 87.0113 196.63 84.3534 192.434 84.6964Z" fill="#BEBEBE"/>
<path fill-rule="evenodd" clip-rule="evenodd" d="M205.998 96L192.949 97.0192C190.197 97.2339 188.151 99.2466 188.377 101.514L188.385 101.597C188.612 103.865 191.026 105.529 193.777 105.315L206.827 104.296L205.998 96Z" fill="#D2E7EE"/>
<path fill-rule="evenodd" clip-rule="evenodd" d="M206.088 100.446L205.681 96L192.866 97.0925C190.164 97.3227 188.155 99.4801 188.377 101.911L188.385 102L206.088 100.446Z" fill="#D2E7EE"/>
<path fill-rule="evenodd" clip-rule="evenodd" d="M195.966 112.287C195.913 112.193 195.862 112.098 195.812 112.003C195.782 111.946 195.752 111.887 195.748 111.823C195.743 111.76 195.763 111.698 195.784 111.639C196.018 110.966 196.389 110.409 196.791 109.825C196.941 109.608 196.944 109.58 197.224 109.555C197.535 109.526 197.856 109.53 198.169 109.528C198.57 109.389 198.978 109.266 199.366 109.095C200.348 108.661 201.946 106.734 203.046 107.519C203.259 107.671 203.476 107.828 203.612 108.042C203.722 108.216 203.771 108.42 203.809 108.623C203.838 108.781 203.926 109.022 203.825 109.158C203.718 109.301 203.272 109.445 203.103 109.532L201.654 110.284C201.18 110.53 200.644 110.858 200.594 111.336C200.583 111.441 200.598 111.547 200.571 111.65C200.541 111.767 200.462 111.871 200.382 111.97C200.087 112.331 199.755 112.682 199.38 112.978C199.038 113.248 198.72 113.149 198.317 113.13C197.897 113.11 197.515 113.317 197.1 113.333C196.682 113.348 196.454 113.091 196.245 112.757C196.148 112.603 196.055 112.446 195.966 112.287Z" fill="#D5AB8D"/>
<path fill-rule="evenodd" clip-rule="evenodd" d="M213.529 102.744C213.023 103.723 212.287 104.574 211.239 105.424C208.649 107.523 205.706 109.299 202.551 110.667C201.494 109.694 200.683 108.524 200.179 107.246C202.449 105.664 204.586 103.936 206.563 102.085C207.531 101.177 208.224 100.245 208.015 99.0269C207.55 96.3145 206.844 93.6479 205.905 91.0573C205.697 90.4846 205.475 89.9015 205.502 89.2871C205.552 88.1606 206.479 87.0825 207.67 86.5257C208.862 85.9687 210.266 85.8878 211.526 86.1266C212.429 86.2976 213.307 86.6448 213.855 87.2636C214.422 87.9036 214.576 88.7551 214.682 89.5763C215.157 93.2392 215.005 97.0024 214.231 100.712C214.075 101.461 213.848 102.128 213.529 102.744Z" fill="#5D76F9"/>
</g>
<path fill-rule="evenodd" clip-rule="evenodd" d="M131.769 151.335C126.517 151.349 121.265 151.466 116.022 152.002C114.046 152.205 112.11 152.65 110.129 152.829C106.171 153.188 102.285 153.857 98.3132 154.166C95.1148 154.414 91.9032 154.561 88.7143 154.876C85.7244 155.172 82.4145 155.104 79.4477 154.615C77.2514 154.254 75.045 154.05 72.8855 153.469C70.4699 152.82 67.8456 152.355 65.3287 152.372C61.7395 152.396 58.2443 152.399 54.8095 153.546C53.6037 153.948 52.1278 154.61 51.2121 155.455C49.1163 157.39 48.8325 162.217 50.9253 164.224C54.4503 167.601 61.9734 168.926 66.9143 168.988C72.3283 169.057 77.588 168.687 83.01 168.469C88.0484 168.267 93.0741 167.98 98.1206 167.99C108.428 168.01 118.737 167.99 129.025 167.356C138.692 166.76 148.382 166.965 158.07 166.965C168.004 166.965 177.871 167.037 187.734 168.252C192.031 168.782 196.409 168.967 200.727 169.338C204.595 169.67 208.312 169.331 212.165 169.024C215.399 168.766 218.613 168.002 221.552 166.709C223.879 165.685 228.026 162.506 228.739 160.064C230.739 153.216 200.553 153.38 195.918 153.396C190.734 153.413 185.508 153.57 180.327 153.388C178.148 153.312 176 152.92 173.873 152.49C171.755 152.062 169.62 152.171 167.472 151.991C158.513 151.241 149.534 151.351 140.546 151.351C137.621 151.351 134.695 151.327 131.769 151.335Z" fill="#5E76FA" fill-opacity="0.1"/>
</svg>
