<svg width="310" height="318" viewBox="0 0 310 318" fill="none" xmlns="http://www.w3.org/2000/svg">
<path fill-rule="evenodd" clip-rule="evenodd" d="M35.0762 110.357C38.679 110.357 41.8725 111.925 43.9001 114.344C46.8255 112.662 50.2799 111.675 53.9952 111.675C54.869 111.675 55.7188 111.747 56.5567 111.851C56.1378 110.572 55.9032 109.219 55.9032 107.816C55.9032 100.025 62.8551 93.7088 71.4348 93.7088C75.2531 93.7088 78.7458 94.966 81.4509 97.0432C85.4943 90.916 92.8483 86.803 101.28 86.803C114.054 86.803 124.407 96.2102 124.407 107.816C124.407 119.135 114.552 128.338 102.216 128.788C102.216 128.814 102.22 128.841 102.22 128.869C102.22 138.363 93.7484 146.063 83.299 146.063C77.3909 146.063 72.1195 143.601 68.6459 139.746C65.1772 143.601 59.9058 146.063 53.9952 146.063C44.1634 146.063 36.0864 139.242 35.1671 130.524C35.1336 130.524 35.1049 130.528 35.0762 130.528C28.943 130.528 23.9732 126.015 23.9732 120.443C23.9732 114.874 28.943 110.357 35.0762 110.357Z" fill="#5E76FA" fill-opacity="0.1"/>
<path fill-rule="evenodd" clip-rule="evenodd" d="M234.265 53.9286C236.312 54.2191 238.024 55.2254 239.016 56.5433C240.789 55.9765 242.819 55.7839 244.93 56.0835C245.427 56.154 245.904 56.2566 246.373 56.374C246.221 55.73 246.178 55.0653 246.271 54.3957C246.788 50.6769 251.159 48.2226 256.033 48.9143C258.203 49.2222 260.104 50.1039 261.504 51.3135C264.209 48.715 268.661 47.3449 273.454 48.0249C280.712 49.0548 285.971 54.3798 285.2 59.9196C284.448 65.3222 278.237 68.9202 271.196 68.1404C271.195 68.1528 271.196 68.1657 271.194 68.1781C270.563 72.7108 265.237 75.7028 259.297 74.8599C255.941 74.3837 253.107 72.7832 251.391 70.6637C249.162 72.2234 246.003 72.9735 242.645 72.4971C237.057 71.7041 232.92 67.797 232.977 63.5619C232.959 63.5594 232.942 63.5592 232.925 63.5566C229.439 63.0621 226.915 60.5071 227.285 57.8473C227.655 55.1885 230.779 53.434 234.265 53.9286Z" fill="#5E76FA" fill-opacity="0.1"/>
<path fill-rule="evenodd" clip-rule="evenodd" d="M214.9 16.2976C214.9 12.2352 211.213 8.93976 206.668 8.93976C205.037 8.93976 203.52 9.37005 202.24 10.1019C199.853 8.42237 196.849 7.41229 193.575 7.41229C192.92 7.41229 192.283 7.46689 191.654 7.54229C191.655 7.49939 191.661 7.45519 191.661 7.41229C191.661 3.34858 187.976 0.0544434 183.429 0.0544434C180.259 0.0544434 177.51 1.65861 176.136 4.00896C173.28 2.1071 169.751 0.968325 165.916 0.968325C156.444 0.968325 148.767 7.83218 148.767 16.2976C148.767 24.7643 156.444 31.6282 165.916 31.6282C172.059 31.6282 187.574 32.4966 193.575 32.4966C199.888 32.4966 205.226 28.7696 206.988 23.6412C211.385 23.4904 214.9 20.2651 214.9 16.2976Z" fill="#5E76FA" fill-opacity="0.1"/>
<path fill-rule="evenodd" clip-rule="evenodd" d="M146.641 191.136C140.763 191.154 134.885 191.299 129.018 191.971C126.806 192.225 124.64 192.782 122.422 193.007C117.993 193.456 113.643 194.293 109.199 194.68C105.62 194.991 102.025 195.175 98.4565 195.57C95.1104 195.94 91.4062 195.854 88.086 195.243C85.6279 194.79 83.1587 194.535 80.742 193.808C78.0386 192.995 75.1017 192.413 72.2849 192.434C68.2681 192.464 64.3565 192.468 60.5124 193.904C59.1631 194.408 57.5113 195.237 56.4866 196.295C54.1411 198.717 53.8234 204.76 56.1655 207.272C60.1105 211.5 68.5298 213.159 74.0593 213.237C80.1184 213.323 86.0047 212.86 92.0726 212.588C97.7113 212.334 103.336 211.974 108.983 211.987C120.519 212.013 132.055 211.987 143.57 211.194C154.388 210.448 165.233 210.704 176.075 210.704C187.192 210.704 198.235 210.794 209.272 212.316C214.082 212.978 218.981 213.211 223.814 213.675C228.143 214.091 232.303 213.667 236.614 213.282C240.234 212.96 243.831 212.002 247.12 210.384C249.723 209.102 254.365 205.122 255.163 202.064C257.401 193.491 223.619 193.697 218.432 193.716C212.63 193.738 206.781 193.934 200.983 193.706C198.544 193.611 196.141 193.12 193.761 192.582C191.39 192.046 189.001 192.182 186.597 191.957C176.57 191.018 166.522 191.155 156.463 191.155C153.19 191.155 149.915 191.126 146.641 191.136Z" fill="#5E76FA" fill-opacity="0.1"/>
<path fill-rule="evenodd" clip-rule="evenodd" d="M75.2271 199.824L77.3137 201.836L81.0137 204.488L80.9367 202.796L79.2463 200.463L75.5466 197.811L75.2271 199.824Z" fill="#33435A"/>
<path fill-rule="evenodd" clip-rule="evenodd" d="M78.4054 141.177L77.5079 146.96L81.1481 173.244L75.2271 198.959L78.7983 200.315L92.2493 170.11L93.4137 160.705L92.8988 141.055L78.4054 141.177Z" fill="#002D51"/>
<path fill-rule="evenodd" clip-rule="evenodd" d="M103.514 141.182L105.814 165.609L103.831 197.517L100.306 197.811L95.6786 168.907L88.4536 140.22L103.514 141.182Z" fill="#002D51"/>
<path fill-rule="evenodd" clip-rule="evenodd" d="M102.409 199.409L104.092 201.15L105.814 198.89L103.781 196.976L100.027 197.323L102.409 199.409Z" fill="#33435A"/>
<path fill-rule="evenodd" clip-rule="evenodd" d="M86.7916 111.707C85.7588 112.101 84.7261 112.494 83.6934 112.887C83.2933 112.096 82.9559 111.273 82.6853 110.427C81.7221 110.546 80.5599 110.583 79.992 109.789C79.8131 109.539 79.723 109.237 79.6358 108.941C79.2763 107.719 78.9165 106.496 78.5567 105.274C78.4324 104.851 78.3065 104.415 78.3525 103.976C78.4337 103.207 79.0227 102.593 79.6417 102.136C81.2213 100.97 83.2897 100.407 85.1901 100.88C85.6959 101.005 86.1976 101.21 86.5724 101.575C87.1504 102.137 87.3393 102.982 87.5012 103.776C87.6506 104.509 87.8001 105.241 87.9495 105.974C88.1216 106.817 88.2574 107.804 87.6825 108.44C87.3773 108.777 86.9095 108.957 86.6752 109.347C86.2615 110.036 86.7873 110.901 86.7916 111.707Z" fill="#F6C5B0"/>
<path fill-rule="evenodd" clip-rule="evenodd" d="M91.2542 95.4938C91.2862 95.1276 91.3357 94.765 91.4154 94.4084C91.5882 93.6357 91.902 92.8902 91.9584 92.1003C92.0148 91.3103 91.7331 90.4181 91.0289 90.0686C90.5743 89.8428 90.037 89.8851 89.5381 89.9733C87.8938 90.2641 86.3311 91.0092 85.064 92.1058C83.8574 93.1504 82.9098 94.3551 81.263 94.5258C79.7154 94.6862 78.8706 95.3579 77.7468 96.5315C76.5309 97.8012 74.6095 98.9172 73.6408 100.336C73.2364 100.929 73.0315 101.641 72.9495 102.356C72.6667 104.832 73.9286 107.42 76.0455 108.705C76.5203 108.994 77.0299 109.219 77.5476 109.42C78.6183 109.834 79.9142 110.359 81.0116 110.163C80.6095 109.286 78.4895 106.948 78.8001 105.91C79.2931 104.262 81.8487 103.474 83.2811 103.104C84.8437 102.699 86.6001 103.08 88.108 102.595C89.1931 102.247 90.2358 101.104 90.8356 100.149C91.5753 98.9702 91.1385 96.8297 91.2542 95.4938Z" fill="#33435A"/>
<path fill-rule="evenodd" clip-rule="evenodd" d="M73.8954 154.323C74.1067 156.564 74.5262 159.568 75.39 159.577C75.5517 159.579 75.6953 159.481 75.8257 159.388C77.203 158.403 78.1117 157.139 79.4711 156.185C80.896 155.184 82.5845 154.542 84.2546 154.035C86.7503 153.263 89.3234 152.663 91.9166 152.31C94.732 151.927 100.29 151.837 100.29 151.837C101.844 151.38 103.296 150.65 104.755 149.959C107.263 148.772 109.839 147.683 112.145 146.164C112.885 145.676 114.917 144.253 114.02 143.289C113.34 142.559 111.286 142.259 110.331 141.874C107.22 140.621 104.435 138.768 102.434 136.007C99.6943 132.226 97.7217 127.288 96.2158 122.871C95.9368 122.053 95.6796 121.227 95.4319 120.399C95.2913 119.929 95.0814 118.113 94.6985 117.852C90.816 115.212 89.4671 112.655 85.2737 113.827C75.7055 116.502 76.4472 116.857 74.8326 121.932C74.1832 123.973 73.6024 129.315 73.51 131.438C73.3984 134.008 73.313 140.883 73.316 143.455C73.3196 146.324 73.4267 149.195 73.7104 152.049C73.7419 152.366 73.7953 153.258 73.8954 154.323Z" fill="#FFC71B"/>
<path fill-rule="evenodd" clip-rule="evenodd" d="M91.0884 108.117L96.4003 114.784L79.7648 121.838L77.6357 118.526L91.0884 108.117Z" fill="#FDC51C"/>
<path fill-rule="evenodd" clip-rule="evenodd" d="M80.9992 111.685L85.1568 112.115L92.2643 115.597L98.9769 143.244L87.5631 144.087L85.035 119.923L78.4125 117.637L76.4238 116.102L80.9992 111.685Z" fill="#FDC51C"/>
<mask id="mask0" mask-type="alpha" maskUnits="userSpaceOnUse" x="91" y="59" width="116" height="83">
<path fill-rule="evenodd" clip-rule="evenodd" d="M91.998 59.2598H206.599V141.477H91.998V59.2598Z" fill="white"/>
</mask>
<g mask="url(#mask0)">
<path fill-rule="evenodd" clip-rule="evenodd" d="M199.361 81.1981C191.063 72.1095 177.877 70.0183 167.668 75.7971C167.649 75.8078 167.629 75.814 167.609 75.8224C164.551 77.9422 162.338 81.1657 162.072 85.4797C162.014 86.4276 160.624 86.3611 160.683 85.4063C160.967 80.7825 163.22 77.2792 166.393 74.9188C159.475 62.8078 145.563 56.3878 132.902 60.5053C120.441 64.5572 112.555 77.376 113.218 91.2376C114.348 91.2536 115.485 91.3795 116.617 91.6326C121.118 92.6397 125.052 95.2932 128.241 98.8354C128.871 99.5359 127.877 100.543 127.249 99.8443C126.199 98.6789 125.048 97.6158 123.808 96.6896C119.205 93.2518 113.467 91.9214 108.113 93.4777C102.704 95.0501 97.5447 99.5992 94.8697 104.773C91.8044 110.702 91.09 117.898 93.2268 124.464C95.324 130.909 99.9523 136.278 105.822 139.047C111.266 141.616 116.988 142.006 122.706 140.881C126.457 140.143 130.188 139.309 133.918 138.474C144.578 136.084 155.213 133.583 165.845 131.068C170.515 129.963 175.185 128.853 179.853 127.739C183.688 126.823 187.8 126.185 191.394 124.499C203.146 118.985 209.64 104.589 205.19 91.1816C203.957 87.4632 201.955 84.0385 199.361 81.1981Z" fill="#5D76F8"/>
</g>
<path fill-rule="evenodd" clip-rule="evenodd" d="M205.19 91.3469C205.115 91.1191 205.036 90.8925 204.955 90.667C206.158 97.4291 204.448 104.305 199.064 108.861C193.532 113.542 187.378 117.728 180.743 120.174C163.324 126.595 144.354 131.539 126.361 136.108C120.619 137.572 115.143 138.534 108.046 139.792C107.988 139.802 107.961 139.877 107.917 139.924C112.023 141.401 116.307 141.806 120.649 141.384C121.335 141.294 122.021 141.182 122.706 141.047C126.457 140.309 130.188 139.475 133.918 138.639C144.38 136.293 154.819 133.841 165.254 131.373C166.562 131.06 167.871 130.747 169.179 130.433C174.012 129.273 178.843 128.108 183.674 126.939C185.085 126.597 186.532 126.286 187.978 125.953C189.15 125.596 190.296 125.18 191.394 124.665C203.146 119.151 209.64 104.755 205.19 91.3469Z" fill="#4A5EC9"/>
<path fill-rule="evenodd" clip-rule="evenodd" d="M237.92 198.726L238.098 200.526L234.856 202.767L232.966 201.188L234.498 199.167L237.74 196.927L237.92 198.726Z" fill="#33435A"/>
<path fill-rule="evenodd" clip-rule="evenodd" d="M237.892 143.703L238.435 149.169L233.558 167.943L238.041 198.123L234.718 199.274L225.989 169.805L224.607 161.234L224.676 143.09L237.892 143.703Z" fill="#002D51"/>
<path fill-rule="evenodd" clip-rule="evenodd" d="M212.341 149.77L219.278 200.34L222.453 200.343L223.056 167.933L228.858 145.189L212.341 149.77Z" fill="#002D51"/>
<path fill-rule="evenodd" clip-rule="evenodd" d="M222.436 200.866L222.434 201.76L221.263 203.572L217.283 201.754L219.002 199.94L222.436 199.943V200.866Z" fill="#33435A"/>
<path fill-rule="evenodd" clip-rule="evenodd" d="M220.285 112.797C222.682 110.799 228.455 111.955 231.492 111.958C232.119 118.684 233.334 125.403 234.823 131.983C236.11 137.668 238.568 143.213 239.659 148.891C240.632 153.955 242.759 157.596 246.763 161.068C247.387 161.609 248.105 162.312 247.918 163.12C247.806 163.607 247.386 163.953 246.976 164.236C242.934 167.028 237.74 167.314 232.842 167.392C229.123 167.452 225.403 167.446 221.684 167.375C216.839 167.282 211.449 166.701 207.32 163.869C207.06 163.69 206.781 163.459 206.762 163.142C206.745 162.87 206.926 162.631 207.085 162.411C209.974 158.39 209.647 151.736 210.214 147.026C210.854 141.711 211.497 136.381 212.759 131.18C213.578 127.806 214.658 124.498 215.983 121.292C216.991 118.851 218.196 114.854 220.088 112.976C220.151 112.914 220.216 112.854 220.285 112.797Z" fill="#9AAAED"/>
<path fill-rule="evenodd" clip-rule="evenodd" d="M217.577 90.8958C216.203 88.5629 214.18 86.7589 211.725 85.6792C210.064 84.9487 208.334 84.7692 206.661 84.5953L201.792 84.0899C199.529 83.8553 197.495 84.0812 195.574 84.781C193.125 85.6735 190.889 87.5081 189.438 89.8147C188.387 91.4864 187.748 93.3748 187.539 95.4267L184.892 121.393L188.76 121.795L191.421 95.6994C191.524 94.6798 191.707 93.9948 192.143 92.985C192.482 92.2016 193.227 91.1033 193.84 90.4848C194.657 89.6607 195.394 89.146 196.469 88.6493C197.448 88.1965 198.397 87.9694 199.643 87.8894C199.696 87.886 199.864 87.8798 200.283 87.8956C200.458 87.9022 200.646 87.9164 200.874 87.9401L207.69 88.6475C208.721 88.7544 209.407 88.9392 210.408 89.3795C211.185 89.721 212.273 90.4732 212.886 91.0919C213.703 91.9164 214.213 92.6601 214.705 93.7442C215.154 94.7321 215.379 95.6899 215.458 96.9471C215.461 97.0004 215.468 97.1697 215.452 97.5926C215.445 97.7689 215.431 97.9565 215.409 98.1825L212.748 124.285L216.617 124.686L219.277 98.5905C219.55 95.9083 218.963 93.2475 217.577 90.8958Z" fill="#FDC51C"/>
<path fill-rule="evenodd" clip-rule="evenodd" d="M200.722 131.508L200.027 138.326C199.975 138.832 199.349 139.182 198.627 139.107L198.601 139.104C197.879 139.029 197.336 138.558 197.388 138.052L198.083 131.234C195.909 130.413 194.47 128.193 194.719 125.754C195.014 122.856 197.582 120.748 200.455 121.046C203.327 121.344 205.416 123.935 205.121 126.834C204.872 129.272 203.015 131.151 200.722 131.508ZM181.465 111.175L178.579 139.488C178.188 143.317 180.949 146.741 184.744 147.135L210.574 149.815C214.369 150.209 217.762 147.424 218.152 143.595L221.039 115.282L181.465 111.175Z" fill="#FDC51C"/>
<path fill-rule="evenodd" clip-rule="evenodd" d="M183.595 146.853C183.965 146.956 184.348 147.032 184.743 147.073L210.574 149.754C214.369 150.148 217.762 147.363 218.152 143.533L219.464 130.669C215.126 150.684 183.738 146.849 183.595 146.853Z" fill="#ECB817"/>
<path fill-rule="evenodd" clip-rule="evenodd" d="M107.23 111.653L108.306 108.761L109.801 107.632L110.298 108.009L109.799 109.139L111.917 107.383L112.912 108.389L111.664 111.653L109.06 113.354L107.23 111.653Z" fill="#F6C5B0"/>
<path fill-rule="evenodd" clip-rule="evenodd" d="M76.981 117.201L97.6928 122.045L106.512 110.941L110.117 114.255L101.023 128.918L76.6425 127.959L74.8438 122.164L76.981 117.201Z" fill="#FFC71B"/>
<path fill-rule="evenodd" clip-rule="evenodd" d="M232.648 114.254L217.71 124.623L208.53 118.821L206.559 121.798L217.375 131.408L232.309 123.975L232.648 114.254Z" fill="#9AAAED"/>
<path fill-rule="evenodd" clip-rule="evenodd" d="M227.38 104.374C225.428 104.659 223.87 105.471 223.421 107.409C222.508 106.31 222.165 104.755 222.528 103.368C222.892 101.982 223.953 100.802 225.285 100.302C226.378 101.075 227.149 102.298 227.381 103.625L227.38 104.374Z" fill="#33435A"/>
<path fill-rule="evenodd" clip-rule="evenodd" d="M225.266 113.39C223.83 112.707 222.918 111.173 222.658 109.593C222.397 108.013 222.708 106.389 223.193 104.864C224.809 99.7882 231.134 101.493 232.462 105.933C233.62 109.803 229.441 115.378 225.266 113.39Z" fill="#F6C5B0"/>
<path fill-rule="evenodd" clip-rule="evenodd" d="M226.99 148.868C226.077 148.167 226.184 146.788 225.949 145.655C225.714 144.522 224.3 143.394 223.553 144.273C221.966 143.613 221.134 141.758 221.141 140.027C221.147 138.296 221.824 136.648 222.49 135.052C223.966 131.516 225.347 127.921 226.923 124.43C228.413 121.13 229.007 117.498 229.61 113.984C229.911 112.223 229.499 110.399 228.767 108.772C228.035 107.145 226.995 105.681 225.973 104.222C225.548 103.615 225.111 102.967 225.049 102.227C224.981 101.408 225.401 100.604 226 100.047C226.921 99.1885 227.933 98.8307 229.149 98.9534C233.418 99.3843 236.306 102.326 236.997 106.672C237.581 110.346 236.636 114.065 235.954 117.722C234.929 123.221 235.267 129.769 237.926 134.74C239.009 136.766 240.213 138.813 240.474 141.1C240.734 143.386 239.742 146.012 237.601 146.808C236.765 147.12 235.816 147.136 235.062 147.616C234.27 148.12 234.09 149.134 234.66 149.85C233.53 151.366 232.642 150.047 231.506 149.588C230.12 149.028 228.158 149.766 226.99 148.868Z" fill="#33435A"/>
<path fill-rule="evenodd" clip-rule="evenodd" d="M208.088 119.489L207.383 117.661L204.103 116.996L203.61 118.319L205.904 120.308L207.266 120.73L208.088 119.489Z" fill="#F6C5B0"/>
</svg>
