<svg id="svg" version="1.1" xmlns="http://www.w3.org/2000/svg" xmlns:xlink="http://www.w3.org/1999/xlink" width="400" height="148.8859764089122" viewBox="0, 0, 400,148.8859764089122"><g id="svgg"><path id="path0" d="M217.000 54.500 C 217.000 54.595,217.497 54.667,218.157 54.667 C 218.793 54.667,219.360 54.742,219.417 54.833 C 219.473 54.925,219.748 55.000,220.027 55.000 C 220.820 55.000,224.259 55.899,224.575 56.188 C 224.662 56.268,224.838 56.333,224.966 56.333 C 225.324 56.333,228.119 57.781,229.333 58.596 C 237.061 63.780,241.232 73.638,239.447 82.500 C 237.446 92.430,229.242 100.340,219.792 101.449 C 219.356 101.501,219.000 101.608,219.000 101.688 C 219.000 101.770,245.839 101.833,281.083 101.833 C 322.361 101.833,343.167 101.777,343.167 101.667 C 343.167 101.575,342.955 101.500,342.697 101.500 C 341.260 101.500,337.952 100.535,335.568 99.421 C 318.566 91.474,318.273 65.936,335.083 57.196 C 337.224 56.083,340.479 55.000,341.683 55.000 C 341.938 55.000,342.193 54.925,342.250 54.833 C 342.307 54.742,342.911 54.667,343.593 54.667 C 344.309 54.667,344.833 54.596,344.833 54.500 C 344.833 54.389,323.417 54.333,280.917 54.333 C 238.417 54.333,217.000 54.389,217.000 54.500 M346.500 54.500 C 346.500 54.592,346.762 54.667,347.083 54.667 C 347.404 54.667,347.667 54.592,347.667 54.500 C 347.667 54.408,347.404 54.333,347.083 54.333 C 346.762 54.333,346.500 54.408,346.500 54.500 " stroke="none" fill="#2bfb84" fill-rule="evenodd"></path><path id="path1" d="M170.042 32.277 C 169.744 32.320,169.500 32.415,169.500 32.489 C 169.500 32.563,169.240 32.665,168.922 32.717 C 168.344 32.811,168.162 32.919,167.393 33.625 C 167.169 33.831,166.925 34.000,166.852 34.000 C 166.667 34.000,165.833 34.731,165.833 34.892 C 165.833 34.965,165.740 35.128,165.625 35.256 C 165.226 35.701,165.081 35.921,164.750 36.583 C 164.567 36.950,164.342 37.304,164.250 37.369 C 164.002 37.546,164.029 43.145,164.278 43.299 C 164.386 43.366,164.525 43.626,164.588 43.877 C 164.651 44.128,164.770 44.333,164.851 44.333 C 164.933 44.333,165.000 44.483,165.000 44.667 C 165.000 44.850,165.075 45.000,165.167 45.000 C 165.258 45.000,165.333 45.085,165.333 45.188 C 165.333 45.481,167.202 47.270,167.659 47.415 C 167.884 47.486,168.170 47.647,168.296 47.772 C 168.421 47.897,168.668 48.000,168.845 48.000 C 169.022 48.000,169.167 48.075,169.167 48.167 C 169.167 48.258,169.354 48.333,169.583 48.333 C 169.813 48.333,170.000 48.408,170.000 48.500 C 170.000 48.603,170.830 48.667,172.157 48.667 C 173.415 48.667,174.357 48.597,174.417 48.500 C 174.473 48.408,174.665 48.333,174.843 48.333 C 175.021 48.333,175.167 48.268,175.167 48.188 C 175.167 48.108,175.467 47.995,175.833 47.936 C 176.200 47.877,176.500 47.760,176.500 47.676 C 176.500 47.592,176.668 47.469,176.873 47.404 C 177.367 47.247,179.485 45.034,179.607 44.548 C 179.660 44.338,179.766 44.167,179.844 44.167 C 179.921 44.167,180.037 43.885,180.100 43.542 C 180.163 43.198,180.284 42.872,180.369 42.817 C 180.574 42.683,180.580 38.321,180.375 38.187 C 180.287 38.130,180.164 37.810,180.103 37.475 C 179.955 36.672,179.596 35.974,179.175 35.672 C 178.987 35.537,178.833 35.336,178.833 35.226 C 178.833 34.931,177.488 33.667,177.174 33.667 C 177.078 33.667,177.000 33.594,177.000 33.504 C 177.000 33.321,175.651 32.667,175.273 32.667 C 175.138 32.667,174.999 32.580,174.964 32.474 C 174.897 32.274,171.119 32.123,170.042 32.277 M50.500 54.475 C 50.500 54.553,49.508 54.660,48.295 54.714 C 46.972 54.773,46.067 54.883,46.031 54.990 C 45.999 55.087,45.753 55.167,45.486 55.167 C 45.219 55.167,45.000 55.231,45.000 55.310 C 45.000 55.389,44.612 55.500,44.138 55.556 C 43.663 55.612,43.232 55.724,43.179 55.805 C 43.126 55.886,42.802 56.004,42.458 56.067 C 42.115 56.130,41.833 56.247,41.833 56.328 C 41.833 56.408,41.608 56.523,41.333 56.583 C 41.058 56.644,40.833 56.762,40.833 56.847 C 40.833 56.931,40.683 57.000,40.500 57.000 C 40.317 57.000,40.167 57.067,40.167 57.149 C 40.167 57.230,39.973 57.346,39.736 57.405 C 39.499 57.465,39.143 57.688,38.944 57.900 C 38.746 58.113,38.415 58.340,38.208 58.405 C 38.002 58.469,37.833 58.588,37.833 58.667 C 37.833 58.747,37.607 59.023,37.331 59.281 C 35.993 60.529,35.500 61.078,35.500 61.318 C 35.500 61.409,35.402 61.543,35.283 61.617 C 35.058 61.755,34.500 62.838,34.500 63.136 C 34.500 63.229,34.423 63.331,34.329 63.362 C 34.236 63.394,34.111 63.719,34.054 64.085 C 33.996 64.451,33.866 64.804,33.766 64.869 C 33.508 65.037,33.514 71.530,33.772 71.849 C 33.876 71.978,34.014 72.327,34.077 72.625 C 34.141 72.923,34.262 73.167,34.347 73.167 C 34.431 73.167,34.500 73.320,34.500 73.508 C 34.500 73.695,34.682 74.030,34.904 74.252 C 35.126 74.474,35.356 74.808,35.415 74.995 C 35.474 75.181,35.592 75.333,35.678 75.333 C 35.763 75.333,35.834 75.427,35.834 75.542 C 35.835 75.767,36.502 76.498,37.317 77.167 C 37.596 77.396,38.035 77.779,38.293 78.019 C 38.552 78.259,38.947 78.513,39.173 78.585 C 39.399 78.656,39.700 78.849,39.843 79.013 C 39.986 79.177,40.305 79.362,40.552 79.424 C 40.798 79.485,41.000 79.602,41.000 79.683 C 41.000 79.763,41.300 79.877,41.667 79.936 C 42.033 79.995,42.333 80.107,42.333 80.186 C 42.333 80.265,42.633 80.377,43.000 80.436 C 43.367 80.495,43.667 80.608,43.667 80.688 C 43.667 80.768,43.854 80.833,44.083 80.833 C 44.313 80.833,44.500 80.901,44.500 80.984 C 44.500 81.066,44.950 81.186,45.500 81.250 C 46.050 81.314,46.500 81.424,46.500 81.495 C 46.500 81.566,47.023 81.675,47.663 81.738 C 48.302 81.801,48.865 81.917,48.914 81.996 C 48.962 82.074,49.564 82.191,50.251 82.255 C 50.938 82.320,51.500 82.439,51.500 82.520 C 51.500 82.600,51.721 82.667,51.990 82.667 C 52.260 82.667,52.521 82.732,52.570 82.811 C 52.619 82.891,53.033 83.006,53.489 83.066 C 53.946 83.127,54.362 83.245,54.414 83.329 C 54.465 83.412,54.844 83.531,55.254 83.593 C 55.664 83.654,56.000 83.765,56.000 83.839 C 56.000 83.913,56.210 84.020,56.468 84.076 C 56.725 84.133,57.041 84.326,57.171 84.506 C 57.301 84.686,57.486 84.833,57.583 84.833 C 57.787 84.833,58.333 85.432,58.333 85.655 C 58.333 85.738,58.427 85.837,58.542 85.875 C 58.684 85.922,58.750 86.343,58.750 87.196 L 58.750 88.448 58.000 89.148 C 57.587 89.533,57.081 89.890,56.875 89.942 C 56.669 89.994,56.500 90.100,56.500 90.177 C 56.500 90.255,56.219 90.370,55.875 90.433 C 55.531 90.496,55.196 90.631,55.131 90.732 C 54.965 90.990,49.865 90.987,49.702 90.729 C 49.637 90.625,49.265 90.488,48.875 90.422 C 48.485 90.357,48.167 90.236,48.167 90.152 C 48.167 90.068,48.025 90.000,47.851 90.000 C 47.678 90.000,47.492 89.888,47.440 89.750 C 47.387 89.612,47.229 89.500,47.089 89.500 C 46.948 89.500,46.833 89.425,46.833 89.333 C 46.833 89.242,46.719 89.167,46.580 89.167 C 46.300 89.167,44.167 87.107,44.167 86.836 C 44.167 86.743,44.093 86.667,44.003 86.667 C 43.913 86.667,43.793 86.479,43.735 86.250 C 43.678 86.021,43.572 85.833,43.500 85.833 C 43.428 85.833,43.323 85.647,43.266 85.419 C 43.113 84.810,40.543 84.570,40.185 85.132 C 40.129 85.220,39.840 85.344,39.542 85.409 C 39.244 85.474,39.000 85.596,39.000 85.680 C 39.000 85.764,38.888 85.833,38.751 85.833 C 38.422 85.833,37.167 86.381,37.167 86.525 C 37.167 86.587,36.867 86.688,36.500 86.750 C 36.133 86.812,35.833 86.928,35.833 87.007 C 35.833 87.087,35.571 87.201,35.250 87.261 C 34.929 87.321,34.667 87.429,34.667 87.500 C 34.667 87.571,34.404 87.679,34.083 87.739 C 33.762 87.799,33.500 87.920,33.500 88.008 C 33.500 88.095,33.350 88.167,33.167 88.167 C 32.983 88.167,32.833 88.242,32.833 88.333 C 32.833 88.425,32.724 88.500,32.591 88.500 C 32.129 88.500,32.032 90.711,32.481 90.988 C 32.569 91.042,32.692 91.294,32.756 91.547 C 32.819 91.801,33.002 92.100,33.162 92.212 C 33.322 92.325,33.505 92.585,33.571 92.792 C 33.636 92.998,33.751 93.167,33.826 93.167 C 33.902 93.167,34.011 93.354,34.068 93.583 C 34.126 93.813,34.247 94.000,34.337 94.000 C 34.426 94.000,34.500 94.080,34.500 94.177 C 34.500 94.352,37.420 97.333,37.592 97.333 C 37.641 97.333,37.883 97.521,38.131 97.750 C 38.378 97.979,38.677 98.167,38.795 98.167 C 38.914 98.167,39.052 98.275,39.102 98.406 C 39.153 98.538,39.413 98.694,39.681 98.753 C 39.948 98.812,40.167 98.929,40.167 99.013 C 40.167 99.098,40.317 99.167,40.500 99.167 C 40.683 99.167,40.833 99.236,40.833 99.320 C 40.833 99.404,41.058 99.523,41.333 99.583 C 41.608 99.644,41.833 99.761,41.833 99.845 C 41.833 99.928,42.133 100.044,42.500 100.103 C 42.867 100.161,43.167 100.256,43.167 100.314 C 43.167 100.484,44.029 100.811,44.792 100.931 C 45.181 100.992,45.500 101.101,45.500 101.173 C 45.500 101.245,46.137 101.357,46.917 101.421 C 47.696 101.486,48.333 101.606,48.333 101.686 C 48.333 101.767,50.058 101.833,52.167 101.833 C 54.275 101.833,56.000 101.769,56.000 101.691 C 56.000 101.612,56.538 101.498,57.196 101.437 C 57.854 101.376,58.472 101.262,58.571 101.184 C 58.669 101.106,59.105 100.991,59.538 100.928 C 59.971 100.865,60.369 100.743,60.423 100.657 C 60.476 100.571,60.665 100.500,60.843 100.500 C 61.021 100.500,61.167 100.428,61.167 100.341 C 61.167 100.253,61.429 100.133,61.750 100.072 C 62.071 100.012,62.333 99.896,62.333 99.815 C 62.333 99.733,62.478 99.667,62.655 99.667 C 62.832 99.667,63.089 99.554,63.226 99.417 C 63.364 99.279,63.557 99.167,63.655 99.167 C 63.753 99.167,63.833 99.100,63.833 99.018 C 63.833 98.936,64.021 98.822,64.250 98.765 C 64.479 98.707,64.667 98.587,64.667 98.497 C 64.667 98.407,64.782 98.333,64.922 98.333 C 65.062 98.333,65.220 98.221,65.273 98.083 C 65.326 97.946,65.468 97.833,65.589 97.833 C 65.891 97.833,68.771 94.960,68.910 94.520 C 68.972 94.326,69.092 94.167,69.178 94.167 C 69.263 94.167,69.333 94.054,69.333 93.917 C 69.333 93.779,69.402 93.667,69.487 93.667 C 69.571 93.667,69.690 93.442,69.750 93.167 C 69.810 92.892,69.923 92.667,70.000 92.667 C 70.077 92.667,70.193 92.423,70.258 92.125 C 70.322 91.827,70.443 91.540,70.525 91.487 C 70.608 91.435,70.721 91.003,70.778 90.529 C 70.834 90.055,70.944 89.667,71.023 89.667 C 71.102 89.667,71.167 88.504,71.167 87.083 C 71.167 85.662,71.100 84.500,71.019 84.500 C 70.938 84.500,70.820 84.087,70.757 83.583 C 70.694 83.079,70.583 82.667,70.509 82.667 C 70.436 82.667,70.328 82.367,70.269 82.000 C 70.211 81.633,70.097 81.333,70.016 81.333 C 69.935 81.333,69.827 81.163,69.775 80.955 C 69.722 80.747,69.527 80.413,69.340 80.212 C 69.153 80.011,69.000 79.800,69.000 79.743 C 69.000 79.641,68.131 78.653,67.706 78.272 C 67.591 78.168,67.209 77.821,66.857 77.500 C 65.884 76.613,65.568 76.377,65.184 76.256 C 64.991 76.194,64.833 76.080,64.833 76.002 C 64.833 75.924,64.608 75.810,64.333 75.750 C 64.058 75.690,63.833 75.571,63.833 75.487 C 63.833 75.402,63.721 75.333,63.583 75.333 C 63.446 75.333,63.333 75.258,63.333 75.167 C 63.333 75.075,63.240 75.000,63.125 74.999 C 63.010 74.998,62.700 74.885,62.436 74.747 C 62.172 74.610,61.666 74.451,61.311 74.394 C 60.957 74.337,60.667 74.234,60.667 74.164 C 60.667 74.095,60.329 73.987,59.917 73.925 C 59.504 73.864,59.167 73.743,59.167 73.656 C 59.167 73.570,58.904 73.500,58.583 73.500 C 58.262 73.500,58.000 73.432,58.000 73.350 C 58.000 73.267,57.550 73.147,57.000 73.083 C 56.450 73.019,55.961 72.905,55.915 72.830 C 55.868 72.755,55.343 72.641,54.748 72.577 C 54.153 72.513,53.667 72.404,53.667 72.333 C 53.667 72.263,53.179 72.153,52.583 72.089 C 51.987 72.026,51.500 71.904,51.500 71.820 C 51.500 71.736,51.275 71.667,51.000 71.667 C 50.725 71.667,50.500 71.599,50.500 71.516 C 50.500 71.433,50.125 71.313,49.667 71.250 C 49.208 71.187,48.833 71.068,48.833 70.986 C 48.833 70.904,48.533 70.789,48.167 70.731 C 47.800 70.672,47.500 70.559,47.500 70.479 C 47.500 70.399,47.391 70.333,47.258 70.333 C 47.125 70.333,46.957 70.234,46.883 70.112 C 46.810 69.991,46.617 69.843,46.455 69.783 C 46.292 69.723,46.109 69.541,46.048 69.379 C 45.987 69.216,45.829 69.002,45.696 68.902 C 44.964 68.354,45.899 66.100,47.002 65.749 C 47.184 65.691,47.333 65.578,47.333 65.496 C 47.333 65.415,47.615 65.297,47.958 65.234 C 48.302 65.170,48.637 65.036,48.702 64.934 C 48.869 64.677,53.968 64.680,54.131 64.938 C 54.196 65.041,54.569 65.179,54.958 65.244 C 55.348 65.309,55.667 65.425,55.667 65.501 C 55.667 65.578,55.907 65.693,56.201 65.757 C 56.494 65.822,56.875 66.053,57.046 66.271 C 57.217 66.488,57.424 66.667,57.506 66.667 C 57.691 66.667,58.666 67.607,58.667 67.786 C 58.674 68.834,61.030 69.348,62.417 68.604 C 62.692 68.456,63.048 68.335,63.208 68.334 C 63.369 68.334,63.500 68.258,63.500 68.167 C 63.500 68.075,63.650 68.000,63.833 68.000 C 64.017 68.000,64.167 67.933,64.167 67.852 C 64.167 67.770,64.429 67.655,64.750 67.594 C 65.071 67.534,65.333 67.423,65.333 67.347 C 65.333 67.271,65.633 67.161,66.000 67.103 C 66.367 67.044,66.667 66.932,66.667 66.853 C 66.667 66.774,66.967 66.661,67.333 66.603 C 67.700 66.544,68.000 66.422,68.000 66.331 C 68.000 66.241,68.112 66.167,68.250 66.167 C 68.387 66.167,68.500 66.092,68.500 66.000 C 68.500 65.908,68.676 65.833,68.891 65.833 C 69.736 65.833,70.314 63.299,69.529 63.037 C 69.421 63.002,69.333 62.866,69.333 62.736 C 69.333 62.606,69.263 62.500,69.178 62.500 C 69.092 62.500,68.971 62.338,68.908 62.141 C 68.846 61.943,68.616 61.616,68.397 61.413 C 68.179 61.211,68.000 60.983,68.000 60.906 C 68.000 60.707,65.703 58.500,65.496 58.500 C 65.401 58.500,65.282 58.394,65.233 58.265 C 65.183 58.136,64.960 57.984,64.738 57.929 C 64.515 57.873,64.333 57.759,64.333 57.677 C 64.333 57.594,64.108 57.477,63.833 57.417 C 63.558 57.356,63.333 57.238,63.333 57.153 C 63.333 57.069,63.221 57.000,63.083 57.000 C 62.946 57.000,62.833 56.928,62.833 56.841 C 62.833 56.753,62.571 56.633,62.250 56.572 C 61.929 56.512,61.667 56.403,61.667 56.329 C 61.667 56.256,61.367 56.145,61.000 56.083 C 60.633 56.021,60.333 55.905,60.333 55.824 C 60.333 55.744,59.957 55.628,59.496 55.567 C 59.036 55.506,58.619 55.391,58.570 55.311 C 58.521 55.232,58.266 55.167,58.004 55.167 C 57.742 55.167,57.501 55.087,57.469 54.991 C 57.434 54.884,56.444 54.776,54.955 54.715 C 53.605 54.660,52.500 54.552,52.500 54.475 C 52.500 54.397,52.050 54.333,51.500 54.333 C 50.950 54.333,50.500 54.397,50.500 54.475 M79.833 54.482 C 79.833 54.564,79.647 54.677,79.419 54.734 C 78.806 54.888,78.564 57.627,79.133 57.979 C 79.225 58.037,79.354 58.440,79.419 58.875 C 79.484 59.310,79.600 59.667,79.675 59.667 C 79.751 59.667,79.864 60.004,79.925 60.417 C 79.987 60.829,80.104 61.167,80.186 61.167 C 80.267 61.167,80.333 61.392,80.333 61.667 C 80.333 61.942,80.401 62.167,80.484 62.167 C 80.567 62.167,80.687 62.542,80.750 63.000 C 80.813 63.458,80.928 63.833,81.005 63.833 C 81.083 63.833,81.197 64.171,81.259 64.583 C 81.321 64.996,81.438 65.333,81.519 65.333 C 81.600 65.333,81.666 65.465,81.666 65.625 C 81.665 65.977,82.200 67.548,82.363 67.670 C 82.426 67.717,82.530 68.149,82.594 68.628 C 82.658 69.108,82.766 69.500,82.836 69.500 C 82.905 69.500,83.016 69.856,83.081 70.292 C 83.146 70.727,83.248 71.121,83.308 71.167 C 83.458 71.281,84.000 72.899,84.000 73.231 C 84.000 73.379,84.066 73.500,84.148 73.500 C 84.229 73.500,84.346 73.837,84.408 74.250 C 84.470 74.662,84.580 75.000,84.654 75.000 C 84.727 75.000,84.833 75.393,84.890 75.874 C 84.947 76.355,85.070 76.773,85.164 76.805 C 85.257 76.836,85.333 77.042,85.333 77.264 C 85.333 77.485,85.401 77.667,85.484 77.667 C 85.567 77.667,85.687 78.042,85.750 78.500 C 85.813 78.958,85.928 79.333,86.005 79.333 C 86.083 79.333,86.197 79.671,86.259 80.083 C 86.321 80.496,86.431 80.833,86.503 80.833 C 86.576 80.833,86.687 81.208,86.750 81.666 C 86.813 82.125,86.933 82.542,87.016 82.593 C 87.099 82.644,87.167 82.869,87.167 83.093 C 87.167 83.317,87.237 83.500,87.323 83.500 C 87.409 83.500,87.530 83.837,87.592 84.250 C 87.654 84.662,87.764 85.000,87.837 85.000 C 87.909 85.000,88.020 85.375,88.083 85.833 C 88.146 86.292,88.261 86.667,88.339 86.667 C 88.416 86.667,88.530 87.004,88.592 87.417 C 88.654 87.829,88.771 88.167,88.852 88.167 C 88.934 88.167,89.000 88.392,89.000 88.667 C 89.000 88.942,89.068 89.167,89.151 89.167 C 89.234 89.167,89.354 89.542,89.417 90.000 C 89.480 90.458,89.595 90.833,89.672 90.833 C 89.750 90.833,89.864 91.171,89.925 91.583 C 89.987 91.996,90.096 92.333,90.167 92.333 C 90.238 92.333,90.346 92.669,90.407 93.079 C 90.469 93.490,90.590 93.869,90.676 93.923 C 90.763 93.976,90.833 94.165,90.833 94.343 C 90.833 94.521,90.903 94.667,90.988 94.667 C 91.073 94.667,91.194 95.079,91.257 95.583 C 91.320 96.087,91.431 96.500,91.504 96.500 C 91.576 96.500,91.687 96.875,91.750 97.333 C 91.813 97.792,91.928 98.167,92.005 98.167 C 92.083 98.167,92.197 98.504,92.259 98.917 C 92.321 99.329,92.438 99.667,92.519 99.667 C 92.600 99.667,92.667 99.854,92.667 100.083 C 92.667 100.313,92.742 100.500,92.833 100.500 C 92.925 100.500,93.000 100.671,93.000 100.880 C 93.000 101.822,93.085 101.833,100.169 101.833 C 107.271 101.833,107.333 101.825,107.333 100.833 C 107.333 100.650,107.401 100.500,107.484 100.500 C 107.567 100.500,107.687 100.125,107.750 99.667 C 107.813 99.208,107.928 98.833,108.005 98.833 C 108.083 98.833,108.197 98.496,108.259 98.083 C 108.321 97.671,108.429 97.333,108.500 97.333 C 108.570 97.333,108.680 96.921,108.743 96.417 C 108.806 95.912,108.927 95.500,109.012 95.500 C 109.097 95.500,109.167 95.313,109.167 95.083 C 109.167 94.854,109.237 94.667,109.323 94.667 C 109.409 94.667,109.530 94.329,109.592 93.917 C 109.654 93.504,109.766 93.167,109.840 93.167 C 109.915 93.167,110.028 92.754,110.091 92.250 C 110.154 91.746,110.264 91.333,110.337 91.333 C 110.409 91.333,110.520 90.958,110.583 90.500 C 110.646 90.042,110.766 89.667,110.849 89.667 C 110.932 89.667,111.000 89.521,111.000 89.343 C 111.000 89.165,111.068 88.977,111.152 88.926 C 111.236 88.874,111.358 88.513,111.423 88.124 C 111.488 87.735,111.609 87.374,111.691 87.321 C 111.774 87.268,111.888 86.837,111.944 86.362 C 112.000 85.888,112.106 85.500,112.180 85.500 C 112.253 85.500,112.364 85.162,112.425 84.750 C 112.487 84.337,112.604 84.000,112.686 84.000 C 112.767 84.000,112.833 83.813,112.833 83.583 C 112.833 83.354,112.900 83.167,112.981 83.167 C 113.062 83.167,113.179 82.831,113.241 82.421 C 113.302 82.010,113.413 81.637,113.488 81.591 C 113.562 81.545,113.673 81.131,113.734 80.670 C 113.795 80.210,113.917 79.833,114.006 79.833 C 114.094 79.833,114.167 79.646,114.167 79.417 C 114.167 79.188,114.233 79.000,114.314 79.000 C 114.396 79.000,114.513 78.664,114.574 78.254 C 114.636 77.844,114.752 77.467,114.833 77.417 C 114.914 77.367,115.031 76.990,115.093 76.579 C 115.154 76.169,115.262 75.833,115.333 75.833 C 115.404 75.833,115.513 75.421,115.576 74.917 C 115.639 74.412,115.760 74.000,115.845 74.000 C 115.930 74.000,116.000 73.813,116.000 73.583 C 116.000 73.354,116.075 73.167,116.167 73.167 C 116.258 73.167,116.333 73.054,116.333 72.917 C 116.333 72.250,116.810 72.727,116.917 73.500 C 116.980 73.958,117.095 74.333,117.172 74.333 C 117.250 74.333,117.364 74.671,117.425 75.083 C 117.487 75.496,117.604 75.833,117.686 75.833 C 117.767 75.833,117.833 76.021,117.833 76.250 C 117.833 76.479,117.903 76.667,117.988 76.667 C 118.073 76.667,118.194 77.079,118.257 77.583 C 118.320 78.087,118.434 78.500,118.509 78.500 C 118.584 78.500,118.697 78.837,118.759 79.250 C 118.821 79.662,118.931 80.000,119.003 80.000 C 119.076 80.000,119.187 80.375,119.250 80.833 C 119.313 81.292,119.433 81.667,119.516 81.667 C 119.599 81.667,119.667 81.817,119.667 82.000 C 119.667 82.183,119.731 82.333,119.810 82.333 C 119.889 82.333,120.000 82.721,120.056 83.196 C 120.112 83.670,120.227 84.101,120.313 84.154 C 120.398 84.207,120.521 84.606,120.586 85.042 C 120.651 85.477,120.762 85.833,120.833 85.833 C 120.904 85.833,121.013 86.171,121.075 86.583 C 121.136 86.996,121.257 87.333,121.344 87.333 C 121.430 87.333,121.500 87.521,121.500 87.750 C 121.500 87.979,121.566 88.167,121.647 88.167 C 121.729 88.167,121.846 88.579,121.909 89.083 C 121.972 89.587,122.085 90.000,122.160 90.000 C 122.234 90.000,122.346 90.337,122.408 90.750 C 122.470 91.162,122.584 91.500,122.661 91.500 C 122.739 91.500,122.854 91.875,122.917 92.333 C 122.980 92.792,123.099 93.167,123.182 93.167 C 123.265 93.167,123.333 93.392,123.333 93.667 C 123.333 93.942,123.401 94.167,123.484 94.167 C 123.567 94.167,123.687 94.542,123.750 95.000 C 123.813 95.458,123.928 95.833,124.005 95.833 C 124.083 95.833,124.197 96.171,124.259 96.583 C 124.321 96.996,124.429 97.333,124.500 97.333 C 124.571 97.333,124.679 97.671,124.741 98.083 C 124.803 98.496,124.924 98.833,125.010 98.833 C 125.096 98.833,125.167 99.096,125.167 99.417 C 125.167 99.737,125.233 100.000,125.315 100.000 C 125.396 100.000,125.513 100.267,125.574 100.593 C 125.816 101.882,125.528 101.833,132.917 101.833 C 137.194 101.833,139.500 101.775,139.500 101.667 C 139.500 101.575,139.649 101.500,139.831 101.500 C 140.089 101.500,140.186 101.352,140.269 100.833 C 140.328 100.467,140.437 100.167,140.511 100.167 C 140.585 100.167,140.697 99.829,140.759 99.417 C 140.821 99.004,140.929 98.667,141.000 98.667 C 141.070 98.667,141.180 98.254,141.243 97.750 C 141.306 97.246,141.427 96.833,141.512 96.833 C 141.597 96.833,141.667 96.646,141.667 96.417 C 141.667 96.188,141.733 96.000,141.814 96.000 C 141.896 96.000,142.013 95.662,142.075 95.250 C 142.136 94.837,142.250 94.500,142.328 94.500 C 142.405 94.500,142.520 94.125,142.583 93.667 C 142.646 93.208,142.748 92.833,142.808 92.833 C 142.937 92.833,143.254 91.862,143.421 90.958 C 143.485 90.615,143.597 90.333,143.670 90.333 C 143.742 90.333,143.854 89.958,143.917 89.500 C 143.980 89.042,144.091 88.667,144.163 88.667 C 144.236 88.667,144.346 88.329,144.408 87.917 C 144.470 87.504,144.591 87.167,144.677 87.167 C 144.763 87.167,144.833 86.984,144.833 86.760 C 144.833 86.536,144.906 86.308,144.995 86.253 C 145.084 86.198,145.206 85.781,145.267 85.326 C 145.327 84.872,145.433 84.500,145.503 84.500 C 145.572 84.500,145.679 84.162,145.741 83.750 C 145.803 83.337,145.917 83.000,145.995 83.000 C 146.072 83.000,146.187 82.625,146.250 82.167 C 146.313 81.708,146.433 81.333,146.516 81.333 C 146.599 81.333,146.667 81.146,146.667 80.917 C 146.667 80.688,146.737 80.500,146.823 80.500 C 146.909 80.500,147.030 80.162,147.092 79.750 C 147.154 79.337,147.262 79.000,147.333 79.000 C 147.404 79.000,147.513 78.587,147.576 78.083 C 147.639 77.579,147.752 77.167,147.826 77.167 C 147.901 77.167,148.013 76.829,148.075 76.417 C 148.136 76.004,148.257 75.667,148.344 75.667 C 148.430 75.667,148.500 75.484,148.500 75.260 C 148.500 75.036,148.571 74.809,148.657 74.756 C 148.743 74.703,148.864 74.323,148.926 73.913 C 148.987 73.502,149.100 73.167,149.175 73.167 C 149.251 73.167,149.364 72.829,149.425 72.417 C 149.487 72.004,149.596 71.667,149.666 71.667 C 149.737 71.667,149.846 71.254,149.909 70.750 C 149.972 70.246,150.094 69.833,150.179 69.833 C 150.264 69.833,150.333 69.646,150.333 69.417 C 150.333 69.188,150.404 69.000,150.490 69.000 C 150.576 69.000,150.697 68.662,150.759 68.250 C 150.821 67.837,150.929 67.500,151.000 67.500 C 151.071 67.500,151.182 67.144,151.247 66.708 C 151.313 66.273,151.436 65.874,151.521 65.821 C 151.606 65.768,151.721 65.337,151.778 64.862 C 151.834 64.388,151.944 64.000,152.023 64.000 C 152.102 64.000,152.167 63.854,152.167 63.677 C 152.167 63.499,152.237 63.309,152.324 63.256 C 152.410 63.203,152.531 62.823,152.593 62.413 C 152.654 62.002,152.766 61.667,152.842 61.667 C 152.918 61.667,153.030 61.329,153.092 60.917 C 153.154 60.504,153.264 60.167,153.337 60.167 C 153.409 60.167,153.520 59.792,153.583 59.333 C 153.646 58.875,153.766 58.500,153.849 58.500 C 153.932 58.500,154.000 58.275,154.000 58.000 C 154.000 57.725,154.070 57.500,154.155 57.500 C 154.904 57.500,154.390 54.786,153.624 54.697 C 153.372 54.668,153.167 54.575,153.167 54.489 C 153.167 54.396,150.834 54.333,147.333 54.333 C 143.556 54.333,141.500 54.392,141.500 54.500 C 141.500 54.592,141.367 54.667,141.204 54.667 C 140.766 54.667,140.307 55.293,140.209 56.024 C 140.162 56.378,140.058 56.667,139.978 56.667 C 139.898 56.667,139.833 56.925,139.833 57.240 C 139.833 57.556,139.764 57.857,139.678 57.909 C 139.593 57.962,139.472 58.417,139.409 58.919 C 139.346 59.422,139.239 59.833,139.171 59.833 C 139.102 59.833,139.001 60.216,138.946 60.684 C 138.890 61.152,138.774 61.621,138.688 61.726 C 138.602 61.831,138.479 62.348,138.414 62.875 C 138.348 63.402,138.229 63.833,138.147 63.833 C 138.066 63.833,138.000 64.054,138.000 64.323 C 138.000 64.593,137.928 64.858,137.841 64.912 C 137.754 64.966,137.631 65.458,137.570 66.005 C 137.508 66.552,137.397 67.000,137.324 67.000 C 137.251 67.000,137.139 67.412,137.076 67.917 C 137.013 68.421,136.903 68.833,136.830 68.833 C 136.758 68.833,136.647 69.283,136.583 69.833 C 136.519 70.383,136.400 70.833,136.317 70.833 C 136.234 70.833,136.167 71.096,136.167 71.417 C 136.167 71.737,136.100 72.000,136.019 72.000 C 135.938 72.000,135.820 72.412,135.757 72.917 C 135.694 73.421,135.580 73.833,135.504 73.833 C 135.428 73.833,135.314 74.283,135.250 74.833 C 135.186 75.383,135.072 75.833,134.997 75.833 C 134.922 75.833,134.808 76.321,134.744 76.917 C 134.680 77.512,134.562 78.000,134.481 78.000 C 134.400 78.000,134.333 78.225,134.333 78.500 C 134.333 78.775,134.264 79.000,134.179 79.000 C 134.094 79.000,133.972 79.412,133.909 79.917 C 133.846 80.421,133.735 80.833,133.661 80.833 C 133.587 80.833,133.474 81.321,133.411 81.917 C 133.347 82.512,133.228 83.000,133.147 83.000 C 133.066 83.000,133.000 83.148,133.000 83.328 C 133.000 83.551,132.920 83.626,132.750 83.560 C 132.612 83.508,132.500 83.285,132.500 83.066 C 132.500 82.846,132.430 82.667,132.345 82.667 C 132.260 82.667,132.139 82.254,132.076 81.750 C 132.013 81.246,131.904 80.833,131.833 80.833 C 131.762 80.833,131.654 80.496,131.592 80.083 C 131.530 79.671,131.416 79.333,131.339 79.333 C 131.261 79.333,131.146 78.958,131.083 78.500 C 131.020 78.042,130.901 77.667,130.818 77.667 C 130.735 77.667,130.667 77.479,130.667 77.250 C 130.667 77.021,130.596 76.833,130.510 76.833 C 130.424 76.833,130.303 76.496,130.241 76.083 C 130.179 75.671,130.071 75.333,130.000 75.333 C 129.930 75.333,129.820 74.921,129.757 74.417 C 129.694 73.912,129.582 73.500,129.507 73.500 C 129.432 73.500,129.321 73.162,129.259 72.750 C 129.197 72.337,129.076 72.000,128.990 72.000 C 128.904 72.000,128.833 71.813,128.833 71.583 C 128.833 71.354,128.765 71.167,128.682 71.167 C 128.599 71.167,128.480 70.792,128.417 70.333 C 128.354 69.875,128.244 69.500,128.172 69.500 C 128.101 69.500,127.994 69.128,127.933 68.674 C 127.873 68.219,127.757 67.806,127.676 67.756 C 127.595 67.706,127.478 67.366,127.417 67.000 C 127.355 66.634,127.236 66.293,127.152 66.241 C 127.068 66.189,127.000 65.964,127.000 65.740 C 127.000 65.516,126.930 65.333,126.844 65.333 C 126.757 65.333,126.636 64.996,126.575 64.583 C 126.513 64.171,126.401 63.833,126.326 63.833 C 126.252 63.833,126.139 63.421,126.076 62.917 C 126.013 62.413,125.904 62.000,125.833 62.000 C 125.762 62.000,125.654 61.664,125.593 61.254 C 125.531 60.844,125.410 60.464,125.324 60.411 C 125.237 60.357,125.167 60.168,125.167 59.990 C 125.167 59.812,125.099 59.667,125.016 59.667 C 124.933 59.667,124.813 59.292,124.750 58.833 C 124.687 58.375,124.574 58.000,124.499 58.000 C 124.424 58.000,124.314 57.681,124.255 57.292 C 124.146 56.574,124.094 56.413,123.609 55.292 C 123.399 54.807,123.245 54.667,122.919 54.667 C 122.689 54.667,122.500 54.592,122.500 54.500 C 122.500 54.392,120.444 54.333,116.667 54.333 C 112.889 54.333,110.833 54.392,110.833 54.500 C 110.833 54.592,110.700 54.667,110.537 54.667 C 110.123 54.667,109.657 55.263,109.548 55.934 C 109.498 56.245,109.391 56.500,109.312 56.500 C 109.232 56.500,109.167 56.721,109.167 56.990 C 109.167 57.260,109.096 57.524,109.010 57.577 C 108.923 57.631,108.802 58.010,108.741 58.421 C 108.679 58.831,108.567 59.167,108.491 59.167 C 108.416 59.167,108.303 59.504,108.241 59.917 C 108.179 60.329,108.068 60.667,107.993 60.667 C 107.918 60.667,107.806 61.079,107.743 61.583 C 107.680 62.087,107.562 62.500,107.481 62.500 C 107.400 62.500,107.333 62.688,107.333 62.917 C 107.333 63.146,107.263 63.333,107.177 63.333 C 107.091 63.333,106.970 63.671,106.908 64.083 C 106.846 64.496,106.736 64.833,106.663 64.833 C 106.591 64.833,106.480 65.208,106.417 65.667 C 106.354 66.125,106.243 66.500,106.170 66.500 C 106.098 66.500,105.987 66.912,105.924 67.417 C 105.861 67.921,105.740 68.333,105.655 68.333 C 105.570 68.333,105.500 68.479,105.500 68.657 C 105.500 68.835,105.429 69.024,105.343 69.077 C 105.257 69.131,105.136 69.510,105.074 69.921 C 105.013 70.331,104.901 70.667,104.826 70.667 C 104.752 70.667,104.639 71.079,104.576 71.583 C 104.513 72.087,104.400 72.500,104.324 72.500 C 104.249 72.500,104.136 72.837,104.075 73.250 C 104.013 73.662,103.896 74.000,103.814 74.000 C 103.733 74.000,103.667 74.183,103.667 74.407 C 103.667 74.631,103.598 74.856,103.515 74.908 C 103.431 74.959,103.312 75.301,103.250 75.667 C 103.188 76.032,103.071 76.373,102.990 76.423 C 102.909 76.473,102.794 76.886,102.733 77.340 C 102.673 77.795,102.565 78.167,102.494 78.167 C 102.423 78.167,102.313 78.542,102.250 79.000 C 102.187 79.458,102.067 79.833,101.984 79.833 C 101.901 79.833,101.833 79.979,101.833 80.157 C 101.833 80.335,101.763 80.524,101.676 80.577 C 101.590 80.631,101.469 81.010,101.407 81.421 C 101.346 81.831,101.229 82.167,101.148 82.167 C 101.066 82.167,100.999 82.335,100.998 82.542 C 100.991 83.645,100.581 84.019,100.405 83.081 C 100.345 82.760,100.229 82.455,100.148 82.405 C 100.066 82.355,100.000 82.093,100.000 81.823 C 100.000 81.554,99.932 81.333,99.850 81.333 C 99.767 81.333,99.647 80.883,99.583 80.333 C 99.519 79.783,99.410 79.333,99.340 79.333 C 99.270 79.333,99.167 78.945,99.111 78.471 C 99.055 77.997,98.942 77.565,98.860 77.513 C 98.779 77.460,98.659 76.987,98.594 76.461 C 98.530 75.935,98.407 75.462,98.322 75.409 C 98.236 75.357,98.167 75.093,98.167 74.823 C 98.167 74.554,98.097 74.333,98.012 74.333 C 97.927 74.333,97.806 73.921,97.743 73.417 C 97.680 72.912,97.571 72.500,97.500 72.500 C 97.430 72.500,97.320 72.012,97.256 71.417 C 97.192 70.821,97.080 70.333,97.006 70.333 C 96.932 70.333,96.820 69.921,96.757 69.417 C 96.694 68.912,96.573 68.500,96.488 68.500 C 96.403 68.500,96.333 68.275,96.333 68.000 C 96.333 67.725,96.264 67.500,96.180 67.500 C 96.096 67.500,95.974 67.012,95.911 66.417 C 95.847 65.821,95.737 65.333,95.666 65.333 C 95.596 65.333,95.487 64.921,95.424 64.417 C 95.361 63.913,95.247 63.500,95.171 63.500 C 95.095 63.500,94.981 63.050,94.917 62.500 C 94.853 61.950,94.733 61.500,94.650 61.500 C 94.568 61.500,94.500 61.279,94.500 61.010 C 94.500 60.740,94.434 60.479,94.353 60.429 C 94.272 60.379,94.154 59.924,94.091 59.419 C 94.028 58.913,93.914 58.500,93.838 58.500 C 93.762 58.500,93.647 58.050,93.583 57.500 C 93.519 56.950,93.400 56.500,93.317 56.500 C 93.234 56.500,93.167 56.309,93.167 56.075 C 93.167 55.362,92.712 54.667,92.246 54.667 C 92.019 54.667,91.833 54.592,91.833 54.500 C 91.833 54.392,89.722 54.333,85.833 54.333 C 82.431 54.333,79.833 54.398,79.833 54.482 M166.833 54.500 C 166.833 54.592,166.726 54.667,166.595 54.667 C 165.796 54.667,165.833 53.528,165.833 78.225 C 165.833 101.097,165.836 101.261,166.169 101.546 C 166.764 102.056,177.857 101.976,178.375 101.458 L 178.750 101.083 178.793 78.530 C 178.836 56.332,178.811 55.056,178.326 54.831 C 178.193 54.769,177.916 54.632,177.711 54.526 C 177.226 54.276,166.833 54.251,166.833 54.500 M195.430 54.478 C 195.381 54.558,195.124 54.667,194.859 54.720 C 194.139 54.864,194.167 53.619,194.167 85.872 L 194.167 115.870 194.542 116.265 L 194.917 116.661 200.167 116.662 C 203.054 116.662,205.567 116.622,205.750 116.573 C 206.457 116.382,206.500 115.949,206.500 108.979 C 206.500 103.181,206.533 102.325,206.762 102.095 C 206.989 101.869,207.707 101.833,212.095 101.833 C 215.050 101.833,217.167 101.770,217.167 101.681 C 217.167 101.597,217.748 101.476,218.458 101.412 C 226.913 100.650,234.579 95.086,237.698 87.445 C 237.966 86.788,238.254 86.100,238.337 85.917 C 239.319 83.753,239.885 75.851,239.222 73.583 C 239.114 73.217,238.899 72.429,238.742 71.833 C 238.586 71.237,238.366 70.525,238.254 70.250 C 238.142 69.975,237.950 69.487,237.828 69.167 C 236.512 65.706,233.586 62.022,229.917 59.203 C 228.321 57.977,224.494 56.148,222.500 55.657 C 219.200 54.846,216.996 54.684,209.125 54.675 C 204.159 54.670,201.500 54.609,201.500 54.500 C 201.500 54.291,195.559 54.270,195.430 54.478 M342.417 55.091 C 339.555 55.547,339.004 55.692,336.917 56.535 C 331.515 58.716,326.449 63.868,324.575 69.083 C 324.411 69.542,324.223 69.992,324.157 70.083 C 324.092 70.175,323.988 70.512,323.926 70.833 C 323.864 71.154,323.751 71.567,323.674 71.750 C 322.836 73.739,322.632 80.558,323.325 83.417 C 323.525 84.242,323.766 85.254,323.862 85.667 C 323.957 86.079,324.102 86.488,324.184 86.575 C 324.266 86.662,324.333 86.839,324.333 86.967 C 324.333 87.547,326.516 91.497,327.525 92.744 C 328.400 93.825,329.201 94.688,330.080 95.500 C 330.626 96.004,331.177 96.513,331.304 96.631 C 332.038 97.310,336.453 99.833,336.909 99.833 C 336.977 99.833,337.269 99.938,337.558 100.066 C 338.888 100.654,341.679 101.256,343.875 101.427 C 344.585 101.483,345.167 101.597,345.167 101.681 C 345.167 101.766,346.201 101.833,347.500 101.833 C 348.783 101.833,349.833 101.769,349.833 101.691 C 349.833 101.613,350.484 101.499,351.278 101.438 C 352.073 101.377,352.808 101.257,352.912 101.171 C 353.015 101.085,353.415 100.964,353.800 100.903 C 354.185 100.841,354.500 100.725,354.500 100.645 C 354.500 100.565,354.688 100.500,354.917 100.500 C 355.146 100.500,355.333 100.432,355.333 100.348 C 355.333 100.264,355.633 100.145,356.000 100.083 C 356.367 100.021,356.667 99.908,356.667 99.832 C 356.667 99.756,356.892 99.644,357.167 99.583 C 357.442 99.523,357.667 99.404,357.667 99.320 C 357.667 99.236,357.779 99.167,357.917 99.167 C 358.054 99.167,358.167 99.100,358.167 99.018 C 358.167 98.936,358.354 98.822,358.583 98.765 C 358.813 98.707,359.000 98.587,359.000 98.497 C 359.000 98.407,359.113 98.333,359.252 98.333 C 359.390 98.333,359.632 98.183,359.789 98.000 C 359.946 97.817,360.152 97.667,360.247 97.667 C 360.343 97.667,360.562 97.479,360.734 97.250 C 360.906 97.021,361.134 96.833,361.240 96.833 C 361.404 96.833,361.770 96.507,362.938 95.318 C 363.042 95.213,363.473 94.792,363.897 94.384 C 364.320 93.975,364.667 93.552,364.667 93.443 C 364.667 93.335,364.854 93.105,365.083 92.933 C 365.313 92.761,365.500 92.550,365.500 92.465 C 365.500 92.379,365.594 92.205,365.708 92.077 C 365.823 91.949,366.025 91.717,366.158 91.561 C 366.928 90.654,366.486 88.837,365.431 88.572 C 365.194 88.513,365.000 88.414,365.000 88.353 C 365.000 88.291,364.663 88.093,364.252 87.912 C 363.840 87.731,363.502 87.535,363.502 87.477 C 363.501 87.418,363.238 87.321,362.917 87.261 C 362.596 87.201,362.333 87.086,362.333 87.006 C 362.333 86.925,362.108 86.810,361.833 86.750 C 361.558 86.690,361.333 86.571,361.333 86.487 C 361.333 86.402,361.221 86.333,361.083 86.333 C 360.946 86.333,360.833 86.258,360.833 86.167 C 360.833 86.075,360.740 85.997,360.625 85.994 C 360.510 85.991,360.117 85.844,359.750 85.667 C 359.383 85.490,358.996 85.342,358.889 85.339 C 358.782 85.336,358.663 85.240,358.625 85.125 C 358.395 84.434,355.833 85.311,355.833 86.081 C 355.833 86.238,353.410 88.667,353.254 88.667 C 353.181 88.667,352.948 88.854,352.735 89.083 C 352.523 89.313,352.248 89.500,352.123 89.500 C 351.999 89.500,351.751 89.610,351.574 89.745 C 351.396 89.879,351.119 89.992,350.958 89.995 C 350.798 89.998,350.667 90.070,350.667 90.156 C 350.667 90.243,350.310 90.365,349.875 90.430 C 349.440 90.494,349.038 90.616,348.982 90.702 C 348.848 90.910,343.990 90.918,343.855 90.711 C 343.797 90.623,343.395 90.504,342.962 90.446 C 342.529 90.388,342.041 90.272,341.879 90.189 C 341.716 90.105,341.284 89.897,340.919 89.727 C 340.554 89.556,340.155 89.323,340.032 89.208 C 339.910 89.094,339.702 89.000,339.571 89.000 C 339.440 89.000,339.333 88.930,339.333 88.845 C 339.333 88.759,339.185 88.642,339.004 88.584 C 338.634 88.467,337.000 86.883,337.000 86.642 C 337.000 86.475,336.807 86.211,336.201 85.553 C 335.991 85.324,335.775 84.919,335.722 84.652 C 335.669 84.385,335.564 84.167,335.489 84.167 C 335.415 84.167,335.303 83.829,335.241 83.417 C 335.179 83.004,335.062 82.667,334.981 82.667 C 334.900 82.667,334.833 82.329,334.833 81.917 L 334.833 81.167 350.958 81.161 C 365.109 81.157,367.124 81.125,367.417 80.903 C 367.799 80.613,367.930 72.939,367.557 72.696 C 367.461 72.634,367.331 72.058,367.267 71.417 C 367.203 70.775,367.079 70.225,366.992 70.194 C 366.905 70.164,366.833 69.958,366.833 69.736 C 366.833 69.515,366.768 69.333,366.688 69.333 C 366.608 69.333,366.493 68.958,366.432 68.500 C 366.372 68.042,366.258 67.667,366.179 67.667 C 366.101 67.667,365.988 67.404,365.928 67.083 C 365.867 66.762,365.755 66.500,365.678 66.500 C 365.600 66.500,365.488 66.237,365.428 65.917 C 365.367 65.596,365.247 65.333,365.159 65.333 C 365.072 65.333,365.000 65.221,365.000 65.083 C 365.000 64.946,364.931 64.833,364.847 64.833 C 364.762 64.833,364.644 64.608,364.583 64.333 C 364.523 64.058,364.410 63.833,364.331 63.833 C 364.253 63.833,364.138 63.672,364.075 63.474 C 364.012 63.276,363.782 62.949,363.564 62.747 C 363.345 62.544,363.167 62.325,363.167 62.259 C 363.167 62.032,359.968 58.833,359.741 58.833 C 359.675 58.833,359.456 58.655,359.253 58.436 C 359.051 58.218,358.724 57.988,358.526 57.925 C 358.328 57.862,358.167 57.747,358.167 57.669 C 358.167 57.590,357.942 57.477,357.667 57.417 C 357.392 57.356,357.167 57.238,357.167 57.153 C 357.167 57.069,357.054 57.000,356.917 57.000 C 356.779 57.000,356.667 56.928,356.667 56.841 C 356.667 56.753,356.404 56.633,356.083 56.572 C 355.762 56.512,355.500 56.396,355.500 56.315 C 355.500 56.233,355.369 56.166,355.208 56.166 C 355.048 56.165,354.695 56.049,354.424 55.908 C 354.153 55.766,353.609 55.607,353.216 55.553 C 352.822 55.499,352.500 55.390,352.500 55.311 C 352.500 55.231,352.244 55.167,351.931 55.167 C 351.617 55.167,351.333 55.081,351.298 54.976 C 351.162 54.570,345.201 54.647,342.417 55.091 " stroke="none" fill="#140cfc" fill-rule="evenodd"></path><path id="path2" d="M201.500 54.500 C 201.500 54.609,204.126 54.667,209.042 54.668 C 215.717 54.669,216.839 54.707,218.807 55.001 C 220.030 55.184,221.155 55.326,221.307 55.317 C 221.782 55.288,220.791 55.034,220.135 55.017 C 219.796 55.007,219.473 54.925,219.417 54.833 C 219.360 54.742,218.793 54.667,218.157 54.667 C 217.497 54.667,217.000 54.595,217.000 54.500 C 217.000 54.391,214.306 54.333,209.250 54.333 C 204.194 54.333,201.500 54.391,201.500 54.500 M344.833 54.500 C 344.833 54.596,344.309 54.667,343.593 54.667 C 342.911 54.667,342.307 54.742,342.250 54.833 C 342.193 54.925,341.870 55.005,341.532 55.012 C 341.193 55.018,340.767 55.088,340.583 55.167 C 340.048 55.397,340.561 55.360,343.083 54.985 C 344.367 54.794,345.829 54.673,346.333 54.716 C 346.837 54.759,347.081 54.760,346.875 54.719 C 346.669 54.677,346.500 54.574,346.500 54.488 C 346.500 54.403,346.125 54.333,345.667 54.333 C 345.208 54.333,344.833 54.408,344.833 54.500 M221.833 55.475 C 221.971 55.557,222.383 55.673,222.750 55.732 C 223.169 55.800,223.324 55.785,223.167 55.691 C 223.029 55.610,222.617 55.494,222.250 55.435 C 221.831 55.367,221.676 55.382,221.833 55.475 M339.200 55.498 C 338.897 55.569,338.604 55.674,338.547 55.731 C 338.370 55.908,339.058 55.818,339.667 55.583 C 340.306 55.337,340.065 55.293,339.200 55.498 M223.500 55.894 C 223.500 55.927,223.856 56.088,224.292 56.250 C 226.099 56.925,228.792 58.339,229.917 59.203 C 233.691 62.102,236.610 65.829,237.918 69.417 C 238.248 70.322,238.617 70.871,238.422 70.167 C 237.624 67.279,234.035 62.238,231.083 59.860 C 229.536 58.613,225.626 56.333,225.036 56.333 C 224.945 56.333,224.657 56.221,224.394 56.084 C 223.947 55.851,223.500 55.756,223.500 55.894 M337.164 56.220 C 332.487 58.068,328.309 61.733,325.731 66.250 C 324.961 67.599,323.934 69.990,324.068 70.123 C 324.118 70.173,324.210 70.072,324.272 69.899 C 326.329 64.189,330.324 59.731,335.769 57.071 C 336.787 56.574,337.739 56.167,337.884 56.167 C 338.029 56.167,338.193 56.092,338.250 56.000 C 338.393 55.768,338.219 55.803,337.164 56.220 M323.675 70.958 C 323.460 71.735,323.452 71.952,323.646 71.742 C 323.811 71.563,324.061 70.333,323.932 70.333 C 323.886 70.333,323.771 70.615,323.675 70.958 M238.559 71.000 C 238.662 71.652,239.027 73.049,239.190 73.417 C 239.385 73.854,239.215 72.640,238.968 71.833 C 238.684 70.904,238.478 70.483,238.559 71.000 M323.277 72.417 C 322.696 75.153,322.478 79.369,322.808 81.500 C 322.871 81.912,322.925 80.600,322.926 78.583 C 322.928 75.637,322.987 74.664,323.230 73.630 C 323.396 72.923,323.498 72.248,323.457 72.130 C 323.417 72.013,323.336 72.142,323.277 72.417 M239.417 78.264 C 239.417 80.929,239.470 82.313,239.559 81.968 C 239.745 81.245,239.747 75.049,239.561 74.463 C 239.472 74.182,239.417 75.635,239.417 78.264 M323.103 83.083 C 323.201 83.982,323.757 86.150,323.932 86.315 C 324.053 86.430,323.886 85.504,323.649 84.750 C 323.563 84.475,323.384 83.800,323.252 83.250 L 323.012 82.250 323.103 83.083 M238.856 84.107 C 238.655 84.899,238.524 85.579,238.564 85.619 C 238.648 85.703,239.160 84.001,239.289 83.208 C 239.456 82.180,239.219 82.671,238.856 84.107 M238.231 86.101 C 235.300 94.518,227.443 100.603,218.458 101.412 C 216.975 101.546,216.719 101.833,218.083 101.833 C 218.588 101.833,219.000 101.768,219.000 101.688 C 219.000 101.608,219.356 101.501,219.792 101.449 C 226.740 100.633,233.792 95.606,237.138 89.083 C 237.931 87.537,238.550 85.994,238.427 85.871 C 238.380 85.824,238.292 85.928,238.231 86.101 M324.082 86.854 C 325.133 90.400,329.046 95.416,332.575 97.739 C 334.497 99.006,338.083 100.705,337.772 100.203 C 337.716 100.112,337.463 99.986,337.210 99.924 C 336.191 99.673,332.165 97.428,331.304 96.631 C 331.177 96.513,330.626 96.004,330.080 95.500 C 329.201 94.688,328.400 93.825,327.525 92.744 C 326.494 91.470,324.333 87.543,324.333 86.944 C 324.333 86.802,324.250 86.635,324.149 86.572 C 324.023 86.494,324.001 86.584,324.082 86.854 M338.000 100.405 C 338.000 100.598,341.875 101.500,342.708 101.500 C 342.960 101.500,343.167 101.575,343.167 101.667 C 343.167 101.759,343.611 101.833,344.167 101.833 C 345.605 101.833,345.399 101.547,343.875 101.427 C 342.381 101.311,340.069 100.898,339.036 100.564 C 338.300 100.326,338.000 100.280,338.000 100.405 " stroke="none" fill="#1e6cd0" fill-rule="evenodd"></path></g></svg>