<svg width="375" height="282" viewBox="0 0 375 282" fill="none" xmlns="http://www.w3.org/2000/svg">
<path fill-rule="evenodd" clip-rule="evenodd" d="M42.431 97.9926C46.7893 97.9926 50.6523 99.3818 53.1051 101.524C56.6439 100.035 60.8226 99.1602 65.317 99.1602C66.374 99.1602 67.402 99.2238 68.4155 99.3163C67.9088 98.1834 67.625 96.9849 67.625 95.7422C67.625 88.8406 76.0345 83.2453 86.4133 83.2453C91.0322 83.2453 95.2572 84.359 98.5295 86.199C103.421 80.7714 112.317 77.1279 122.516 77.1279C137.968 77.1279 150.493 85.4611 150.493 95.7422C150.493 105.769 138.571 113.921 123.648 114.32C123.648 114.343 123.654 114.366 123.654 114.391C123.654 122.801 113.406 129.622 100.765 129.622C93.6182 129.622 87.2415 127.441 83.0396 124.027C78.8435 127.441 72.4668 129.622 65.317 129.622C53.4237 129.622 43.6531 123.58 42.541 115.857C42.5005 115.857 42.4658 115.861 42.431 115.861C35.0118 115.861 29 111.863 29 106.927C29 101.994 35.0118 97.9926 42.431 97.9926" fill="#5E76FA" fill-opacity="0.1"/>
<path fill-rule="evenodd" clip-rule="evenodd" d="M283.385 48.006C285.862 48.2634 287.933 49.1548 289.132 50.3222C291.277 49.8202 293.732 49.6496 296.287 49.915C296.887 49.9774 297.464 50.0683 298.032 50.1722C297.848 49.6017 297.796 49.013 297.908 48.4198C298.534 45.1256 303.821 42.9515 309.718 43.5642C312.343 43.837 314.643 44.618 316.335 45.6895C319.607 43.3877 324.993 42.174 330.791 42.7764C339.571 43.6887 345.932 48.4058 345 53.313C344.09 58.0989 336.577 61.286 328.06 60.5952C328.058 60.6063 328.059 60.6177 328.057 60.6287C327.294 64.6439 320.851 67.2942 313.666 66.5476C309.606 66.1258 306.179 64.708 304.102 62.8305C301.406 64.2121 297.584 64.8766 293.523 64.4546C286.762 63.7521 281.758 60.2911 281.827 56.5395C281.805 56.5373 281.785 56.5371 281.764 56.5349C277.548 56.0967 274.494 53.8335 274.942 51.4773C275.389 49.1221 279.169 47.5679 283.385 48.006Z" fill="#5E76FA" fill-opacity="0.1"/>
<path fill-rule="evenodd" clip-rule="evenodd" d="M259.96 14.6719C259.96 11.0733 255.5 8.15408 250.002 8.15408C248.028 8.15408 246.193 8.53524 244.645 9.18357C241.758 7.69576 238.124 6.801 234.163 6.801C233.372 6.801 232.601 6.84937 231.839 6.91616C231.841 6.87816 231.848 6.839 231.848 6.801C231.848 3.20124 227.39 0.283203 221.891 0.283203C218.055 0.283203 214.73 1.70422 213.068 3.78623C209.613 2.10151 205.345 1.09275 200.705 1.09275C189.247 1.09275 179.96 7.17295 179.96 14.6719C179.96 22.172 189.247 28.2522 200.705 28.2522C208.137 28.2522 226.905 29.0214 234.163 29.0214C241.801 29.0214 248.257 25.7199 250.389 21.177C255.708 21.0434 259.96 18.1864 259.96 14.6719" fill="#5E76FA" fill-opacity="0.1"/>
<path fill-rule="evenodd" clip-rule="evenodd" d="M187.388 201.732C180.278 201.748 173.167 201.877 166.07 202.472C163.394 202.697 160.774 203.191 158.091 203.39C152.734 203.788 147.472 204.529 142.095 204.872C137.765 205.147 133.418 205.31 129.101 205.66C125.053 205.988 120.572 205.912 116.556 205.37C113.582 204.969 110.595 204.744 107.672 204.099C104.401 203.379 100.849 202.864 97.4413 202.882C92.5823 202.909 87.8505 202.912 83.2004 204.184C81.5681 204.631 79.5701 205.365 78.3304 206.302C75.4931 208.448 75.1089 213.801 77.9421 216.026C82.7142 219.771 92.8989 221.241 99.5878 221.31C106.917 221.386 114.038 220.976 121.378 220.735C128.199 220.511 135.003 220.192 141.835 220.203C155.789 220.226 169.744 220.203 183.673 219.5C196.759 218.84 209.878 219.066 222.993 219.066C236.442 219.066 249.8 219.146 263.152 220.494C268.97 221.081 274.896 221.287 280.743 221.698C285.979 222.067 291.011 221.691 296.226 221.35C300.606 221.064 304.957 220.216 308.935 218.782C312.085 217.648 317.699 214.122 318.665 211.413C321.372 203.818 280.507 204.001 274.232 204.018C267.213 204.037 260.138 204.211 253.125 204.009C250.175 203.924 247.267 203.49 244.388 203.013C241.52 202.539 238.63 202.659 235.722 202.46C223.593 201.628 211.438 201.75 199.27 201.75C195.311 201.75 191.349 201.723 187.388 201.732" fill="#5E76FA" fill-opacity="0.1"/>
<path fill-rule="evenodd" clip-rule="evenodd" d="M93.0309 214.917L95.7609 217.446L100.602 220.777L100.501 218.651L98.2893 215.721L93.4489 212.389L93.0309 214.917Z" fill="#33435A"/>
<path fill-rule="evenodd" clip-rule="evenodd" d="M97.1892 141.239L96.0149 148.504L100.777 181.525L93.0309 213.831L97.7032 215.534L115.301 177.587L116.824 165.772L116.151 141.086L97.1892 141.239Z" fill="#002D51"/>
<path fill-rule="evenodd" clip-rule="evenodd" d="M130.038 141.246L133.047 171.934L130.453 212.02L125.841 212.389L119.788 176.077L110.335 140.038L130.038 141.246Z" fill="#002D51"/>
<path fill-rule="evenodd" clip-rule="evenodd" d="M128.593 214.398L130.795 216.585L133.047 213.746L130.388 211.342L125.476 211.777L128.593 214.398Z" fill="#33435A"/>
<path fill-rule="evenodd" clip-rule="evenodd" d="M108.161 104.217C106.81 104.711 105.459 105.205 104.108 105.7C103.584 104.706 103.143 103.671 102.789 102.609C101.529 102.758 100.008 102.805 99.2651 101.807C99.0311 101.493 98.9132 101.114 98.7992 100.742C98.3288 99.2063 97.8581 97.6707 97.3874 96.1351C97.2247 95.6038 97.06 95.0558 97.1202 94.5047C97.2265 93.538 97.997 92.7674 98.8069 92.1933C100.873 90.7283 103.579 90.0208 106.066 90.6144C106.727 90.7725 107.384 91.0291 107.874 91.4875C108.63 92.1944 108.877 93.2559 109.089 94.253C109.285 95.1735 109.48 96.094 109.676 97.0142C109.901 98.0731 110.079 99.3139 109.327 100.112C108.927 100.536 108.315 100.762 108.009 101.252C107.467 102.118 108.155 103.205 108.161 104.217" fill="#F6C5B0"/>
<path fill-rule="evenodd" clip-rule="evenodd" d="M113.999 83.8508C114.041 83.3907 114.106 82.9351 114.21 82.4871C114.436 81.5164 114.847 80.5798 114.921 79.5875C114.994 78.595 114.626 77.4741 113.705 77.035C113.11 76.7514 112.407 76.8045 111.754 76.9153C109.603 77.2807 107.558 78.2167 105.901 79.5944C104.322 80.9067 103.082 82.4202 100.928 82.6346C98.9032 82.8361 97.7979 83.68 96.3277 85.1544C94.737 86.7495 92.2232 88.1516 90.9559 89.9343C90.4268 90.6786 90.1588 91.5735 90.0515 92.4717C89.6815 95.5822 91.3324 98.8342 94.1019 100.448C94.7231 100.811 95.3899 101.094 96.067 101.346C97.4679 101.866 99.1632 102.526 100.599 102.28C100.073 101.178 97.2994 98.2409 97.7058 96.9364C98.3507 94.8666 101.694 93.8767 103.568 93.4108C105.612 92.9028 107.91 93.3812 109.883 92.7722C111.303 92.3342 112.667 90.8987 113.452 89.699C114.419 88.2182 113.848 85.529 113.999 83.8508" fill="#33435A"/>
<path fill-rule="evenodd" clip-rule="evenodd" d="M91.2888 157.754C91.5652 160.569 92.1141 164.343 93.2443 164.355C93.4558 164.357 93.6436 164.235 93.8142 164.118C95.6162 162.88 96.8049 161.292 98.5835 160.093C100.448 158.836 102.657 158.029 104.842 157.392C108.107 156.423 111.473 155.669 114.866 155.225C118.549 154.744 125.82 154.631 125.82 154.631C127.854 154.057 129.753 153.14 131.662 152.272C134.943 150.781 138.313 149.413 141.33 147.503C142.298 146.891 144.957 145.103 143.783 143.892C142.894 142.975 140.207 142.598 138.957 142.115C134.886 140.54 131.244 138.212 128.626 134.744C125.041 129.994 122.46 123.79 120.49 118.241C120.125 117.213 119.789 116.176 119.465 115.136C119.281 114.545 119.006 112.263 118.505 111.936C113.426 108.619 111.661 105.406 106.175 106.879C93.6569 110.24 94.6274 110.685 92.5149 117.062C91.6654 119.626 90.9055 126.337 90.7847 129.003C90.6386 132.232 90.5269 140.87 90.5308 144.1C90.5355 147.706 90.6757 151.311 91.0468 154.897C91.088 155.295 91.1579 156.417 91.2888 157.754" fill="#FFC71B"/>
<path fill-rule="evenodd" clip-rule="evenodd" d="M113.782 99.7061L120.732 108.082L98.9679 116.944L96.1825 112.783L113.782 99.7061Z" fill="#FDC51C"/>
<path fill-rule="evenodd" clip-rule="evenodd" d="M100.583 104.188L106.022 104.729L115.321 109.103L124.103 143.835L109.17 144.895L105.863 114.537L97.199 111.666L94.5972 109.737L100.583 104.188Z" fill="#FDC51C"/>
<mask id="mask0" mask-type="alpha" maskUnits="userSpaceOnUse" x="114" y="38" width="151" height="104">
<path fill-rule="evenodd" clip-rule="evenodd" d="M114.972 38.3281H264.903V141.618H114.972V38.3281Z" fill="white"/>
</mask>
<g mask="url(#mask0)">
<path fill-rule="evenodd" clip-rule="evenodd" d="M255.434 65.8893C244.578 54.4713 227.327 51.8441 213.97 59.1039C213.945 59.1174 213.919 59.1252 213.894 59.1358C209.892 61.7988 206.997 65.8485 206.65 71.2682C206.573 72.4591 204.754 72.3755 204.831 71.1761C205.204 65.3672 208.151 60.9659 212.303 58.0006C203.252 42.7855 185.051 34.72 168.486 39.8928C152.184 44.9833 141.867 61.0876 142.734 78.5019C144.213 78.522 145.699 78.6801 147.181 78.9982C153.07 80.2634 158.216 83.5969 162.388 88.047C163.213 88.927 161.912 90.1917 161.09 89.3145C159.717 87.8504 158.211 86.5148 156.589 85.3512C150.566 81.0323 143.06 79.361 136.055 81.3162C128.979 83.2915 122.229 89.0065 118.729 95.5063C114.719 102.955 113.784 111.996 116.58 120.245C119.324 128.341 125.379 135.086 133.058 138.565C140.18 141.792 147.666 142.283 155.148 140.869C160.054 139.942 164.936 138.895 169.815 137.844C183.761 134.842 197.676 131.701 211.585 128.541C217.695 127.153 223.804 125.759 229.912 124.358C234.929 123.208 240.309 122.407 245.011 120.289C260.385 113.361 268.881 95.2758 263.06 78.4316C261.446 73.7602 258.827 69.4576 255.434 65.8893" fill="#5D76F8"/>
</g>
<path fill-rule="evenodd" clip-rule="evenodd" d="M263.06 78.6403C262.961 78.3542 262.859 78.0694 262.752 77.7861C264.327 86.2813 262.09 94.92 255.045 100.643C247.808 106.523 239.757 111.783 231.076 114.856C208.287 122.922 183.469 129.133 159.929 134.874C152.416 136.712 145.253 137.922 135.968 139.502C135.892 139.514 135.856 139.609 135.8 139.667C141.17 141.523 146.776 142.033 152.456 141.502C153.353 141.389 154.251 141.248 155.148 141.078C160.054 140.151 164.936 139.103 169.815 138.053C183.503 135.107 197.16 132.026 210.812 128.926C212.523 128.532 214.235 128.139 215.947 127.744C222.27 126.287 228.59 124.823 234.91 123.354C236.757 122.925 238.65 122.535 240.542 122.116C242.075 121.668 243.575 121.145 245.01 120.498C260.385 113.571 268.881 95.4849 263.06 78.6403" fill="#4A5EC9"/>
<path fill-rule="evenodd" clip-rule="evenodd" d="M305.879 213.538L306.113 215.799L301.871 218.615L299.399 216.63L301.403 214.092L305.645 211.277L305.879 213.538Z" fill="#33435A"/>
<path fill-rule="evenodd" clip-rule="evenodd" d="M305.843 144.414L306.554 151.281L300.173 174.866L306.038 212.782L301.691 214.228L290.271 177.206L288.464 166.437L288.553 143.644L305.843 144.414Z" fill="#002D51"/>
<path fill-rule="evenodd" clip-rule="evenodd" d="M272.416 152.036L281.491 215.567L285.646 215.571L286.435 174.854L294.025 146.281L272.416 152.036Z" fill="#002D51"/>
<path fill-rule="evenodd" clip-rule="evenodd" d="M285.622 216.23L285.62 217.353L284.088 219.63L278.881 217.346L281.13 215.066L285.622 215.071V216.23Z" fill="#33435A"/>
<path fill-rule="evenodd" clip-rule="evenodd" d="M282.808 105.585C285.944 103.075 293.497 104.527 297.471 104.531C298.291 112.981 299.881 121.421 301.829 129.688C303.512 136.831 306.728 143.796 308.155 150.929C309.428 157.291 312.211 161.866 317.449 166.228C318.265 166.908 319.205 167.79 318.961 168.806C318.813 169.418 318.264 169.852 317.728 170.208C312.439 173.715 305.645 174.074 299.237 174.173C294.371 174.248 289.504 174.24 284.639 174.151C278.3 174.034 271.248 173.304 265.847 169.746C265.506 169.522 265.142 169.232 265.116 168.833C265.095 168.491 265.331 168.192 265.539 167.914C269.319 162.864 268.891 154.504 269.633 148.587C270.47 141.91 271.311 135.213 272.963 128.679C274.034 124.441 275.447 120.284 277.18 116.257C278.499 113.191 280.075 108.169 282.551 105.81C282.633 105.732 282.719 105.657 282.808 105.585" fill="#9AAAED"/>
<path fill-rule="evenodd" clip-rule="evenodd" d="M279.266 78.0728C277.468 75.1419 274.821 72.8756 271.61 71.5191C269.437 70.6014 267.173 70.3758 264.984 70.1574L258.614 69.5225C255.653 69.2277 252.993 69.5116 250.48 70.3908C247.275 71.5119 244.35 73.8167 242.452 76.7146C241.076 78.8148 240.24 81.1871 239.967 83.7649L236.504 116.387L241.565 116.891L245.045 84.1076C245.181 82.8266 245.42 81.966 245.991 80.6974C246.434 79.7132 247.409 78.3334 248.211 77.5564C249.28 76.5211 250.244 75.8744 251.65 75.2504C252.931 74.6816 254.173 74.3962 255.803 74.2958C255.871 74.2915 256.091 74.2837 256.64 74.3035C256.869 74.3119 257.114 74.3297 257.413 74.3595L266.331 75.2481C267.68 75.3825 268.577 75.6147 269.887 76.1678C270.903 76.5969 272.326 77.5418 273.128 78.3191C274.197 79.355 274.864 80.2892 275.508 81.6512C276.095 82.8923 276.39 84.0955 276.493 85.675C276.498 85.7419 276.506 85.9546 276.485 86.4859C276.477 86.7075 276.458 86.9431 276.429 87.227L272.948 120.019L278.009 120.523L281.489 87.7396C281.847 84.3699 281.078 81.0272 279.266 78.0728" fill="#FDC51C"/>
<path fill-rule="evenodd" clip-rule="evenodd" d="M257.214 129.092L256.305 137.657C256.237 138.293 255.417 138.732 254.473 138.638L254.439 138.635C253.495 138.541 252.785 137.949 252.852 137.313L253.761 128.748C250.918 127.716 249.035 124.927 249.36 121.863C249.747 118.222 253.106 115.574 256.864 115.948C260.623 116.323 263.355 119.578 262.969 123.22C262.644 126.283 260.214 128.643 257.214 129.092V129.092ZM232.02 103.551L228.245 139.12C227.734 143.931 231.345 148.232 236.31 148.727L270.104 152.095C275.068 152.59 279.508 149.091 280.018 144.28L283.794 108.711L232.02 103.551Z" fill="#FDC51C"/>
<path fill-rule="evenodd" clip-rule="evenodd" d="M234.808 148.373V148.373C235.292 148.503 235.793 148.598 236.31 148.65L270.103 152.018C275.069 152.512 279.508 149.014 280.018 144.203L281.734 128.042C276.059 153.186 234.995 148.368 234.808 148.373" fill="#ECB817"/>
<path fill-rule="evenodd" clip-rule="evenodd" d="M134.901 104.149L136.308 100.517L138.263 99.098L138.914 99.5722L138.262 100.992L141.032 98.7852L142.334 100.049L140.701 104.15L137.294 106.287L134.901 104.149Z" fill="#F6C5B0"/>
<path fill-rule="evenodd" clip-rule="evenodd" d="M95.3258 111.12L122.423 117.206L133.961 103.256L138.678 107.419L126.78 125.84L94.883 124.635L92.5297 117.356L95.3258 111.12Z" fill="#FFC71B"/>
<path fill-rule="evenodd" clip-rule="evenodd" d="M298.982 107.417L279.44 120.443L267.43 113.154L264.851 116.895L279.002 128.968L298.54 119.629L298.982 107.417Z" fill="#9AAAED"/>
<path fill-rule="evenodd" clip-rule="evenodd" d="M292.091 95.004C289.537 95.3616 287.499 96.3823 286.912 98.8171C285.718 97.4362 285.268 95.4822 285.744 93.7405C286.219 91.9988 287.607 90.516 289.35 89.8877C290.78 90.8599 291.789 92.396 292.092 94.0634L292.091 95.004Z" fill="#33435A"/>
<path fill-rule="evenodd" clip-rule="evenodd" d="M289.325 106.333C287.446 105.474 286.254 103.547 285.912 101.561C285.571 99.5764 285.978 97.5365 286.613 95.6205C288.726 89.2442 297.001 91.3854 298.739 96.9638C300.254 101.826 294.787 108.829 289.325 106.333" fill="#F6C5B0"/>
<path fill-rule="evenodd" clip-rule="evenodd" d="M291.58 150.903C290.386 150.022 290.526 148.291 290.219 146.867C289.911 145.444 288.061 144.026 287.083 145.13C285.008 144.301 283.919 141.971 283.928 139.796C283.937 137.621 284.823 135.551 285.693 133.546C287.624 129.104 289.43 124.587 291.493 120.202C293.443 116.056 294.219 111.493 295.008 107.078C295.403 104.866 294.863 102.575 293.905 100.531C292.947 98.4863 291.587 96.6479 290.25 94.8141C289.694 94.0514 289.122 93.2383 289.041 92.3077C288.952 91.2787 289.502 90.2695 290.285 89.5692C291.49 88.4908 292.814 88.0413 294.405 88.1955C299.99 88.7368 303.768 92.4326 304.672 97.8919C305.437 102.508 304.2 107.18 303.308 111.775C301.967 118.683 302.409 126.909 305.887 133.154C307.305 135.699 308.88 138.271 309.221 141.144C309.562 144.017 308.263 147.316 305.463 148.316C304.369 148.707 303.127 148.727 302.14 149.33C301.105 149.964 300.869 151.237 301.616 152.137C300.137 154.042 298.975 152.385 297.488 151.808C295.675 151.104 293.108 152.031 291.58 150.903" fill="#33435A"/>
<path fill-rule="evenodd" clip-rule="evenodd" d="M266.851 113.992L265.929 111.696L261.638 110.86L260.993 112.523L263.994 115.021L265.776 115.551L266.851 113.992Z" fill="#F6C5B0"/>
</svg>
