<svg width="375" height="423" viewBox="0 0 375 423" fill="none" xmlns="http://www.w3.org/2000/svg">
<path fill-rule="evenodd" clip-rule="evenodd" d="M42.4309 132.22C46.7892 132.22 50.6522 134.099 53.105 136.997C56.6438 134.983 60.8225 133.799 65.3169 133.799C66.3738 133.799 67.4019 133.885 68.4154 134.01C67.9086 132.478 67.6248 130.857 67.6248 129.176C67.6248 119.842 76.0344 112.274 86.4132 112.274C91.0321 112.274 95.2571 113.78 98.5294 116.269C103.421 108.928 112.317 104 122.516 104C137.968 104 150.493 115.271 150.493 129.176C150.493 142.738 138.57 153.764 123.648 154.303C123.648 154.335 123.654 154.366 123.654 154.4C123.654 165.775 113.405 175 100.765 175C93.6181 175 87.2414 172.05 83.0395 167.432C78.8434 172.05 72.4667 175 65.3169 175C53.4236 175 43.6529 166.828 42.5409 156.383C42.5004 156.383 42.4657 156.388 42.4309 156.388C35.0117 156.388 28.9999 150.981 28.9999 144.304C28.9999 137.633 35.0117 132.22 42.4309 132.22Z" fill="#5E76FA" fill-opacity="0.1"/>
<path fill-rule="evenodd" clip-rule="evenodd" d="M283.385 64.6127C285.862 64.9608 287.933 66.1664 289.132 67.7455C291.277 67.0664 293.732 66.8356 296.286 67.1946C296.887 67.279 297.464 67.4019 298.031 67.5426C297.848 66.7709 297.795 65.9746 297.908 65.1723C298.534 60.7168 303.821 57.7763 309.718 58.605C312.342 58.9739 314.642 60.0303 316.335 61.4796C319.607 58.3663 324.993 56.7247 330.791 57.5395C339.571 58.7734 345.932 65.1534 344.999 71.7906C344.09 78.2636 336.576 82.5744 328.06 81.64C328.058 81.6549 328.059 81.6703 328.057 81.6853C327.294 87.1159 320.851 90.7006 313.666 89.6908C309.606 89.1203 306.178 87.2027 304.102 84.6632C301.406 86.532 297.584 87.4307 293.523 86.8599C286.762 85.9098 281.758 81.2287 281.827 76.1545C281.805 76.1515 281.785 76.1512 281.764 76.1482C277.547 75.5557 274.494 72.4945 274.942 69.3078C275.389 66.1222 279.169 64.0202 283.385 64.6127Z" fill="#5E76FA" fill-opacity="0.1"/>
<path fill-rule="evenodd" clip-rule="evenodd" d="M259.96 19.5266C259.96 14.6593 255.5 10.711 250.002 10.711C248.028 10.711 246.194 11.2266 244.645 12.1035C241.758 10.0912 238.124 8.88097 234.164 8.88097C233.372 8.88097 232.601 8.94638 231.84 9.03672C231.841 8.98532 231.848 8.93236 231.848 8.88097C231.848 4.01217 227.39 0.0654297 221.891 0.0654297C218.056 0.0654297 214.73 1.9874 213.068 4.80339C209.613 2.52475 205.345 1.16036 200.705 1.16036C189.247 1.16036 179.96 9.38404 179.96 19.5266C179.96 29.6707 189.247 37.8944 200.705 37.8944C208.137 37.8944 226.905 38.9348 234.164 38.9348C241.801 38.9348 248.257 34.4694 250.389 28.325C255.708 28.1443 259.96 24.2801 259.96 19.5266Z" fill="#5E76FA" fill-opacity="0.1"/>
<path fill-rule="evenodd" clip-rule="evenodd" d="M177.388 229.003C170.278 229.024 163.167 229.199 156.07 230.004C153.394 230.307 150.774 230.975 148.091 231.244C142.734 231.782 137.472 232.786 132.095 233.249C127.765 233.622 123.418 233.842 119.101 234.315C115.053 234.758 110.572 234.656 106.556 233.923C103.582 233.381 100.595 233.075 97.6717 232.204C94.4014 231.23 90.8487 230.533 87.4413 230.558C82.5823 230.594 77.8505 230.598 73.2004 232.319C71.5681 232.923 69.5701 233.916 68.3304 235.183C65.4931 238.085 65.1089 245.326 67.9421 248.336C72.7142 253.401 82.8989 255.389 89.5878 255.482C96.9173 255.585 104.038 255.03 111.378 254.704C118.199 254.401 125.003 253.969 131.835 253.985C145.789 254.016 159.744 253.985 173.673 253.034C186.759 252.141 199.878 252.447 212.993 252.447C226.442 252.447 239.8 252.555 253.152 254.378C258.97 255.172 264.896 255.45 270.743 256.007C275.979 256.505 281.011 255.997 286.226 255.536C290.606 255.15 294.957 254.003 298.935 252.063C302.085 250.528 307.699 245.76 308.665 242.096C311.372 231.824 270.507 232.071 264.232 232.094C257.213 232.12 250.138 232.355 243.125 232.082C240.175 231.967 237.267 231.379 234.388 230.735C231.52 230.093 228.63 230.256 225.722 229.986C213.593 228.862 201.438 229.026 189.27 229.026C185.311 229.026 181.349 228.99 177.388 229.003Z" fill="#5E76FA" fill-opacity="0.1"/>
<path d="M67.8346 346.216C66.5706 346.216 65.3946 346.072 64.3066 345.784C63.2186 345.48 62.3306 345.056 61.6426 344.512C61.4026 344.336 61.2266 344.152 61.1146 343.96C61.0186 343.752 60.9706 343.496 60.9706 343.192C60.9706 342.792 61.0906 342.44 61.3306 342.136C61.5866 341.832 61.8746 341.68 62.1946 341.68C62.3706 341.68 62.5386 341.712 62.6986 341.776C62.8746 341.824 63.0826 341.92 63.3226 342.064C64.0106 342.496 64.7066 342.816 65.4106 343.024C66.1146 343.216 66.8906 343.312 67.7386 343.312C68.7946 343.312 69.6026 343.136 70.1626 342.784C70.7226 342.432 71.0026 341.928 71.0026 341.272C71.0026 340.776 70.7386 340.376 70.2106 340.072C69.6986 339.768 68.7786 339.48 67.4506 339.208C65.9626 338.904 64.7706 338.536 63.8746 338.104C62.9946 337.672 62.3466 337.136 61.9306 336.496C61.5306 335.856 61.3306 335.08 61.3306 334.168C61.3306 333.16 61.6186 332.256 62.1946 331.456C62.7866 330.64 63.5946 330.008 64.6186 329.56C65.6586 329.096 66.8266 328.864 68.1226 328.864C70.3946 328.864 72.2666 329.432 73.7386 330.568C73.9786 330.76 74.1466 330.96 74.2426 331.168C74.3546 331.36 74.4106 331.6 74.4106 331.888C74.4106 332.288 74.2826 332.64 74.0266 332.944C73.7866 333.248 73.5066 333.4 73.1866 333.4C73.0106 333.4 72.8426 333.376 72.6826 333.328C72.5386 333.28 72.3306 333.176 72.0586 333.016C71.4026 332.6 70.7946 332.288 70.2346 332.08C69.6906 331.872 68.9946 331.768 68.1466 331.768C67.1706 331.768 66.4026 331.96 65.8426 332.344C65.2826 332.712 65.0026 333.224 65.0026 333.88C65.0026 334.264 65.1066 334.584 65.3146 334.84C65.5386 335.08 65.8986 335.296 66.3946 335.488C66.9066 335.68 67.6266 335.88 68.5546 336.088C70.7306 336.568 72.2906 337.184 73.2346 337.936C74.1946 338.688 74.6746 339.72 74.6746 341.032C74.6746 342.056 74.3866 342.96 73.8106 343.744C73.2506 344.528 72.4506 345.136 71.4106 345.568C70.3866 346 69.1946 346.216 67.8346 346.216ZM86.5394 342.496C86.8594 342.496 87.1154 342.624 87.3074 342.88C87.5154 343.136 87.6194 343.464 87.6194 343.864C87.6194 344.136 87.5394 344.392 87.3794 344.632C87.2194 344.856 86.9954 345.048 86.7074 345.208C86.1634 345.496 85.5314 345.736 84.8114 345.928C84.0914 346.104 83.4274 346.192 82.8194 346.192C81.5394 346.192 80.4194 345.944 79.4594 345.448C78.5154 344.952 77.7874 344.248 77.2754 343.336C76.7634 342.408 76.5074 341.32 76.5074 340.072C76.5074 338.872 76.7554 337.808 77.2514 336.88C77.7474 335.952 78.4354 335.232 79.3154 334.72C80.1954 334.192 81.1954 333.928 82.3154 333.928C83.3874 333.928 84.3234 334.168 85.1234 334.648C85.9394 335.112 86.5714 335.784 87.0194 336.664C87.4674 337.528 87.6914 338.544 87.6914 339.712C87.6914 340.064 87.6034 340.336 87.4274 340.528C87.2674 340.704 87.0354 340.792 86.7314 340.792H80.0114C80.1234 341.736 80.4114 342.424 80.8754 342.856C81.3394 343.272 82.0034 343.48 82.8674 343.48C83.3314 343.48 83.7474 343.424 84.1154 343.312C84.4834 343.2 84.8914 343.048 85.3394 342.856C85.5634 342.76 85.7794 342.68 85.9874 342.616C86.1954 342.536 86.3794 342.496 86.5394 342.496ZM82.4114 336.424C81.7234 336.424 81.1714 336.648 80.7554 337.096C80.3394 337.528 80.0914 338.16 80.0114 338.992H84.6434C84.5954 338.144 84.3794 337.504 83.9954 337.072C83.6274 336.64 83.0994 336.424 82.4114 336.424ZM97.2723 333.928C98.6803 333.928 99.7283 334.344 100.416 335.176C101.104 335.992 101.448 337.232 101.448 338.896V344.44C101.448 344.968 101.28 345.384 100.944 345.688C100.624 345.992 100.184 346.144 99.6243 346.144C99.0643 346.144 98.6243 345.992 98.3043 345.688C97.9843 345.384 97.8243 344.968 97.8243 344.44V339.064C97.8243 338.264 97.6723 337.68 97.3683 337.312C97.0803 336.944 96.6243 336.76 96.0003 336.76C95.2483 336.76 94.6403 337 94.1763 337.48C93.7283 337.96 93.5043 338.6 93.5043 339.4V344.44C93.5043 344.968 93.3443 345.384 93.0243 345.688C92.7043 345.992 92.2643 346.144 91.7043 346.144C91.1443 346.144 90.6963 345.992 90.3603 345.688C90.0403 345.384 89.8803 344.968 89.8803 344.44V335.632C89.8803 335.136 90.0483 334.736 90.3843 334.432C90.7363 334.128 91.1843 333.976 91.7283 333.976C92.2243 333.976 92.6243 334.128 92.9283 334.432C93.2483 334.72 93.4083 335.096 93.4083 335.56V335.896C93.8243 335.256 94.3603 334.768 95.0163 334.432C95.6883 334.096 96.4403 333.928 97.2723 333.928ZM111.618 333.928C114.354 333.928 115.722 335.584 115.722 338.896V344.44C115.722 344.968 115.554 345.384 115.218 345.688C114.898 345.992 114.458 346.144 113.898 346.144C113.338 346.144 112.898 345.992 112.578 345.688C112.258 345.384 112.098 344.968 112.098 344.44V338.848C112.098 338.144 111.946 337.624 111.642 337.288C111.354 336.936 110.898 336.76 110.274 336.76C109.522 336.76 108.914 337 108.45 337.48C108.002 337.96 107.778 338.6 107.778 339.4V344.44C107.778 344.968 107.618 345.384 107.298 345.688C106.978 345.992 106.538 346.144 105.978 346.144C105.418 346.144 104.97 345.992 104.634 345.688C104.314 345.384 104.154 344.968 104.154 344.44V330.616C104.154 330.12 104.322 329.72 104.658 329.416C105.01 329.112 105.466 328.96 106.026 328.96C106.554 328.96 106.978 329.104 107.298 329.392C107.618 329.68 107.778 330.064 107.778 330.544V335.776C108.194 335.168 108.73 334.712 109.386 334.408C110.042 334.088 110.786 333.928 111.618 333.928ZM123.731 333.928C125.459 333.928 126.739 334.352 127.571 335.2C128.403 336.032 128.819 337.312 128.819 339.04V344.464C128.819 344.992 128.667 345.408 128.363 345.712C128.059 346 127.635 346.144 127.091 346.144C126.579 346.144 126.163 345.992 125.843 345.688C125.539 345.368 125.387 344.96 125.387 344.464V344.296C125.147 344.888 124.747 345.352 124.187 345.688C123.627 346.024 122.971 346.192 122.219 346.192C121.419 346.192 120.691 346.032 120.035 345.712C119.395 345.392 118.883 344.944 118.499 344.368C118.131 343.792 117.947 343.152 117.947 342.448C117.947 341.584 118.163 340.904 118.595 340.408C119.043 339.912 119.755 339.552 120.731 339.328C121.707 339.104 123.043 338.992 124.739 338.992H125.363V338.56C125.363 337.888 125.211 337.4 124.907 337.096C124.619 336.792 124.131 336.64 123.443 336.64C122.755 336.64 121.763 336.88 120.467 337.36C120.099 337.536 119.787 337.624 119.531 337.624C119.179 337.624 118.899 337.504 118.691 337.264C118.483 337.008 118.379 336.68 118.379 336.28C118.379 335.96 118.451 335.696 118.595 335.488C118.739 335.28 118.971 335.088 119.291 334.912C119.851 334.608 120.531 334.368 121.331 334.192C122.147 334.016 122.947 333.928 123.731 333.928ZM123.011 343.696C123.715 343.696 124.283 343.464 124.715 343C125.147 342.52 125.363 341.904 125.363 341.152V340.744H124.955C123.659 340.744 122.747 340.848 122.219 341.056C121.707 341.264 121.451 341.64 121.451 342.184C121.451 342.632 121.595 343 121.883 343.288C122.187 343.56 122.563 343.696 123.011 343.696ZM143.68 346.192C142.464 346.192 141.4 345.944 140.488 345.448C139.576 344.952 138.872 344.248 138.376 343.336C137.896 342.424 137.656 341.352 137.656 340.12C137.656 338.888 137.912 337.808 138.424 336.88C138.952 335.936 139.688 335.208 140.632 334.696C141.576 334.184 142.664 333.928 143.896 333.928C144.536 333.928 145.176 334.016 145.816 334.192C146.472 334.368 147.056 334.616 147.568 334.936C148.064 335.24 148.312 335.688 148.312 336.28C148.312 336.696 148.216 337.04 148.024 337.312C147.832 337.568 147.576 337.696 147.256 337.696C147.048 337.696 146.848 337.664 146.656 337.6C146.48 337.52 146.24 337.408 145.936 337.264C145.6 337.088 145.296 336.952 145.024 336.856C144.768 336.76 144.472 336.712 144.136 336.712C143.24 336.712 142.552 337 142.072 337.576C141.608 338.136 141.376 338.96 141.376 340.048C141.376 341.136 141.608 341.968 142.072 342.544C142.552 343.12 143.24 343.408 144.136 343.408C144.472 343.408 144.768 343.368 145.024 343.288C145.28 343.192 145.592 343.048 145.96 342.856C146.264 342.712 146.504 342.608 146.68 342.544C146.856 342.464 147.048 342.424 147.256 342.424C147.56 342.424 147.808 342.56 148 342.832C148.208 343.104 148.312 343.448 148.312 343.864C148.312 344.456 148.064 344.896 147.568 345.184C147.056 345.504 146.464 345.752 145.792 345.928C145.12 346.104 144.416 346.192 143.68 346.192ZM155.395 333.928C157.123 333.928 158.403 334.352 159.235 335.2C160.067 336.032 160.483 337.312 160.483 339.04V344.464C160.483 344.992 160.331 345.408 160.027 345.712C159.723 346 159.299 346.144 158.755 346.144C158.243 346.144 157.827 345.992 157.507 345.688C157.203 345.368 157.051 344.96 157.051 344.464V344.296C156.811 344.888 156.411 345.352 155.851 345.688C155.291 346.024 154.635 346.192 153.883 346.192C153.083 346.192 152.355 346.032 151.699 345.712C151.059 345.392 150.547 344.944 150.163 344.368C149.795 343.792 149.611 343.152 149.611 342.448C149.611 341.584 149.827 340.904 150.259 340.408C150.707 339.912 151.419 339.552 152.395 339.328C153.371 339.104 154.707 338.992 156.403 338.992H157.027V338.56C157.027 337.888 156.875 337.4 156.571 337.096C156.283 336.792 155.795 336.64 155.107 336.64C154.419 336.64 153.427 336.88 152.131 337.36C151.763 337.536 151.451 337.624 151.195 337.624C150.843 337.624 150.563 337.504 150.355 337.264C150.147 337.008 150.043 336.68 150.043 336.28C150.043 335.96 150.115 335.696 150.259 335.488C150.403 335.28 150.635 335.088 150.955 334.912C151.515 334.608 152.195 334.368 152.995 334.192C153.811 334.016 154.611 333.928 155.395 333.928ZM154.675 343.696C155.379 343.696 155.947 343.464 156.379 343C156.811 342.52 157.027 341.904 157.027 341.152V340.744H156.619C155.323 340.744 154.411 340.848 153.883 341.056C153.371 341.264 153.115 341.64 153.115 342.184C153.115 342.632 153.259 343 153.547 343.288C153.851 343.56 154.227 343.696 154.675 343.696ZM173.249 328.96C173.809 328.96 174.257 329.112 174.593 329.416C174.945 329.72 175.121 330.12 175.121 330.616V344.44C175.121 344.952 174.953 345.368 174.617 345.688C174.297 345.992 173.865 346.144 173.321 346.144C172.777 346.144 172.337 345.992 172.001 345.688C171.681 345.368 171.521 344.952 171.521 344.44V344.248C171.169 344.856 170.665 345.336 170.009 345.688C169.369 346.024 168.641 346.192 167.825 346.192C166.817 346.192 165.913 345.936 165.113 345.424C164.329 344.896 163.713 344.168 163.265 343.24C162.833 342.296 162.617 341.216 162.617 340C162.617 338.784 162.833 337.72 163.265 336.808C163.713 335.88 164.329 335.168 165.113 334.672C165.897 334.176 166.801 333.928 167.825 333.928C168.625 333.928 169.345 334.096 169.985 334.432C170.641 334.768 171.145 335.24 171.497 335.848V330.544C171.497 330.064 171.657 329.68 171.977 329.392C172.297 329.104 172.721 328.96 173.249 328.96ZM168.881 343.432C169.729 343.432 170.377 343.144 170.825 342.568C171.289 341.976 171.521 341.136 171.521 340.048C171.521 338.96 171.289 338.128 170.825 337.552C170.377 336.976 169.729 336.688 168.881 336.688C168.033 336.688 167.377 336.976 166.913 337.552C166.449 338.112 166.217 338.928 166.217 340C166.217 341.088 166.449 341.936 166.913 342.544C167.377 343.136 168.033 343.432 168.881 343.432ZM183.216 333.928C184.944 333.928 186.224 334.352 187.056 335.2C187.888 336.032 188.304 337.312 188.304 339.04V344.464C188.304 344.992 188.152 345.408 187.848 345.712C187.544 346 187.12 346.144 186.576 346.144C186.064 346.144 185.648 345.992 185.328 345.688C185.024 345.368 184.872 344.96 184.872 344.464V344.296C184.632 344.888 184.232 345.352 183.672 345.688C183.112 346.024 182.456 346.192 181.704 346.192C180.904 346.192 180.176 346.032 179.52 345.712C178.88 345.392 178.368 344.944 177.984 344.368C177.616 343.792 177.432 343.152 177.432 342.448C177.432 341.584 177.648 340.904 178.08 340.408C178.528 339.912 179.24 339.552 180.216 339.328C181.192 339.104 182.528 338.992 184.224 338.992H184.848V338.56C184.848 337.888 184.696 337.4 184.392 337.096C184.104 336.792 183.616 336.64 182.928 336.64C182.24 336.64 181.248 336.88 179.952 337.36C179.584 337.536 179.272 337.624 179.016 337.624C178.664 337.624 178.384 337.504 178.176 337.264C177.968 337.008 177.864 336.68 177.864 336.28C177.864 335.96 177.936 335.696 178.08 335.488C178.224 335.28 178.456 335.088 178.776 334.912C179.336 334.608 180.016 334.368 180.816 334.192C181.632 334.016 182.432 333.928 183.216 333.928ZM182.496 343.696C183.2 343.696 183.768 343.464 184.2 343C184.632 342.52 184.848 341.904 184.848 341.152V340.744H184.44C183.144 340.744 182.232 340.848 181.704 341.056C181.192 341.264 180.936 341.64 180.936 342.184C180.936 342.632 181.08 343 181.368 343.288C181.672 343.56 182.048 343.696 182.496 343.696ZM195.477 346.192C194.501 346.192 193.653 346.112 192.933 345.952C192.213 345.792 191.581 345.536 191.037 345.184C190.797 345.04 190.613 344.848 190.485 344.608C190.357 344.368 190.293 344.096 190.293 343.792C190.293 343.424 190.397 343.12 190.605 342.88C190.813 342.624 191.069 342.496 191.373 342.496C191.581 342.496 191.789 342.536 191.997 342.616C192.205 342.68 192.421 342.76 192.645 342.856C193.093 343.064 193.533 343.232 193.965 343.36C194.397 343.472 194.933 343.528 195.573 343.528C196.133 343.528 196.565 343.44 196.869 343.264C197.189 343.088 197.349 342.848 197.349 342.544C197.349 342.32 197.277 342.144 197.133 342.016C197.005 341.872 196.757 341.744 196.389 341.632C196.021 341.52 195.437 341.384 194.637 341.224C193.213 340.952 192.189 340.544 191.565 340C190.941 339.456 190.629 338.696 190.629 337.72C190.629 337 190.845 336.352 191.277 335.776C191.725 335.2 192.333 334.752 193.101 334.432C193.869 334.096 194.733 333.928 195.693 333.928C196.381 333.928 197.053 334.016 197.709 334.192C198.365 334.368 198.949 334.616 199.461 334.936C199.957 335.24 200.205 335.688 200.205 336.28C200.205 336.664 200.101 336.984 199.893 337.24C199.685 337.496 199.429 337.624 199.125 337.624C198.757 337.624 198.317 337.48 197.805 337.192C197.405 336.984 197.037 336.832 196.701 336.736C196.381 336.624 195.997 336.568 195.549 336.568C195.053 336.568 194.661 336.664 194.373 336.856C194.085 337.032 193.941 337.28 193.941 337.6C193.941 337.936 194.109 338.192 194.445 338.368C194.781 338.544 195.429 338.72 196.389 338.896C197.461 339.104 198.301 339.36 198.909 339.664C199.517 339.952 199.957 340.32 200.229 340.768C200.501 341.216 200.637 341.784 200.637 342.472C200.637 343.608 200.165 344.512 199.221 345.184C198.293 345.856 197.045 346.192 195.477 346.192ZM209.143 343.504C209.623 343.536 209.975 343.656 210.199 343.864C210.423 344.072 210.535 344.376 210.535 344.776C210.535 345.24 210.351 345.592 209.983 345.832C209.615 346.072 209.087 346.168 208.399 346.12L207.727 346.072C204.927 345.848 203.527 344.384 203.527 341.68V336.928H202.567C202.039 336.928 201.639 336.816 201.367 336.592C201.095 336.352 200.959 336.016 200.959 335.584C200.959 335.136 201.095 334.8 201.367 334.576C201.639 334.336 202.039 334.216 202.567 334.216H203.527V332.344C203.527 331.816 203.687 331.4 204.007 331.096C204.343 330.792 204.791 330.64 205.351 330.64C205.911 330.64 206.351 330.792 206.671 331.096C206.991 331.4 207.151 331.816 207.151 332.344V334.216H208.831C209.919 334.216 210.463 334.672 210.463 335.584C210.463 336.016 210.327 336.352 210.055 336.592C209.783 336.816 209.375 336.928 208.831 336.928H207.151V341.944C207.151 342.424 207.263 342.792 207.487 343.048C207.711 343.288 208.039 343.424 208.471 343.456L209.143 343.504ZM218.904 333.976C219.384 333.944 219.76 334.056 220.032 334.312C220.32 334.552 220.464 334.92 220.464 335.416C220.464 335.944 220.336 336.336 220.08 336.592C219.824 336.848 219.368 337.008 218.712 337.072L217.992 337.144C217.112 337.24 216.472 337.528 216.072 338.008C215.688 338.488 215.496 339.104 215.496 339.856V344.44C215.496 345 215.32 345.424 214.968 345.712C214.632 346 214.208 346.144 213.696 346.144C213.168 346.144 212.728 346 212.376 345.712C212.04 345.424 211.872 345 211.872 344.44V335.632C211.872 335.104 212.048 334.696 212.4 334.408C212.752 334.12 213.176 333.976 213.672 333.976C214.152 333.976 214.552 334.12 214.872 334.408C215.192 334.68 215.352 335.064 215.352 335.56V336.208C215.64 335.52 216.072 334.992 216.648 334.624C217.24 334.256 217.88 334.048 218.568 334L218.904 333.976ZM226.809 333.928C228.537 333.928 229.817 334.352 230.649 335.2C231.481 336.032 231.897 337.312 231.897 339.04V344.464C231.897 344.992 231.745 345.408 231.441 345.712C231.137 346 230.713 346.144 230.169 346.144C229.657 346.144 229.241 345.992 228.921 345.688C228.617 345.368 228.465 344.96 228.465 344.464V344.296C228.225 344.888 227.825 345.352 227.265 345.688C226.705 346.024 226.049 346.192 225.297 346.192C224.497 346.192 223.769 346.032 223.113 345.712C222.473 345.392 221.961 344.944 221.577 344.368C221.209 343.792 221.025 343.152 221.025 342.448C221.025 341.584 221.241 340.904 221.673 340.408C222.121 339.912 222.833 339.552 223.809 339.328C224.785 339.104 226.121 338.992 227.817 338.992H228.441V338.56C228.441 337.888 228.289 337.4 227.985 337.096C227.697 336.792 227.209 336.64 226.521 336.64C225.833 336.64 224.841 336.88 223.545 337.36C223.177 337.536 222.865 337.624 222.609 337.624C222.257 337.624 221.977 337.504 221.769 337.264C221.561 337.008 221.457 336.68 221.457 336.28C221.457 335.96 221.529 335.696 221.673 335.488C221.817 335.28 222.049 335.088 222.369 334.912C222.929 334.608 223.609 334.368 224.409 334.192C225.225 334.016 226.025 333.928 226.809 333.928ZM226.089 343.696C226.793 343.696 227.361 343.464 227.793 343C228.225 342.52 228.441 341.904 228.441 341.152V340.744H228.033C226.737 340.744 225.825 340.848 225.297 341.056C224.785 341.264 224.529 341.64 224.529 342.184C224.529 342.632 224.673 343 224.961 343.288C225.265 343.56 225.641 343.696 226.089 343.696ZM244.663 328.96C245.223 328.96 245.671 329.112 246.007 329.416C246.359 329.72 246.535 330.12 246.535 330.616V344.44C246.535 344.952 246.367 345.368 246.031 345.688C245.711 345.992 245.279 346.144 244.735 346.144C244.191 346.144 243.751 345.992 243.415 345.688C243.095 345.368 242.935 344.952 242.935 344.44V344.248C242.583 344.856 242.079 345.336 241.423 345.688C240.783 346.024 240.055 346.192 239.239 346.192C238.231 346.192 237.327 345.936 236.527 345.424C235.743 344.896 235.127 344.168 234.679 343.24C234.247 342.296 234.031 341.216 234.031 340C234.031 338.784 234.247 337.72 234.679 336.808C235.127 335.88 235.743 335.168 236.527 334.672C237.311 334.176 238.215 333.928 239.239 333.928C240.039 333.928 240.759 334.096 241.399 334.432C242.055 334.768 242.559 335.24 242.911 335.848V330.544C242.911 330.064 243.071 329.68 243.391 329.392C243.711 329.104 244.135 328.96 244.663 328.96ZM240.295 343.432C241.143 343.432 241.791 343.144 242.239 342.568C242.703 341.976 242.935 341.136 242.935 340.048C242.935 338.96 242.703 338.128 242.239 337.552C241.791 336.976 241.143 336.688 240.295 336.688C239.447 336.688 238.791 336.976 238.327 337.552C237.863 338.112 237.631 338.928 237.631 340C237.631 341.088 237.863 341.936 238.327 342.544C238.791 343.136 239.447 343.432 240.295 343.432ZM254.63 333.928C256.358 333.928 257.638 334.352 258.47 335.2C259.302 336.032 259.718 337.312 259.718 339.04V344.464C259.718 344.992 259.566 345.408 259.262 345.712C258.958 346 258.534 346.144 257.99 346.144C257.478 346.144 257.062 345.992 256.742 345.688C256.438 345.368 256.286 344.96 256.286 344.464V344.296C256.046 344.888 255.646 345.352 255.086 345.688C254.526 346.024 253.87 346.192 253.118 346.192C252.318 346.192 251.59 346.032 250.934 345.712C250.294 345.392 249.782 344.944 249.398 344.368C249.03 343.792 248.846 343.152 248.846 342.448C248.846 341.584 249.062 340.904 249.494 340.408C249.942 339.912 250.654 339.552 251.63 339.328C252.606 339.104 253.942 338.992 255.638 338.992H256.262V338.56C256.262 337.888 256.11 337.4 255.806 337.096C255.518 336.792 255.03 336.64 254.342 336.64C253.654 336.64 252.662 336.88 251.366 337.36C250.998 337.536 250.686 337.624 250.43 337.624C250.078 337.624 249.798 337.504 249.59 337.264C249.382 337.008 249.278 336.68 249.278 336.28C249.278 335.96 249.35 335.696 249.494 335.488C249.638 335.28 249.87 335.088 250.19 334.912C250.75 334.608 251.43 334.368 252.23 334.192C253.046 334.016 253.846 333.928 254.63 333.928ZM253.91 343.696C254.614 343.696 255.182 343.464 255.614 343C256.046 342.52 256.262 341.904 256.262 341.152V340.744H255.854C254.558 340.744 253.646 340.848 253.118 341.056C252.606 341.264 252.35 341.64 252.35 342.184C252.35 342.632 252.494 343 252.782 343.288C253.086 343.56 253.462 343.696 253.91 343.696ZM274.578 346.192C273.362 346.192 272.298 345.944 271.386 345.448C270.474 344.952 269.77 344.248 269.274 343.336C268.794 342.424 268.554 341.352 268.554 340.12C268.554 338.888 268.81 337.808 269.322 336.88C269.85 335.936 270.586 335.208 271.53 334.696C272.474 334.184 273.562 333.928 274.794 333.928C275.434 333.928 276.074 334.016 276.714 334.192C277.37 334.368 277.954 334.616 278.466 334.936C278.962 335.24 279.21 335.688 279.21 336.28C279.21 336.696 279.114 337.04 278.922 337.312C278.73 337.568 278.474 337.696 278.154 337.696C277.946 337.696 277.746 337.664 277.554 337.6C277.378 337.52 277.138 337.408 276.834 337.264C276.498 337.088 276.194 336.952 275.922 336.856C275.666 336.76 275.37 336.712 275.034 336.712C274.138 336.712 273.45 337 272.97 337.576C272.506 338.136 272.274 338.96 272.274 340.048C272.274 341.136 272.506 341.968 272.97 342.544C273.45 343.12 274.138 343.408 275.034 343.408C275.37 343.408 275.666 343.368 275.922 343.288C276.178 343.192 276.49 343.048 276.858 342.856C277.162 342.712 277.402 342.608 277.578 342.544C277.754 342.464 277.946 342.424 278.154 342.424C278.458 342.424 278.706 342.56 278.898 342.832C279.106 343.104 279.21 343.448 279.21 343.864C279.21 344.456 278.962 344.896 278.466 345.184C277.954 345.504 277.362 345.752 276.69 345.928C276.018 346.104 275.314 346.192 274.578 346.192ZM286.654 346.192C285.406 346.192 284.31 345.944 283.366 345.448C282.422 344.936 281.694 344.224 281.182 343.312C280.67 342.384 280.414 341.296 280.414 340.048C280.414 338.8 280.67 337.72 281.182 336.808C281.694 335.88 282.422 335.168 283.366 334.672C284.31 334.176 285.406 333.928 286.654 333.928C287.902 333.928 288.998 334.176 289.942 334.672C290.886 335.168 291.614 335.88 292.126 336.808C292.638 337.72 292.894 338.8 292.894 340.048C292.894 341.296 292.638 342.384 292.126 343.312C291.614 344.224 290.886 344.936 289.942 345.448C288.998 345.944 287.902 346.192 286.654 346.192ZM286.654 343.432C288.414 343.432 289.294 342.304 289.294 340.048C289.294 338.912 289.062 338.064 288.598 337.504C288.15 336.944 287.502 336.664 286.654 336.664C284.894 336.664 284.014 337.792 284.014 340.048C284.014 342.304 284.894 343.432 286.654 343.432ZM309.619 333.928C310.899 333.928 311.883 334.32 312.571 335.104C313.259 335.872 313.603 337.136 313.603 338.896V344.44C313.603 345 313.435 345.424 313.099 345.712C312.763 346 312.331 346.144 311.803 346.144C311.291 346.144 310.859 346 310.507 345.712C310.155 345.424 309.979 345 309.979 344.44V338.848C309.979 338.08 309.843 337.544 309.571 337.24C309.315 336.92 308.915 336.76 308.371 336.76C307.699 336.76 307.163 336.992 306.763 337.456C306.363 337.92 306.163 338.568 306.163 339.4V344.44C306.163 345 305.995 345.424 305.659 345.712C305.323 346 304.891 346.144 304.363 346.144C303.851 346.144 303.419 346 303.067 345.712C302.715 345.424 302.539 345 302.539 344.44V338.848C302.539 338.08 302.403 337.544 302.131 337.24C301.875 336.92 301.475 336.76 300.931 336.76C300.259 336.76 299.723 336.992 299.323 337.456C298.923 337.92 298.723 338.568 298.723 339.4V344.44C298.723 345 298.547 345.424 298.195 345.712C297.859 346 297.435 346.144 296.923 346.144C296.411 346.144 295.979 346 295.627 345.712C295.275 345.424 295.099 345 295.099 344.44V335.632C295.099 335.104 295.275 334.696 295.627 334.408C295.995 334.12 296.435 333.976 296.947 333.976C297.427 333.976 297.827 334.12 298.147 334.408C298.467 334.68 298.627 335.064 298.627 335.56V335.8C299.011 335.192 299.507 334.728 300.115 334.408C300.739 334.088 301.443 333.928 302.227 333.928C303.075 333.928 303.787 334.104 304.363 334.456C304.955 334.792 305.411 335.344 305.731 336.112C306.099 335.44 306.619 334.912 307.291 334.528C307.979 334.128 308.755 333.928 309.619 333.928ZM146.247 374.192C145.271 374.192 144.423 374.112 143.703 373.952C142.983 373.792 142.351 373.536 141.807 373.184C141.567 373.04 141.383 372.848 141.255 372.608C141.127 372.368 141.063 372.096 141.063 371.792C141.063 371.424 141.167 371.12 141.375 370.88C141.583 370.624 141.839 370.496 142.143 370.496C142.351 370.496 142.559 370.536 142.767 370.616C142.975 370.68 143.191 370.76 143.415 370.856C143.863 371.064 144.303 371.232 144.735 371.36C145.167 371.472 145.703 371.528 146.343 371.528C146.903 371.528 147.335 371.44 147.639 371.264C147.959 371.088 148.119 370.848 148.119 370.544C148.119 370.32 148.047 370.144 147.903 370.016C147.775 369.872 147.527 369.744 147.159 369.632C146.791 369.52 146.207 369.384 145.407 369.224C143.983 368.952 142.959 368.544 142.335 368C141.711 367.456 141.399 366.696 141.399 365.72C141.399 365 141.615 364.352 142.047 363.776C142.495 363.2 143.103 362.752 143.871 362.432C144.639 362.096 145.503 361.928 146.463 361.928C147.151 361.928 147.823 362.016 148.479 362.192C149.135 362.368 149.719 362.616 150.231 362.936C150.727 363.24 150.975 363.688 150.975 364.28C150.975 364.664 150.871 364.984 150.663 365.24C150.455 365.496 150.199 365.624 149.895 365.624C149.527 365.624 149.087 365.48 148.575 365.192C148.175 364.984 147.807 364.832 147.471 364.736C147.151 364.624 146.767 364.568 146.319 364.568C145.823 364.568 145.431 364.664 145.143 364.856C144.855 365.032 144.711 365.28 144.711 365.6C144.711 365.936 144.879 366.192 145.215 366.368C145.551 366.544 146.199 366.72 147.159 366.896C148.231 367.104 149.071 367.36 149.679 367.664C150.287 367.952 150.727 368.32 150.999 368.768C151.271 369.216 151.407 369.784 151.407 370.472C151.407 371.608 150.935 372.512 149.991 373.184C149.063 373.856 147.815 374.192 146.247 374.192ZM163.006 361.976C163.566 361.976 164.006 362.128 164.326 362.432C164.662 362.736 164.83 363.152 164.83 363.68V372.488C164.83 372.984 164.654 373.384 164.302 373.688C163.966 373.992 163.526 374.144 162.982 374.144C162.47 374.144 162.062 374 161.758 373.712C161.454 373.424 161.302 373.04 161.302 372.56V372.32C160.934 372.928 160.446 373.392 159.838 373.712C159.246 374.032 158.574 374.192 157.822 374.192C156.334 374.192 155.222 373.784 154.486 372.968C153.766 372.136 153.406 370.888 153.406 369.224V363.68C153.406 363.152 153.566 362.736 153.886 362.432C154.222 362.128 154.67 361.976 155.23 361.976C155.79 361.976 156.23 362.128 156.55 362.432C156.87 362.736 157.03 363.152 157.03 363.68V369.296C157.03 370 157.174 370.52 157.462 370.856C157.766 371.192 158.222 371.36 158.83 371.36C159.534 371.36 160.102 371.12 160.534 370.64C160.982 370.16 161.206 369.528 161.206 368.744V363.68C161.206 363.152 161.366 362.736 161.686 362.432C162.006 362.128 162.446 361.976 163.006 361.976ZM173.059 374.192C171.843 374.192 170.779 373.944 169.867 373.448C168.955 372.952 168.251 372.248 167.755 371.336C167.275 370.424 167.035 369.352 167.035 368.12C167.035 366.888 167.291 365.808 167.803 364.88C168.331 363.936 169.067 363.208 170.011 362.696C170.955 362.184 172.043 361.928 173.275 361.928C173.915 361.928 174.555 362.016 175.195 362.192C175.851 362.368 176.435 362.616 176.947 362.936C177.443 363.24 177.691 363.688 177.691 364.28C177.691 364.696 177.595 365.04 177.403 365.312C177.211 365.568 176.955 365.696 176.635 365.696C176.427 365.696 176.227 365.664 176.035 365.6C175.859 365.52 175.619 365.408 175.315 365.264C174.979 365.088 174.675 364.952 174.403 364.856C174.147 364.76 173.851 364.712 173.515 364.712C172.619 364.712 171.931 365 171.451 365.576C170.987 366.136 170.755 366.96 170.755 368.048C170.755 369.136 170.987 369.968 171.451 370.544C171.931 371.12 172.619 371.408 173.515 371.408C173.851 371.408 174.147 371.368 174.403 371.288C174.659 371.192 174.971 371.048 175.339 370.856C175.643 370.712 175.883 370.608 176.059 370.544C176.235 370.464 176.427 370.424 176.635 370.424C176.939 370.424 177.187 370.56 177.379 370.832C177.587 371.104 177.691 371.448 177.691 371.864C177.691 372.456 177.443 372.896 176.947 373.184C176.435 373.504 175.843 373.752 175.171 373.928C174.499 374.104 173.795 374.192 173.059 374.192ZM188.926 370.496C189.246 370.496 189.502 370.624 189.694 370.88C189.902 371.136 190.006 371.464 190.006 371.864C190.006 372.136 189.926 372.392 189.766 372.632C189.606 372.856 189.382 373.048 189.094 373.208C188.55 373.496 187.918 373.736 187.198 373.928C186.478 374.104 185.814 374.192 185.206 374.192C183.926 374.192 182.806 373.944 181.846 373.448C180.902 372.952 180.174 372.248 179.662 371.336C179.15 370.408 178.894 369.32 178.894 368.072C178.894 366.872 179.142 365.808 179.638 364.88C180.134 363.952 180.822 363.232 181.702 362.72C182.582 362.192 183.582 361.928 184.702 361.928C185.774 361.928 186.71 362.168 187.51 362.648C188.326 363.112 188.958 363.784 189.406 364.664C189.854 365.528 190.078 366.544 190.078 367.712C190.078 368.064 189.99 368.336 189.814 368.528C189.654 368.704 189.422 368.792 189.118 368.792H182.398C182.51 369.736 182.798 370.424 183.262 370.856C183.726 371.272 184.39 371.48 185.254 371.48C185.718 371.48 186.134 371.424 186.502 371.312C186.87 371.2 187.278 371.048 187.726 370.856C187.95 370.76 188.166 370.68 188.374 370.616C188.582 370.536 188.766 370.496 188.926 370.496ZM184.798 364.424C184.11 364.424 183.558 364.648 183.142 365.096C182.726 365.528 182.478 366.16 182.398 366.992H187.03C186.982 366.144 186.766 365.504 186.382 365.072C186.014 364.64 185.486 364.424 184.798 364.424ZM196.731 374.192C195.755 374.192 194.907 374.112 194.187 373.952C193.467 373.792 192.835 373.536 192.291 373.184C192.051 373.04 191.867 372.848 191.739 372.608C191.611 372.368 191.547 372.096 191.547 371.792C191.547 371.424 191.651 371.12 191.859 370.88C192.067 370.624 192.323 370.496 192.627 370.496C192.835 370.496 193.043 370.536 193.251 370.616C193.459 370.68 193.675 370.76 193.899 370.856C194.347 371.064 194.787 371.232 195.219 371.36C195.651 371.472 196.187 371.528 196.827 371.528C197.387 371.528 197.819 371.44 198.123 371.264C198.443 371.088 198.603 370.848 198.603 370.544C198.603 370.32 198.531 370.144 198.387 370.016C198.259 369.872 198.011 369.744 197.643 369.632C197.275 369.52 196.691 369.384 195.891 369.224C194.467 368.952 193.443 368.544 192.819 368C192.195 367.456 191.883 366.696 191.883 365.72C191.883 365 192.099 364.352 192.531 363.776C192.979 363.2 193.587 362.752 194.355 362.432C195.123 362.096 195.987 361.928 196.947 361.928C197.635 361.928 198.307 362.016 198.963 362.192C199.619 362.368 200.203 362.616 200.715 362.936C201.211 363.24 201.459 363.688 201.459 364.28C201.459 364.664 201.355 364.984 201.147 365.24C200.939 365.496 200.683 365.624 200.379 365.624C200.011 365.624 199.571 365.48 199.059 365.192C198.659 364.984 198.291 364.832 197.955 364.736C197.635 364.624 197.251 364.568 196.803 364.568C196.307 364.568 195.915 364.664 195.627 364.856C195.339 365.032 195.195 365.28 195.195 365.6C195.195 365.936 195.363 366.192 195.699 366.368C196.035 366.544 196.683 366.72 197.643 366.896C198.715 367.104 199.555 367.36 200.163 367.664C200.771 367.952 201.211 368.32 201.483 368.768C201.755 369.216 201.891 369.784 201.891 370.472C201.891 371.608 201.419 372.512 200.475 373.184C199.547 373.856 198.299 374.192 196.731 374.192ZM208.426 374.192C207.45 374.192 206.602 374.112 205.882 373.952C205.162 373.792 204.53 373.536 203.986 373.184C203.746 373.04 203.562 372.848 203.434 372.608C203.306 372.368 203.242 372.096 203.242 371.792C203.242 371.424 203.346 371.12 203.554 370.88C203.762 370.624 204.018 370.496 204.322 370.496C204.53 370.496 204.738 370.536 204.946 370.616C205.154 370.68 205.37 370.76 205.594 370.856C206.042 371.064 206.482 371.232 206.914 371.36C207.346 371.472 207.882 371.528 208.522 371.528C209.082 371.528 209.514 371.44 209.818 371.264C210.138 371.088 210.298 370.848 210.298 370.544C210.298 370.32 210.226 370.144 210.082 370.016C209.954 369.872 209.706 369.744 209.338 369.632C208.97 369.52 208.386 369.384 207.586 369.224C206.162 368.952 205.138 368.544 204.514 368C203.89 367.456 203.578 366.696 203.578 365.72C203.578 365 203.794 364.352 204.226 363.776C204.674 363.2 205.282 362.752 206.05 362.432C206.818 362.096 207.682 361.928 208.642 361.928C209.33 361.928 210.002 362.016 210.658 362.192C211.314 362.368 211.898 362.616 212.41 362.936C212.906 363.24 213.154 363.688 213.154 364.28C213.154 364.664 213.05 364.984 212.842 365.24C212.634 365.496 212.378 365.624 212.074 365.624C211.706 365.624 211.266 365.48 210.754 365.192C210.354 364.984 209.986 364.832 209.65 364.736C209.33 364.624 208.946 364.568 208.498 364.568C208.002 364.568 207.61 364.664 207.322 364.856C207.034 365.032 206.89 365.28 206.89 365.6C206.89 365.936 207.058 366.192 207.394 366.368C207.73 366.544 208.378 366.72 209.338 366.896C210.41 367.104 211.25 367.36 211.858 367.664C212.466 367.952 212.906 368.32 213.178 368.768C213.45 369.216 213.586 369.784 213.586 370.472C213.586 371.608 213.114 372.512 212.17 373.184C211.242 373.856 209.994 374.192 208.426 374.192ZM221.322 374.192C220.074 374.192 218.978 373.944 218.034 373.448C217.09 372.936 216.362 372.224 215.85 371.312C215.338 370.384 215.082 369.296 215.082 368.048C215.082 366.8 215.338 365.72 215.85 364.808C216.362 363.88 217.09 363.168 218.034 362.672C218.978 362.176 220.074 361.928 221.322 361.928C222.57 361.928 223.666 362.176 224.61 362.672C225.554 363.168 226.282 363.88 226.794 364.808C227.306 365.72 227.562 366.8 227.562 368.048C227.562 369.296 227.306 370.384 226.794 371.312C226.282 372.224 225.554 372.936 224.61 373.448C223.666 373.944 222.57 374.192 221.322 374.192ZM221.322 371.432C223.082 371.432 223.962 370.304 223.962 368.048C223.962 366.912 223.73 366.064 223.266 365.504C222.818 364.944 222.17 364.664 221.322 364.664C219.562 364.664 218.682 365.792 218.682 368.048C218.682 370.304 219.562 371.432 221.322 371.432ZM231.495 368.768C231.207 368.768 230.959 368.672 230.751 368.48C230.559 368.288 230.439 368.008 230.391 367.64L229.335 359.24C229.319 359.16 229.311 359.048 229.311 358.904C229.311 358.312 229.519 357.84 229.935 357.488C230.351 357.136 230.871 356.96 231.495 356.96C232.119 356.96 232.639 357.136 233.055 357.488C233.471 357.84 233.679 358.32 233.679 358.928C233.679 359.072 233.671 359.184 233.655 359.264L232.575 367.64C232.543 368.008 232.423 368.288 232.215 368.48C232.023 368.672 231.783 368.768 231.495 368.768ZM231.495 374.144C230.903 374.144 230.415 373.952 230.031 373.568C229.647 373.168 229.455 372.672 229.455 372.08C229.455 371.488 229.647 371 230.031 370.616C230.415 370.216 230.903 370.016 231.495 370.016C232.087 370.016 232.575 370.216 232.959 370.616C233.343 371 233.535 371.488 233.535 372.08C233.535 372.672 233.343 373.168 232.959 373.568C232.575 373.952 232.087 374.144 231.495 374.144Z" fill="#2D137C"/>
<path fill-rule="evenodd" clip-rule="evenodd" d="M91 239.411L93.5242 241.823L98 245L97.9069 242.972L95.862 240.178L91.3865 237L91 239.411Z" fill="#33435A"/>
<path fill-rule="evenodd" clip-rule="evenodd" d="M94.8448 169.146L93.7591 176.075L98.1626 207.566L91 238.376L95.3201 240L111.591 203.811L113 192.543L112.377 169L94.8448 169.146Z" fill="#002D51"/>
<path fill-rule="evenodd" clip-rule="evenodd" d="M125.218 169.152L128 198.418L125.602 236.648L121.337 237L115.74 202.37L107 168L125.218 169.152Z" fill="#002D51"/>
<path fill-rule="evenodd" clip-rule="evenodd" d="M123.882 238.915L125.918 241L128 238.293L125.541 236L121 236.415L123.882 238.915Z" fill="#33435A"/>
<path fill-rule="evenodd" clip-rule="evenodd" d="M104.99 133.838C103.74 134.309 102.491 134.781 101.242 135.252C100.758 134.304 100.35 133.317 100.022 132.304C98.8572 132.447 97.4513 132.491 96.7643 131.54C96.5479 131.24 96.4389 130.878 96.3335 130.524C95.8985 129.059 95.4633 127.595 95.0281 126.13C94.8777 125.624 94.7254 125.101 94.781 124.576C94.8793 123.654 95.5918 122.919 96.3406 122.371C98.2513 120.974 100.753 120.299 103.052 120.865C103.664 121.016 104.271 121.261 104.724 121.698C105.424 122.372 105.652 123.385 105.848 124.335C106.029 125.213 106.21 126.091 106.39 126.969C106.598 127.979 106.763 129.162 106.067 129.923C105.698 130.328 105.132 130.543 104.849 131.011C104.348 131.836 104.984 132.873 104.99 133.838Z" fill="#F6C5B0"/>
<path fill-rule="evenodd" clip-rule="evenodd" d="M110.388 114.413C110.427 113.974 110.487 113.539 110.583 113.112C110.792 112.186 111.172 111.293 111.24 110.347C111.308 109.4 110.967 108.331 110.115 107.913C109.565 107.642 108.915 107.693 108.312 107.798C106.323 108.147 104.432 109.039 102.9 110.353C101.44 111.605 100.294 113.048 98.3017 113.253C96.4296 113.445 95.4077 114.25 94.0483 115.656C92.5775 117.177 90.2531 118.514 89.0814 120.214C88.5922 120.924 88.3443 121.778 88.2451 122.634C87.903 125.601 89.4295 128.702 91.9902 130.242C92.5646 130.587 93.1811 130.857 93.8073 131.097C95.1026 131.594 96.6701 132.223 97.9977 131.988C97.5112 130.937 94.9467 128.136 95.3225 126.892C95.9188 124.918 99.0103 123.974 100.743 123.53C102.633 123.045 104.758 123.502 106.582 122.921C107.895 122.503 109.156 121.134 109.881 119.99C110.776 118.578 110.248 116.013 110.388 114.413Z" fill="#33435A"/>
<path fill-rule="evenodd" clip-rule="evenodd" d="M89.3892 184.896C89.6448 187.581 90.1523 191.18 91.1973 191.192C91.3928 191.194 91.5665 191.077 91.7242 190.965C93.3904 189.785 94.4896 188.271 96.1341 187.127C97.8577 185.928 99.9002 185.159 101.921 184.551C104.939 183.626 108.052 182.908 111.189 182.485C114.595 182.025 121.318 181.918 121.318 181.918C123.199 181.371 124.954 180.496 126.72 179.668C129.753 178.246 132.869 176.941 135.659 175.12C136.554 174.536 139.012 172.831 137.927 171.676C137.105 170.801 134.62 170.443 133.464 169.981C129.701 168.48 126.333 166.259 123.912 162.952C120.598 158.422 118.211 152.505 116.39 147.213C116.052 146.233 115.741 145.244 115.441 144.252C115.271 143.689 115.017 141.512 114.554 141.2C109.858 138.037 108.226 134.973 103.153 136.378C91.5788 139.583 92.4761 140.007 90.5229 146.088C89.7374 148.534 89.0348 154.934 88.9231 157.477C88.788 160.557 88.6848 168.794 88.6883 171.875C88.6927 175.313 88.8223 178.752 89.1655 182.172C89.2035 182.552 89.2682 183.621 89.3892 184.896Z" fill="#FFC71B"/>
<path fill-rule="evenodd" clip-rule="evenodd" d="M110.187 129.536L116.613 137.524L96.4896 145.976L93.9141 142.007L110.187 129.536Z" fill="#FDC51C"/>
<path fill-rule="evenodd" clip-rule="evenodd" d="M97.983 133.811L103.012 134.327L111.61 138.498L119.73 171.622L105.923 172.633L102.865 143.681L94.8539 140.943L92.4482 139.103L97.983 133.811Z" fill="#FDC51C"/>
<mask id="mask0" mask-type="alpha" maskUnits="userSpaceOnUse" x="111" y="71" width="139" height="99">
<path fill-rule="evenodd" clip-rule="evenodd" d="M111.288 71H249.918V169.506H111.288V71Z" fill="white"/>
</mask>
<g mask="url(#mask0)">
<path fill-rule="evenodd" clip-rule="evenodd" d="M241.163 97.2846C231.125 86.3955 215.174 83.89 202.823 90.8136C202.801 90.8264 202.776 90.8338 202.753 90.8439C199.053 93.3836 196.376 97.2458 196.055 102.414C195.985 103.55 194.303 103.47 194.374 102.327C194.718 96.7867 197.444 92.5893 201.282 89.7613C192.913 75.2509 176.084 67.559 160.768 72.4922C145.695 77.3469 136.155 92.7053 136.957 109.313C138.324 109.332 139.699 109.483 141.068 109.786C146.513 110.993 151.272 114.172 155.129 118.416C155.892 119.255 154.69 120.461 153.929 119.625C152.66 118.229 151.268 116.955 149.767 115.845C144.199 111.726 137.258 110.132 130.782 111.997C124.238 113.881 117.997 119.331 114.761 125.53C111.053 132.634 110.189 141.256 112.774 149.122C115.311 156.844 120.91 163.276 128.01 166.594C134.596 169.672 141.517 170.14 148.435 168.792C152.972 167.908 157.486 166.909 161.997 165.907C174.892 163.044 187.757 160.048 200.618 157.035C206.268 155.711 211.917 154.381 217.564 153.045C222.202 151.948 227.177 151.185 231.525 149.164C245.74 142.558 253.596 125.31 248.214 109.246C246.721 104.791 244.3 100.688 241.163 97.2846Z" fill="#5D76F8"/>
</g>
<path fill-rule="evenodd" clip-rule="evenodd" d="M248.214 109.444C248.122 109.171 248.027 108.9 247.929 108.629C249.385 116.731 247.316 124.97 240.803 130.428C234.111 136.036 226.666 141.052 218.64 143.982C197.568 151.675 174.621 157.598 152.855 163.073C145.909 164.826 139.285 165.98 130.7 167.486C130.631 167.498 130.597 167.589 130.545 167.644C135.511 169.414 140.694 169.9 145.946 169.395C146.775 169.286 147.605 169.152 148.435 168.99C152.971 168.106 157.486 167.107 161.997 166.105C174.653 163.295 187.281 160.357 199.903 157.4C201.486 157.025 203.069 156.65 204.651 156.274C210.497 154.884 216.342 153.488 222.185 152.087C223.893 151.678 225.643 151.305 227.392 150.906C228.81 150.478 230.197 149.98 231.524 149.363C245.74 142.756 253.596 125.508 248.214 109.444Z" fill="#4A5EC9"/>
<path fill-rule="evenodd" clip-rule="evenodd" d="M287.805 238.097L288.022 240.253L284.099 242.938L281.813 241.046L283.666 238.625L287.589 235.94L287.805 238.097Z" fill="#33435A"/>
<path fill-rule="evenodd" clip-rule="evenodd" d="M287.772 172.173L288.43 178.722L282.529 201.215L287.952 237.374L283.933 238.753L273.374 203.446L271.702 193.176L271.785 171.438L287.772 172.173Z" fill="#002D51"/>
<path fill-rule="evenodd" clip-rule="evenodd" d="M256.865 179.441L265.256 240.03L269.097 240.034L269.826 201.203L276.845 173.953L256.865 179.441Z" fill="#002D51"/>
<path fill-rule="evenodd" clip-rule="evenodd" d="M269.075 240.66L269.073 241.731L267.656 243.903L262.842 241.725L264.921 239.551L269.075 239.555V240.66Z" fill="#33435A"/>
<path fill-rule="evenodd" clip-rule="evenodd" d="M266.473 135.144C269.373 132.75 276.356 134.134 280.031 134.138C280.789 142.197 282.259 150.246 284.06 158.13C285.617 164.942 288.59 171.585 289.909 178.388C291.087 184.455 293.66 188.818 298.503 192.978C299.257 193.626 300.127 194.468 299.901 195.436C299.764 196.02 299.256 196.434 298.761 196.773C293.871 200.118 287.588 200.461 281.663 200.555C277.164 200.626 272.664 200.619 268.166 200.533C262.304 200.422 255.784 199.727 250.79 196.333C250.475 196.119 250.138 195.843 250.115 195.462C250.095 195.136 250.313 194.851 250.505 194.586C254.001 189.769 253.605 181.797 254.29 176.154C255.065 169.786 255.842 163.399 257.37 157.168C258.36 153.126 259.666 149.162 261.269 145.321C262.489 142.397 263.946 137.607 266.235 135.358C266.311 135.283 266.39 135.212 266.473 135.144Z" fill="#9AAAED"/>
<path fill-rule="evenodd" clip-rule="evenodd" d="M263.198 108.904C261.536 106.108 259.088 103.947 256.119 102.653C254.109 101.778 252.017 101.563 249.992 101.355L244.102 100.749C241.365 100.468 238.905 100.739 236.581 101.577C233.619 102.646 230.913 104.845 229.159 107.608C227.887 109.611 227.114 111.874 226.861 114.332L223.659 145.443L228.339 145.924L231.557 114.659C231.682 113.437 231.903 112.616 232.431 111.407C232.84 110.468 233.742 109.152 234.484 108.411C235.472 107.424 236.364 106.807 237.663 106.212C238.848 105.669 239.996 105.397 241.503 105.301C241.567 105.297 241.77 105.29 242.277 105.309C242.489 105.317 242.716 105.334 242.992 105.362L251.238 106.21C252.485 106.338 253.315 106.559 254.526 107.087C255.465 107.496 256.781 108.397 257.523 109.138C258.511 110.126 259.128 111.017 259.723 112.316C260.266 113.5 260.538 114.647 260.634 116.154C260.638 116.217 260.646 116.42 260.627 116.927C260.619 117.138 260.602 117.363 260.574 117.634L257.356 148.907L262.036 149.388L265.254 118.123C265.585 114.909 264.874 111.721 263.198 108.904Z" fill="#FDC51C"/>
<path fill-rule="evenodd" clip-rule="evenodd" d="M242.808 157.562L241.967 165.73C241.905 166.337 241.147 166.755 240.274 166.666L240.242 166.663C239.369 166.573 238.713 166.008 238.775 165.401L239.616 157.234C236.987 156.25 235.246 153.589 235.546 150.668C235.904 147.195 239.01 144.67 242.485 145.027C245.96 145.384 248.487 148.489 248.13 151.961C247.829 154.883 245.582 157.133 242.808 157.562ZM219.513 133.2L216.022 167.122C215.55 171.71 218.889 175.812 223.48 176.284L254.726 179.496C259.317 179.968 263.422 176.631 263.894 172.043L267.385 138.121L219.513 133.2Z" fill="#FDC51C"/>
<path fill-rule="evenodd" clip-rule="evenodd" d="M222.091 175.946C222.538 176.07 223.002 176.161 223.48 176.21L254.726 179.422C259.317 179.894 263.421 176.557 263.893 171.969L265.48 156.557C260.233 180.536 222.264 175.941 222.091 175.946Z" fill="#ECB817"/>
<path fill-rule="evenodd" clip-rule="evenodd" d="M129.714 133.773L131.015 130.308L132.823 128.955L133.425 129.407L132.822 130.761L135.383 128.657L136.587 129.862L135.077 133.773L131.927 135.811L129.714 133.773Z" fill="#F6C5B0"/>
<path fill-rule="evenodd" clip-rule="evenodd" d="M93.122 140.42L118.177 146.224L128.845 132.92L133.206 136.89L122.205 154.458L92.7125 153.309L90.5366 146.367L93.122 140.42Z" fill="#FFC71B"/>
<path fill-rule="evenodd" clip-rule="evenodd" d="M281.428 136.89L263.359 149.313L252.254 142.361L249.869 145.928L262.954 157.442L281.019 148.536L281.428 136.89Z" fill="#9AAAED"/>
<path fill-rule="evenodd" clip-rule="evenodd" d="M275.057 125.052C272.695 125.393 270.81 126.366 270.268 128.688C269.163 127.372 268.748 125.508 269.188 123.847C269.627 122.186 270.911 120.772 272.522 120.173C273.845 121.1 274.778 122.565 275.058 124.155L275.057 125.052Z" fill="#33435A"/>
<path fill-rule="evenodd" clip-rule="evenodd" d="M272.499 135.855C270.762 135.036 269.659 133.198 269.343 131.304C269.028 129.411 269.404 127.466 269.992 125.639C271.946 119.558 279.597 121.6 281.203 126.92C282.604 131.556 277.55 138.236 272.499 135.855Z" fill="#F6C5B0"/>
<path fill-rule="evenodd" clip-rule="evenodd" d="M274.584 178.361C273.48 177.521 273.609 175.869 273.325 174.512C273.041 173.154 271.33 171.803 270.426 172.855C268.507 172.064 267.5 169.843 267.509 167.768C267.517 165.694 268.336 163.72 269.141 161.808C270.926 157.572 272.596 153.264 274.503 149.081C276.306 145.128 277.024 140.776 277.753 136.566C278.118 134.456 277.62 132.271 276.734 130.321C275.848 128.372 274.59 126.619 273.354 124.87C272.84 124.142 272.311 123.367 272.237 122.479C272.154 121.498 272.662 120.536 273.387 119.868C274.501 118.839 275.725 118.411 277.196 118.558C282.36 119.074 285.853 122.599 286.689 127.805C287.396 132.207 286.253 136.663 285.428 141.045C284.188 147.633 284.597 155.478 287.813 161.434C289.124 163.861 290.58 166.314 290.895 169.054C291.211 171.793 290.01 174.939 287.421 175.893C286.409 176.266 285.26 176.286 284.348 176.861C283.391 177.465 283.173 178.679 283.863 179.538C282.496 181.354 281.422 179.774 280.047 179.224C278.37 178.553 275.997 179.437 274.584 178.361Z" fill="#33435A"/>
<path fill-rule="evenodd" clip-rule="evenodd" d="M251.719 143.161L250.866 140.971L246.898 140.174L246.302 141.76L249.077 144.142L250.725 144.648L251.719 143.161Z" fill="#F6C5B0"/>
</svg>
