<svg width="41" height="41" viewBox="0 0 41 41" fill="none" xmlns="http://www.w3.org/2000/svg">
<path fill-rule="evenodd" clip-rule="evenodd" d="M5.55423 14.5733L5.82717 12.1511C4.2536 11.9738 3.09265 10.6371 3.09265 8.97696V6.0648C3.09265 5.19475 3.39251 4.44836 3.90516 3.91366V9.12499H6.34266V6.28124H7.98633L5.63934 30.588H9.50508L8.86235 40.4539L35.6456 40.4188L33.3136 6.28124H34.7802V9.12499H37.2177V3.92174C37.7299 4.45654 38.0302 5.20043 38.0302 6.0648V8.97696C38.0302 10.6727 36.8633 12.0099 35.2735 12.1576L35.4991 14.5846C38.3655 14.3183 40.4677 11.9093 40.4677 8.97696V6.0648C40.4677 2.95241 38.1217 0.59375 35.013 0.59375H6.0937C2.98684 0.59375 0.655151 2.95069 0.655151 6.0648V8.97696C0.655151 11.863 2.73287 14.2553 5.55423 14.5733ZM37.1399 3.84374C36.6083 3.33136 35.8702 3.03125 35.013 3.03125H6.0937C5.23786 3.03125 4.50298 3.33092 3.97464 3.84374H37.1399ZM8.32354 28.1505L10.4352 6.28124H11.0886L9.66387 28.1505H8.32354ZM30.8704 6.28124H13.5312L11.8495 32.0957C14.9737 32.6193 17.5812 35.0139 18.1335 38.0043L26.3673 37.9935C26.9107 35.0024 29.5102 32.6015 32.632 32.0684L30.8704 6.28124ZM11.464 38.013L11.6899 34.5461C13.561 34.9484 15.1196 36.3236 15.6284 38.0076L11.464 38.013ZM32.7994 34.5182C30.9297 34.9262 29.3756 36.3054 28.8722 37.9902L33.0362 37.9848L32.7994 34.5182ZM25.1663 22.3184L27.0049 23.9187C27.72 23.0971 28.2908 21.9876 28.5586 20.9319H29.4586V18.4944H28.5615C28.0901 16.7728 26.6445 15.4903 24.8789 15.4903C23.1376 15.4903 22.0845 16.5952 21.3723 18.4944H18.6018C18.7129 18.3452 18.8441 18.2194 18.9905 18.1237L17.6561 16.0838C16.8192 16.6313 16.2157 17.4962 15.9428 18.4944H15.0455V20.9319H15.9429C16.4141 22.6537 17.8598 23.9364 19.6256 23.9364C21.3772 23.9364 22.3709 22.8937 23.1206 20.9319H25.9974C25.7949 21.4284 25.5012 21.9336 25.1663 22.3184ZM25.9036 18.4944H24.0689C24.3237 18.1044 24.5921 17.9278 24.8789 17.9278C25.2693 17.9278 25.6405 18.1419 25.9036 18.4944ZM18.6006 20.9319H20.4321C20.1781 21.3323 19.9186 21.4989 19.6256 21.4989C19.235 21.4989 18.8637 21.2847 18.6006 20.9319Z" fill="black"/>
<mask id="mask0" mask-type="alpha" maskUnits="userSpaceOnUse" x="0" y="0" width="41" height="41">
<path fill-rule="evenodd" clip-rule="evenodd" d="M5.55423 14.5733L5.82717 12.1511C4.2536 11.9738 3.09265 10.6371 3.09265 8.97696V6.0648C3.09265 5.19475 3.39251 4.44836 3.90516 3.91366V9.12499H6.34266V6.28124H7.98633L5.63934 30.588H9.50508L8.86235 40.4539L35.6456 40.4188L33.3136 6.28124H34.7802V9.12499H37.2177V3.92174C37.7299 4.45654 38.0302 5.20043 38.0302 6.0648V8.97696C38.0302 10.6727 36.8633 12.0099 35.2735 12.1576L35.4991 14.5846C38.3655 14.3183 40.4677 11.9093 40.4677 8.97696V6.0648C40.4677 2.95241 38.1217 0.59375 35.013 0.59375H6.0937C2.98684 0.59375 0.655151 2.95069 0.655151 6.0648V8.97696C0.655151 11.863 2.73287 14.2553 5.55423 14.5733ZM37.1399 3.84374C36.6083 3.33136 35.8702 3.03125 35.013 3.03125H6.0937C5.23786 3.03125 4.50298 3.33092 3.97464 3.84374H37.1399ZM8.32354 28.1505L10.4352 6.28124H11.0886L9.66387 28.1505H8.32354ZM30.8704 6.28124H13.5312L11.8495 32.0957C14.9737 32.6193 17.5812 35.0139 18.1335 38.0043L26.3673 37.9935C26.9107 35.0024 29.5102 32.6015 32.632 32.0684L30.8704 6.28124ZM11.464 38.013L11.6899 34.5461C13.561 34.9484 15.1196 36.3236 15.6284 38.0076L11.464 38.013ZM32.7994 34.5182C30.9297 34.9262 29.3756 36.3054 28.8722 37.9902L33.0362 37.9848L32.7994 34.5182ZM25.1663 22.3184L27.0049 23.9187C27.72 23.0971 28.2908 21.9876 28.5586 20.9319H29.4586V18.4944H28.5615C28.0901 16.7728 26.6445 15.4903 24.8789 15.4903C23.1376 15.4903 22.0845 16.5952 21.3723 18.4944H18.6018C18.7129 18.3452 18.8441 18.2194 18.9905 18.1237L17.6561 16.0838C16.8192 16.6313 16.2157 17.4962 15.9428 18.4944H15.0455V20.9319H15.9429C16.4141 22.6537 17.8598 23.9364 19.6256 23.9364C21.3772 23.9364 22.3709 22.8937 23.1206 20.9319H25.9974C25.7949 21.4284 25.5012 21.9336 25.1663 22.3184ZM25.9036 18.4944H24.0689C24.3237 18.1044 24.5921 17.9278 24.8789 17.9278C25.2693 17.9278 25.6405 18.1419 25.9036 18.4944ZM18.6006 20.9319H20.4321C20.1781 21.3323 19.9186 21.4989 19.6256 21.4989C19.235 21.4989 18.8637 21.2847 18.6006 20.9319Z" fill="white"/>
</mask>
<g mask="url(#mask0)">
<rect x="-58.7188" y="-58.7188" width="158.438" height="158.438" fill="#D1D1D1"/>
</g>
</svg>
