<svg width="27" height="27" viewBox="0 0 27 27" fill="none" xmlns="http://www.w3.org/2000/svg">
<path fill-rule="evenodd" clip-rule="evenodd" d="M26.5763 7.29356L13.5 0.319519L0.423645 7.29356V11.4124H26.5763V7.29356ZM1.98615 8.23105L13.5 2.09034L25.0138 8.23105V9.8499H1.98615V8.23105ZM2.88267 21.3253V12.3089H4.44517V21.3253H2.88267ZM24.1173 21.3253H26.5763V26.1665H0.423645V21.3253H2.88267V22.8878L1.98615 22.8878V24.604H25.0138V22.8878L24.1173 22.8878V21.3253ZM22.5548 21.3253V12.3089H24.1173V21.3253H22.5548ZM17.5599 21.3253H22.5548V22.8878H17.5599V21.3253ZM15.9974 21.3253V12.3089H17.5599V21.3253H15.9974ZM11.0025 21.3253H15.9974V22.8878H11.0025V21.3253ZM11.0025 21.3253H9.44004V12.3089H11.0025V21.3253ZM9.44004 21.3253V22.8878H4.44517V21.3253H9.44004ZM13.5 8.95341C12.1631 8.95341 11.0794 7.86967 11.0794 6.53281C11.0794 5.19595 12.1631 4.11222 13.5 4.11222C14.8368 4.11222 15.9206 5.19595 15.9206 6.53281C15.9206 7.86967 14.8368 8.95341 13.5 8.95341ZM14.3581 6.53281C14.3581 7.00672 13.9739 7.39091 13.5 7.39091C13.0261 7.39091 12.6419 7.00672 12.6419 6.53281C12.6419 6.0589 13.0261 5.67472 13.5 5.67472C13.9739 5.67472 14.3581 6.0589 14.3581 6.53281Z" fill="#BFBFBF"/>
<mask id="mask0" mask-type="alpha" maskUnits="userSpaceOnUse" x="0" y="0" width="27" height="27">
<path fill-rule="evenodd" clip-rule="evenodd" d="M26.5763 7.29356L13.5 0.319519L0.423645 7.29356V11.4124H26.5763V7.29356ZM1.98615 8.23105L13.5 2.09034L25.0138 8.23105V9.8499H1.98615V8.23105ZM2.88267 21.3253V12.3089H4.44517V21.3253H2.88267ZM24.1173 21.3253H26.5763V26.1665H0.423645V21.3253H2.88267V22.8878L1.98615 22.8878V24.604H25.0138V22.8878L24.1173 22.8878V21.3253ZM22.5548 21.3253V12.3089H24.1173V21.3253H22.5548ZM17.5599 21.3253H22.5548V22.8878H17.5599V21.3253ZM15.9974 21.3253V12.3089H17.5599V21.3253H15.9974ZM11.0025 21.3253H15.9974V22.8878H11.0025V21.3253ZM11.0025 21.3253H9.44004V12.3089H11.0025V21.3253ZM9.44004 21.3253V22.8878H4.44517V21.3253H9.44004ZM13.5 8.95341C12.1631 8.95341 11.0794 7.86967 11.0794 6.53281C11.0794 5.19595 12.1631 4.11222 13.5 4.11222C14.8368 4.11222 15.9206 5.19595 15.9206 6.53281C15.9206 7.86967 14.8368 8.95341 13.5 8.95341ZM14.3581 6.53281C14.3581 7.00672 13.9739 7.39091 13.5 7.39091C13.0261 7.39091 12.6419 7.00672 12.6419 6.53281C12.6419 6.0589 13.0261 5.67472 13.5 5.67472C13.9739 5.67472 14.3581 6.0589 14.3581 6.53281Z" fill="white"/>
</mask>
<g mask="url(#mask0)">
<rect x="-34.9375" y="-36.5" width="101.562" height="101.562" fill="#D1D1D1"/>
</g>
</svg>
