<svg width="39" height="42" viewBox="0 0 39 42" fill="none" xmlns="http://www.w3.org/2000/svg">
<path fill-rule="evenodd" clip-rule="evenodd" d="M3.70508 35.7663V2.68242C3.70508 1.27181 4.84226 0.0976562 6.25865 0.0976562H26.9671C27.6737 0.0976562 28.0613 0.32692 28.5891 0.847225L34.2057 6.38975C34.7021 6.87947 34.9685 7.40414 34.9685 8.09901V36.1132C34.9685 36.4263 34.848 36.7273 34.6321 36.954L30.6681 41.1139C30.1849 41.621 29.3748 41.6174 28.8961 41.106L24.5519 36.4653L20.2082 41.106C19.7266 41.6205 18.9103 41.6205 18.4286 41.106L14.0845 36.4654L9.89661 40.94C9.41501 41.4545 8.59863 41.4546 8.11701 40.94L4.17288 36.7263C3.88809 36.5032 3.70508 36.1561 3.70508 35.7663ZM28.1859 3.87311V6.88026H31.2359C30.3222 5.97976 29.1026 4.77713 28.1859 3.87311ZM32.531 9.31776H25.7484V2.57314C21.4377 2.55383 6.25865 2.53517 6.25865 2.53517C6.20621 2.53517 6.14258 2.60088 6.14258 2.68244V35.2637L9.00675 38.3237L13.1946 33.8491C13.6762 33.3346 14.4925 33.3345 14.9742 33.8491L19.3183 38.4898L23.6621 33.8491C24.1437 33.3346 24.96 33.3346 25.4416 33.8491L29.7937 38.4982L32.531 35.6256V9.31776ZM27.8777 28.9237C28.5508 28.9237 29.0965 29.4694 29.0965 30.1425C29.0965 30.8156 28.5508 31.3612 27.8777 31.3612H10.8505C10.1774 31.3612 9.63173 30.8156 9.63173 30.1425C9.63173 29.4694 10.1774 28.9237 10.8505 28.9237H27.8777ZM29.0965 25.0555C29.0965 24.3824 28.5508 23.8368 27.8777 23.8368H10.8505C10.1774 23.8368 9.63173 24.3824 9.63173 25.0555C9.63173 25.7286 10.1774 26.2743 10.8505 26.2743H27.8777C28.5508 26.2743 29.0965 25.7286 29.0965 25.0555ZM27.8777 18.7498C28.5508 18.7498 29.0965 19.2955 29.0965 19.9686C29.0965 20.6417 28.5508 21.1873 27.8777 21.1873H10.8505C10.1774 21.1873 9.63173 20.6417 9.63173 19.9686C9.63173 19.2955 10.1774 18.7498 10.8505 18.7498H27.8777ZM21.5288 14.8816C21.5288 14.2085 20.9831 13.6629 20.31 13.6629H10.8505C10.1774 13.6629 9.63173 14.2085 9.63173 14.8816C9.63173 15.5547 10.1774 16.1004 10.8505 16.1004H20.31C20.9831 16.1004 21.5288 15.5547 21.5288 14.8816Z" fill="black"/>
<mask id="mask0" mask-type="alpha" maskUnits="userSpaceOnUse" x="3" y="0" width="32" height="42">
<path fill-rule="evenodd" clip-rule="evenodd" d="M3.70508 35.7663V2.68242C3.70508 1.27181 4.84226 0.0976562 6.25865 0.0976562H26.9671C27.6737 0.0976562 28.0613 0.32692 28.5891 0.847225L34.2057 6.38975C34.7021 6.87947 34.9685 7.40414 34.9685 8.09901V36.1132C34.9685 36.4263 34.848 36.7273 34.6321 36.954L30.6681 41.1139C30.1849 41.621 29.3748 41.6174 28.8961 41.106L24.5519 36.4653L20.2082 41.106C19.7266 41.6205 18.9103 41.6205 18.4286 41.106L14.0845 36.4654L9.89661 40.94C9.41501 41.4545 8.59863 41.4546 8.11701 40.94L4.17288 36.7263C3.88809 36.5032 3.70508 36.1561 3.70508 35.7663ZM28.1859 3.87311V6.88026H31.2359C30.3222 5.97976 29.1026 4.77713 28.1859 3.87311ZM32.531 9.31776H25.7484V2.57314C21.4377 2.55383 6.25865 2.53517 6.25865 2.53517C6.20621 2.53517 6.14258 2.60088 6.14258 2.68244V35.2637L9.00675 38.3237L13.1946 33.8491C13.6762 33.3346 14.4925 33.3345 14.9742 33.8491L19.3183 38.4898L23.6621 33.8491C24.1437 33.3346 24.96 33.3346 25.4416 33.8491L29.7937 38.4982L32.531 35.6256V9.31776ZM27.8777 28.9237C28.5508 28.9237 29.0965 29.4694 29.0965 30.1425C29.0965 30.8156 28.5508 31.3612 27.8777 31.3612H10.8505C10.1774 31.3612 9.63173 30.8156 9.63173 30.1425C9.63173 29.4694 10.1774 28.9237 10.8505 28.9237H27.8777ZM29.0965 25.0555C29.0965 24.3824 28.5508 23.8368 27.8777 23.8368H10.8505C10.1774 23.8368 9.63173 24.3824 9.63173 25.0555C9.63173 25.7286 10.1774 26.2743 10.8505 26.2743H27.8777C28.5508 26.2743 29.0965 25.7286 29.0965 25.0555ZM27.8777 18.7498C28.5508 18.7498 29.0965 19.2955 29.0965 19.9686C29.0965 20.6417 28.5508 21.1873 27.8777 21.1873H10.8505C10.1774 21.1873 9.63173 20.6417 9.63173 19.9686C9.63173 19.2955 10.1774 18.7498 10.8505 18.7498H27.8777ZM21.5288 14.8816C21.5288 14.2085 20.9831 13.6629 20.31 13.6629H10.8505C10.1774 13.6629 9.63173 14.2085 9.63173 14.8816C9.63173 15.5547 10.1774 16.1004 10.8505 16.1004H20.31C20.9831 16.1004 21.5288 15.5547 21.5288 14.8816Z" fill="white"/>
</mask>
<g mask="url(#mask0)">
<rect x="-63.375" y="-57.2001" width="158.438" height="158.438" fill="#D1D1D1"/>
</g>
</svg>
