<svg width="40" height="40" viewBox="0 0 40 40" fill="none" xmlns="http://www.w3.org/2000/svg">
<path fill-rule="evenodd" clip-rule="evenodd" d="M30.1208 16.2469C33.631 12.7367 33.6298 7.04317 30.1189 3.53229C26.6083 0.0216271 20.9179 0.0216271 17.4073 3.53229C13.8953 7.04427 13.8947 12.7362 17.4057 16.2472C20.9169 19.7584 26.6106 19.759 30.1208 16.2469ZM13.5138 24.602H33.535C34.2298 24.602 34.7931 25.1653 34.7931 25.8601C34.7931 26.5549 34.2298 27.1182 33.535 27.1182H12.4994C11.9074 27.1182 11.3954 26.7054 11.2699 26.1268L10.2275 21.3216C10.2236 21.3053 10.2201 21.289 10.2168 21.2725L7.29331 7.7959H2.02424C1.32943 7.7959 0.766174 7.23265 0.766174 6.53784C0.766174 5.84303 1.32943 5.27977 2.02424 5.27977H8.30772C8.89975 5.27977 9.41167 5.69255 9.53718 6.27112L10.3655 10.0895H12.9485C13.6433 10.0895 14.2066 10.6527 14.2066 11.3475C14.2066 12.0424 13.6433 12.6056 12.9485 12.6056H10.9114L11.4178 14.9401H14.9516C15.6464 14.9401 16.2097 15.5033 16.2097 16.1982C16.2097 16.893 15.6464 17.4562 14.9516 17.4562H11.9636L12.4658 19.7711H35.0346C35.7294 19.7711 36.2926 20.3343 36.2926 21.0291C36.2926 21.7239 35.7294 22.2872 35.0346 22.2872H13.0116L13.5138 24.602ZM38.0389 10.0895C38.7337 10.0895 39.297 10.6527 39.297 11.3475C39.297 12.0424 38.7337 12.6056 38.0389 12.6056H34.5784C33.8835 12.6056 33.3203 12.0424 33.3203 11.3475C33.3203 10.6527 33.8835 10.0895 34.5784 10.0895H38.0389ZM31.3712 16.1982C31.3712 16.893 31.9344 17.4562 32.6292 17.4562H36.5343C37.2291 17.4562 37.7923 16.893 37.7923 16.1982C37.7923 15.5033 37.2291 14.9401 36.5343 14.9401H32.6292C31.9344 14.9401 31.3712 15.5033 31.3712 16.1982ZM18.5126 35.4402C18.5126 33.0021 16.5297 31.0275 14.087 31.0275C11.6419 31.0275 9.65983 33.0013 9.65983 35.4402C9.65983 37.8803 11.6415 39.8529 14.087 39.8529C16.5301 39.8529 18.5126 37.8795 18.5126 35.4402ZM14.087 33.5437C13.0292 33.5437 12.176 34.3933 12.176 35.4402C12.176 36.4881 13.0285 37.3368 14.087 37.3368C15.1431 37.3368 15.9964 36.4873 15.9964 35.4402C15.9964 34.3941 15.1424 33.5437 14.087 33.5437ZM34.6174 35.4402C34.6174 33.0021 32.6345 31.0275 30.1918 31.0275C27.7466 31.0275 25.7631 33.0014 25.7631 35.4402C25.7631 37.8802 27.7462 39.8529 30.1918 39.8529C32.635 39.8529 34.6174 37.8795 34.6174 35.4402ZM30.1918 33.5437C29.1335 33.5437 28.2792 34.3938 28.2792 35.4402C28.2792 36.4876 29.1328 37.3368 30.1918 37.3368C31.2479 37.3368 32.1013 36.4873 32.1013 35.4402C32.1013 34.3941 31.2473 33.5437 30.1918 33.5437ZM28.3398 5.31147C25.8117 2.78342 21.7145 2.78342 19.1865 5.31147C16.657 7.84092 16.6566 11.9397 19.1848 14.468C21.7135 16.9966 25.8137 16.997 28.3414 14.468C30.869 11.9403 30.8682 7.83991 28.3398 5.31147ZM28.1804 7.35927C27.7258 6.83377 26.9313 6.77624 26.4058 7.23078L22.1925 10.8752L21.1725 9.94956C20.6579 9.48263 19.8623 9.52121 19.3954 10.0357C18.9284 10.5503 18.967 11.3459 19.4815 11.8128L21.327 13.4876C21.7981 13.9151 22.5143 13.9236 22.9955 13.5074L28.0519 9.13379C28.5774 8.67925 28.6349 7.88477 28.1804 7.35927Z" fill="black"/>
<mask id="mask0" mask-type="alpha" maskUnits="userSpaceOnUse" x="0" y="0" width="40" height="40">
<path fill-rule="evenodd" clip-rule="evenodd" d="M30.1208 16.2469C33.631 12.7367 33.6298 7.04317 30.1189 3.53229C26.6083 0.0216271 20.9179 0.0216271 17.4073 3.53229C13.8953 7.04427 13.8947 12.7362 17.4057 16.2472C20.9169 19.7584 26.6106 19.759 30.1208 16.2469ZM13.5138 24.602H33.535C34.2298 24.602 34.7931 25.1653 34.7931 25.8601C34.7931 26.5549 34.2298 27.1182 33.535 27.1182H12.4994C11.9074 27.1182 11.3954 26.7054 11.2699 26.1268L10.2275 21.3216C10.2236 21.3053 10.2201 21.289 10.2168 21.2725L7.29331 7.7959H2.02424C1.32943 7.7959 0.766174 7.23265 0.766174 6.53784C0.766174 5.84303 1.32943 5.27977 2.02424 5.27977H8.30772C8.89975 5.27977 9.41167 5.69255 9.53718 6.27112L10.3655 10.0895H12.9485C13.6433 10.0895 14.2066 10.6527 14.2066 11.3475C14.2066 12.0424 13.6433 12.6056 12.9485 12.6056H10.9114L11.4178 14.9401H14.9516C15.6464 14.9401 16.2097 15.5033 16.2097 16.1982C16.2097 16.893 15.6464 17.4562 14.9516 17.4562H11.9636L12.4658 19.7711H35.0346C35.7294 19.7711 36.2926 20.3343 36.2926 21.0291C36.2926 21.7239 35.7294 22.2872 35.0346 22.2872H13.0116L13.5138 24.602ZM38.0389 10.0895C38.7337 10.0895 39.297 10.6527 39.297 11.3475C39.297 12.0424 38.7337 12.6056 38.0389 12.6056H34.5784C33.8835 12.6056 33.3203 12.0424 33.3203 11.3475C33.3203 10.6527 33.8835 10.0895 34.5784 10.0895H38.0389ZM31.3712 16.1982C31.3712 16.893 31.9344 17.4562 32.6292 17.4562H36.5343C37.2291 17.4562 37.7923 16.893 37.7923 16.1982C37.7923 15.5033 37.2291 14.9401 36.5343 14.9401H32.6292C31.9344 14.9401 31.3712 15.5033 31.3712 16.1982ZM18.5126 35.4402C18.5126 33.0021 16.5297 31.0275 14.087 31.0275C11.6419 31.0275 9.65983 33.0013 9.65983 35.4402C9.65983 37.8803 11.6415 39.8529 14.087 39.8529C16.5301 39.8529 18.5126 37.8795 18.5126 35.4402ZM14.087 33.5437C13.0292 33.5437 12.176 34.3933 12.176 35.4402C12.176 36.4881 13.0285 37.3368 14.087 37.3368C15.1431 37.3368 15.9964 36.4873 15.9964 35.4402C15.9964 34.3941 15.1424 33.5437 14.087 33.5437ZM34.6174 35.4402C34.6174 33.0021 32.6345 31.0275 30.1918 31.0275C27.7466 31.0275 25.7631 33.0014 25.7631 35.4402C25.7631 37.8802 27.7462 39.8529 30.1918 39.8529C32.635 39.8529 34.6174 37.8795 34.6174 35.4402ZM30.1918 33.5437C29.1335 33.5437 28.2792 34.3938 28.2792 35.4402C28.2792 36.4876 29.1328 37.3368 30.1918 37.3368C31.2479 37.3368 32.1013 36.4873 32.1013 35.4402C32.1013 34.3941 31.2473 33.5437 30.1918 33.5437ZM28.3398 5.31147C25.8117 2.78342 21.7145 2.78342 19.1865 5.31147C16.657 7.84092 16.6566 11.9397 19.1848 14.468C21.7135 16.9966 25.8137 16.997 28.3414 14.468C30.869 11.9403 30.8682 7.83991 28.3398 5.31147ZM28.1804 7.35927C27.7258 6.83377 26.9313 6.77624 26.4058 7.23078L22.1925 10.8752L21.1725 9.94956C20.6579 9.48263 19.8623 9.52121 19.3954 10.0357C18.9284 10.5503 18.967 11.3459 19.4815 11.8128L21.327 13.4876C21.7981 13.9151 22.5143 13.9236 22.9955 13.5074L28.0519 9.13379C28.5774 8.67925 28.6349 7.88477 28.1804 7.35927Z" fill="white"/>
</mask>
<g mask="url(#mask0)">
<rect width="158.438" height="158.438" transform="matrix(-1 0 0 1 98.7188 -58.7188)" fill="#D1D1D1"/>
</g>
</svg>
