<svg width="25" height="27" viewBox="0 0 25 27" fill="none" xmlns="http://www.w3.org/2000/svg">
<path fill-rule="evenodd" clip-rule="evenodd" d="M23.6978 24.9087C23.6978 25.8394 22.9719 26.5943 22.0758 26.5943H5.00741C4.11145 26.5943 3.38543 25.8394 3.38543 24.9087V23.3483H2.06763V21.7255H3.38543V20.1023H2.06763V18.4795H3.38543V16.8564H2.06763V15.2336H3.38543V13.6104H2.06763V11.9876H3.38543V10.3644H2.06763V8.74162H3.38543V7.11846H2.06763V5.49564H3.38543V3.87252H2.06763V2.2497H3.38543V1.77377C3.38543 0.843072 4.1115 0.0881958 5.00752 0.0881958H22.076C22.9719 0.0881958 23.6979 0.843018 23.6979 1.77377L23.6978 24.9087ZM4.94793 3.87252H5.29586V2.2497H4.94793V1.77377C4.94793 1.73896 4.97481 1.71102 5.00752 1.71102H22.076C22.1074 1.71102 22.1335 1.73692 22.1353 1.77001V24.9087C22.1353 24.9436 22.1085 24.9714 22.0758 24.9714H5.00741C4.97476 24.9714 4.94793 24.9436 4.94793 24.9087V23.3483H5.29586V21.7255H4.94793V20.1023H5.29586V18.4795H4.94793V16.8564H5.29586V15.2336H4.94793V13.6104H5.29586V11.9876H4.94793V10.3644H5.29586V8.74162H4.94793V7.11846H5.29586V5.49564H4.94793V3.87252ZM20.6009 17.386V18.8892C20.6009 19.5708 20.0719 20.1285 19.4137 20.1285H8.76534C8.1071 20.1285 7.57815 19.5708 7.57815 18.8892V17.386C7.57815 16.8748 7.87908 16.4147 8.33901 16.2293C9.40289 15.802 10.2738 15.4198 10.9333 15.0797C11.3018 14.8897 11.5915 14.7189 11.7894 14.5748C11.8343 14.5422 11.8728 14.5121 11.9046 14.4852C11.5786 14.0429 11.3191 13.5368 11.1405 12.9738C10.6124 12.419 10.4917 11.5551 10.8603 10.8602V9.75664C10.8603 7.84132 12.0764 6.60534 14.0898 6.60534C16.1338 6.60534 17.3184 7.82657 17.3184 9.75664V10.8595C17.688 11.5552 17.5669 12.4198 17.0381 12.9745C16.8595 13.5371 16.6002 14.0429 16.2745 14.4596C16.3064 14.5123 16.345 14.5425 16.39 14.5752C16.588 14.7193 16.8776 14.8901 17.246 15.0801C17.9056 15.4202 18.7766 15.8024 19.8398 16.2291C20.3 16.4136 20.6015 16.8752 20.6009 17.386ZM11.9711 14.424L11.977 14.4179L11.9754 14.4204L11.9711 14.424ZM14.712 14.8769L14.7475 14.995C15.0042 15.8493 16.3115 16.5436 19.0384 17.6469V18.5057H9.14065V17.6469C11.8698 16.5421 13.1755 15.8488 13.4317 14.9945L13.4671 14.8767V13.8213L13.2444 13.5848C12.955 13.2775 12.7182 12.8294 12.5747 12.2958L12.4997 12.0172L12.2719 11.8506C12.2028 11.8001 12.1874 11.6916 12.2479 11.6143L12.4228 11.3907V9.75664C12.4228 8.74554 12.9319 8.22816 14.0898 8.22816C15.2734 8.22816 15.7559 8.72553 15.7559 9.75664V11.3905L15.931 11.6141C15.9919 11.6919 15.9765 11.8 15.9075 11.8503L15.6792 12.0169L15.6041 12.296C15.4605 12.8296 15.2237 13.2777 14.9345 13.5849L14.712 13.8214V14.8769Z" fill="black"/>
<mask id="mask0" mask-type="alpha" maskUnits="userSpaceOnUse" x="2" y="0" width="22" height="27">
<path fill-rule="evenodd" clip-rule="evenodd" d="M23.6978 24.9087C23.6978 25.8394 22.9719 26.5943 22.0758 26.5943H5.00741C4.11145 26.5943 3.38543 25.8394 3.38543 24.9087V23.3483H2.06763V21.7255H3.38543V20.1023H2.06763V18.4795H3.38543V16.8564H2.06763V15.2336H3.38543V13.6104H2.06763V11.9876H3.38543V10.3644H2.06763V8.74162H3.38543V7.11846H2.06763V5.49564H3.38543V3.87252H2.06763V2.2497H3.38543V1.77377C3.38543 0.843072 4.1115 0.0881958 5.00752 0.0881958H22.076C22.9719 0.0881958 23.6979 0.843018 23.6979 1.77377L23.6978 24.9087ZM4.94793 3.87252H5.29586V2.2497H4.94793V1.77377C4.94793 1.73896 4.97481 1.71102 5.00752 1.71102H22.076C22.1074 1.71102 22.1335 1.73692 22.1353 1.77001V24.9087C22.1353 24.9436 22.1085 24.9714 22.0758 24.9714H5.00741C4.97476 24.9714 4.94793 24.9436 4.94793 24.9087V23.3483H5.29586V21.7255H4.94793V20.1023H5.29586V18.4795H4.94793V16.8564H5.29586V15.2336H4.94793V13.6104H5.29586V11.9876H4.94793V10.3644H5.29586V8.74162H4.94793V7.11846H5.29586V5.49564H4.94793V3.87252ZM20.6009 17.386V18.8892C20.6009 19.5708 20.0719 20.1285 19.4137 20.1285H8.76534C8.1071 20.1285 7.57815 19.5708 7.57815 18.8892V17.386C7.57815 16.8748 7.87908 16.4147 8.33901 16.2293C9.40289 15.802 10.2738 15.4198 10.9333 15.0797C11.3018 14.8897 11.5915 14.7189 11.7894 14.5748C11.8343 14.5422 11.8728 14.5121 11.9046 14.4852C11.5786 14.0429 11.3191 13.5368 11.1405 12.9738C10.6124 12.419 10.4917 11.5551 10.8603 10.8602V9.75664C10.8603 7.84132 12.0764 6.60534 14.0898 6.60534C16.1338 6.60534 17.3184 7.82657 17.3184 9.75664V10.8595C17.688 11.5552 17.5669 12.4198 17.0381 12.9745C16.8595 13.5371 16.6002 14.0429 16.2745 14.4596C16.3064 14.5123 16.345 14.5425 16.39 14.5752C16.588 14.7193 16.8776 14.8901 17.246 15.0801C17.9056 15.4202 18.7766 15.8024 19.8398 16.2291C20.3 16.4136 20.6015 16.8752 20.6009 17.386ZM11.9711 14.424L11.977 14.4179L11.9754 14.4204L11.9711 14.424ZM14.712 14.8769L14.7475 14.995C15.0042 15.8493 16.3115 16.5436 19.0384 17.6469V18.5057H9.14065V17.6469C11.8698 16.5421 13.1755 15.8488 13.4317 14.9945L13.4671 14.8767V13.8213L13.2444 13.5848C12.955 13.2775 12.7182 12.8294 12.5747 12.2958L12.4997 12.0172L12.2719 11.8506C12.2028 11.8001 12.1874 11.6916 12.2479 11.6143L12.4228 11.3907V9.75664C12.4228 8.74554 12.9319 8.22816 14.0898 8.22816C15.2734 8.22816 15.7559 8.72553 15.7559 9.75664V11.3905L15.931 11.6141C15.9919 11.6919 15.9765 11.8 15.9075 11.8503L15.6792 12.0169L15.6041 12.296C15.4605 12.8296 15.2237 13.2777 14.9345 13.5849L14.712 13.8214V14.8769Z" fill="white"/>
</mask>
<g mask="url(#mask0)">
<rect x="-38.2812" y="-39.3983" width="101.562" height="105.483" fill="#D1D1D1"/>
</g>
</svg>
