<svg width="69" height="67" viewBox="0 0 69 67" fill="none" xmlns="http://www.w3.org/2000/svg">
<path fill-rule="evenodd" clip-rule="evenodd" d="M51.3935 13.4798C51.3935 20.9236 45.4095 26.9597 38.0299 26.9597C30.6503 26.9597 24.6663 20.9236 24.6663 13.4798C24.6663 6.03608 30.6503 0 38.0299 0C45.4095 0 51.3935 6.03608 51.3935 13.4798ZM38.0299 4.27938C43.0665 4.27938 47.1511 8.39954 47.1511 13.4799C47.1511 18.5603 43.0665 22.6804 38.0299 22.6804C32.9933 22.6804 28.9087 18.5603 28.9087 13.4799C28.9087 8.39954 32.9933 4.27938 38.0299 4.27938ZM27.2285 24.7358C26.4093 25.1715 25.6217 25.6625 24.8716 26.2052C23.5013 24.309 21.3537 22.4389 19.0314 21.0556C17.3012 20.025 15.6601 19.3937 14.266 19.3302C12.0186 19.2278 10.3657 20.6715 10.3657 23.0624C10.3657 23.4069 10.4481 23.7462 10.606 24.0516L13.1918 29.0544C9.57281 30.4549 6.6191 33.2438 5.0793 36.8018L2.93994 37.6613C1.31087 38.1325 0 39.3002 0 41.2667L0.0229234 41.5804C0.151259 42.4537 0.254823 43.2546 0.362298 44.1719C0.354598 44.1061 0.541537 45.7405 0.589359 46.1162C0.957998 49.0128 1.71328 50.2708 4.03373 50.9177L7.62345 51.9028C10.3689 54.927 14.2636 56.6482 18.3104 56.7038L17.5133 61.5299L17.4844 61.8815C17.4844 64.6716 19.7317 66.9368 22.4962 66.9368C22.7267 66.9368 22.9172 66.9391 23.4845 66.9482C28.2718 67.0233 30.667 66.119 30.7144 62.0071L30.78 61.4144C34.4516 62.4017 39.3891 62.3443 43.0716 61.3708L43.1711 62.0576C43.2631 64.7676 45.4723 66.9368 48.1826 66.9368H50.1398C52.9981 66.9368 56.3988 64.7866 56.3988 61.8815L56.3863 61.6501L55.2108 50.7543C56.0793 48.9742 56.6701 47.0612 56.9661 45.0838C57.1638 43.0983 57.1199 41.1923 56.8503 39.382C58.1893 38.6312 59.4194 37.7657 60.4608 36.8184C60.9274 36.8629 61.4091 36.8541 61.9022 36.7905C64.3465 36.4756 66.7442 34.7871 67.8671 32.6936C68.4245 31.6542 68.0411 30.3558 67.0107 29.7935C65.9803 29.2313 64.6931 29.618 64.1357 30.6573C64.0425 30.831 63.9215 31.0033 63.7791 31.1692C63.8482 30.5019 63.8029 29.8266 63.6269 29.1499C62.8822 26.2909 60.3954 24.1793 57.896 24.3134C54.6068 24.4899 53.5089 27.7757 54.89 31.7968C55.2687 32.9001 55.7791 33.8321 56.394 34.5833C56.1752 34.745 55.9482 34.9041 55.7141 35.0595C54.2743 31.3396 51.743 28.1803 48.3086 25.7684C47.3471 25.0932 46.0251 25.332 45.3557 26.3018C44.6863 27.2716 44.9231 28.6051 45.8845 29.2803C49.2478 31.6422 51.4995 34.8377 52.4061 38.6592C52.4111 38.6824 52.4166 38.7056 52.4224 38.7288C52.8429 40.5375 52.963 42.4856 52.758 44.5511C52.5135 46.1664 51.9714 47.8208 51.1648 49.3342C50.9618 49.7151 50.878 50.149 50.9244 50.5789L52.1448 61.8909C52.0199 61.9799 50.9045 62.6575 50.1398 62.6575H48.1826C47.7563 62.6575 47.4105 62.309 47.4105 61.8815L47.3882 61.5723L46.8933 58.1545C46.6824 56.6986 45.1113 55.8868 43.8168 56.5649C40.6547 58.2212 32.9706 58.3267 30.0695 56.5718C28.7446 55.7703 27.0419 56.6206 26.8705 58.1693L26.4858 61.6441L26.4727 61.8815C26.4727 62.6095 26.2091 62.7111 23.4244 62.6674C22.9619 62.66 22.7568 62.6575 22.4962 62.6575C22.1146 62.6575 21.7942 62.3715 21.7362 62.0019L22.9425 54.6987C23.1845 53.2331 21.9084 51.9709 20.4604 52.2439C16.6997 52.9527 12.8318 51.5564 10.4304 48.6406C10.1517 48.3022 9.77644 48.0587 9.35563 47.9433L5.15563 46.7907C5.10894 46.7777 5.07176 46.7714 5.04185 46.7663C5.00317 46.7598 4.97666 46.7553 4.95744 46.741C4.91557 46.7098 4.9084 46.632 4.88562 46.3846C4.86964 46.2111 4.84597 45.9541 4.79725 45.5713C4.75349 45.2275 4.57096 43.6317 4.5754 43.6696C4.4943 42.9774 4.4149 42.3455 4.32598 41.7005L7.49925 40.4358C8.06753 40.2075 8.51044 39.7428 8.7143 39.1611C9.9136 35.7386 12.9742 33.1639 16.6498 32.5069C18.0609 32.2546 18.8231 30.6927 18.1605 29.4108L15.3422 23.9584C15.7997 24.1483 16.322 24.4115 16.8743 24.7405C19.4703 26.2867 21.8245 28.7026 22.1503 30.0383C22.5394 31.6333 24.4913 32.2095 25.6716 31.0779C26.7241 30.0687 27.9151 29.2083 29.2071 28.5212C30.2434 27.9701 30.6405 26.676 30.0942 25.6306C29.5478 24.5853 28.2648 24.1847 27.2285 24.7358ZM39.1862 11.4641C39.471 11.5638 39.7422 11.6709 39.9986 11.7865C39.7108 11.7371 39.4335 11.6283 39.1862 11.4641ZM37.9581 10.5899C38.2573 10.5899 38.4899 10.7115 38.5782 10.8477C38.7423 11.101 38.9507 11.3077 39.1863 11.4641C38.9824 11.3927 38.7715 11.3251 38.554 11.2609C38.1077 11.1189 37.8168 11.0097 37.6305 10.9398C37.3981 10.8526 37.3283 10.8264 37.3222 10.8736C37.3335 10.7791 37.5583 10.5899 37.9581 10.5899ZM37.9581 20.3182C40.5952 20.3182 42.8369 18.3391 42.8369 15.745C42.8369 13.7855 41.7689 12.5842 39.9986 11.7865C40.5072 11.8737 41.0484 11.7751 41.5143 11.4679C42.4949 10.8214 42.7702 9.49536 42.1291 8.50624C41.2415 7.13652 39.6622 6.31059 37.9581 6.31059C35.3218 6.31059 33.0793 8.28881 33.0793 10.8809C33.0793 13.325 34.6306 14.5004 37.3208 15.3552C37.8145 15.5012 38.1278 15.6203 38.3201 15.6934C38.5222 15.7702 38.5907 15.7962 38.5943 15.7493C38.5878 15.8453 38.3625 16.0389 37.9581 16.0389C37.5593 16.0389 36.7203 15.6841 36.2259 15.2498C35.3424 14.4738 34.0025 14.567 33.2332 15.4582C32.4638 16.3493 32.5563 17.7009 33.4398 18.4769C34.6676 19.5555 36.4713 20.3182 37.9581 20.3182ZM37.3217 10.8809C37.3217 10.8782 37.3219 10.8757 37.3222 10.8733C37.3219 10.8761 37.3217 10.8785 37.3217 10.8809Z" fill="black"/>
<mask id="mask0" mask-type="alpha" maskUnits="userSpaceOnUse" x="0" y="0" width="69" height="67">
<path fill-rule="evenodd" clip-rule="evenodd" d="M51.3935 13.4798C51.3935 20.9236 45.4095 26.9597 38.0299 26.9597C30.6503 26.9597 24.6663 20.9236 24.6663 13.4798C24.6663 6.03608 30.6503 0 38.0299 0C45.4095 0 51.3935 6.03608 51.3935 13.4798ZM38.0299 4.27938C43.0665 4.27938 47.1511 8.39954 47.1511 13.4799C47.1511 18.5603 43.0665 22.6804 38.0299 22.6804C32.9933 22.6804 28.9087 18.5603 28.9087 13.4799C28.9087 8.39954 32.9933 4.27938 38.0299 4.27938ZM27.2285 24.7358C26.4093 25.1715 25.6217 25.6625 24.8716 26.2052C23.5013 24.309 21.3537 22.4389 19.0314 21.0556C17.3012 20.025 15.6601 19.3937 14.266 19.3302C12.0186 19.2278 10.3657 20.6715 10.3657 23.0624C10.3657 23.4069 10.4481 23.7462 10.606 24.0516L13.1918 29.0544C9.57281 30.4549 6.6191 33.2438 5.0793 36.8018L2.93994 37.6613C1.31087 38.1325 0 39.3002 0 41.2667L0.0229234 41.5804C0.151259 42.4537 0.254823 43.2546 0.362298 44.1719C0.354598 44.1061 0.541537 45.7405 0.589359 46.1162C0.957998 49.0128 1.71328 50.2708 4.03373 50.9177L7.62345 51.9028C10.3689 54.927 14.2636 56.6482 18.3104 56.7038L17.5133 61.5299L17.4844 61.8815C17.4844 64.6716 19.7317 66.9368 22.4962 66.9368C22.7267 66.9368 22.9172 66.9391 23.4845 66.9482C28.2718 67.0233 30.667 66.119 30.7144 62.0071L30.78 61.4144C34.4516 62.4017 39.3891 62.3443 43.0716 61.3708L43.1711 62.0576C43.2631 64.7676 45.4723 66.9368 48.1826 66.9368H50.1398C52.9981 66.9368 56.3988 64.7866 56.3988 61.8815L56.3863 61.6501L55.2108 50.7543C56.0793 48.9742 56.6701 47.0612 56.9661 45.0838C57.1638 43.0983 57.1199 41.1923 56.8503 39.382C58.1893 38.6312 59.4194 37.7657 60.4608 36.8184C60.9274 36.8629 61.4091 36.8541 61.9022 36.7905C64.3465 36.4756 66.7442 34.7871 67.8671 32.6936C68.4245 31.6542 68.0411 30.3558 67.0107 29.7935C65.9803 29.2313 64.6931 29.618 64.1357 30.6573C64.0425 30.831 63.9215 31.0033 63.7791 31.1692C63.8482 30.5019 63.8029 29.8266 63.6269 29.1499C62.8822 26.2909 60.3954 24.1793 57.896 24.3134C54.6068 24.4899 53.5089 27.7757 54.89 31.7968C55.2687 32.9001 55.7791 33.8321 56.394 34.5833C56.1752 34.745 55.9482 34.9041 55.7141 35.0595C54.2743 31.3396 51.743 28.1803 48.3086 25.7684C47.3471 25.0932 46.0251 25.332 45.3557 26.3018C44.6863 27.2716 44.9231 28.6051 45.8845 29.2803C49.2478 31.6422 51.4995 34.8377 52.4061 38.6592C52.4111 38.6824 52.4166 38.7056 52.4224 38.7288C52.8429 40.5375 52.963 42.4856 52.758 44.5511C52.5135 46.1664 51.9714 47.8208 51.1648 49.3342C50.9618 49.7151 50.878 50.149 50.9244 50.5789L52.1448 61.8909C52.0199 61.9799 50.9045 62.6575 50.1398 62.6575H48.1826C47.7563 62.6575 47.4105 62.309 47.4105 61.8815L47.3882 61.5723L46.8933 58.1545C46.6824 56.6986 45.1113 55.8868 43.8168 56.5649C40.6547 58.2212 32.9706 58.3267 30.0695 56.5718C28.7446 55.7703 27.0419 56.6206 26.8705 58.1693L26.4858 61.6441L26.4727 61.8815C26.4727 62.6095 26.2091 62.7111 23.4244 62.6674C22.9619 62.66 22.7568 62.6575 22.4962 62.6575C22.1146 62.6575 21.7942 62.3715 21.7362 62.0019L22.9425 54.6987C23.1845 53.2331 21.9084 51.9709 20.4604 52.2439C16.6997 52.9527 12.8318 51.5564 10.4304 48.6406C10.1517 48.3022 9.77644 48.0587 9.35563 47.9433L5.15563 46.7907C5.10894 46.7777 5.07176 46.7714 5.04185 46.7663C5.00317 46.7598 4.97666 46.7553 4.95744 46.741C4.91557 46.7098 4.9084 46.632 4.88562 46.3846C4.86964 46.2111 4.84597 45.9541 4.79725 45.5713C4.75349 45.2275 4.57096 43.6317 4.5754 43.6696C4.4943 42.9774 4.4149 42.3455 4.32598 41.7005L7.49925 40.4358C8.06753 40.2075 8.51044 39.7428 8.7143 39.1611C9.9136 35.7386 12.9742 33.1639 16.6498 32.5069C18.0609 32.2546 18.8231 30.6927 18.1605 29.4108L15.3422 23.9584C15.7997 24.1483 16.322 24.4115 16.8743 24.7405C19.4703 26.2867 21.8245 28.7026 22.1503 30.0383C22.5394 31.6333 24.4913 32.2095 25.6716 31.0779C26.7241 30.0687 27.9151 29.2083 29.2071 28.5212C30.2434 27.9701 30.6405 26.676 30.0942 25.6306C29.5478 24.5853 28.2648 24.1847 27.2285 24.7358ZM39.1862 11.4641C39.471 11.5638 39.7422 11.6709 39.9986 11.7865C39.7108 11.7371 39.4335 11.6283 39.1862 11.4641ZM37.9581 10.5899C38.2573 10.5899 38.4899 10.7115 38.5782 10.8477C38.7423 11.101 38.9507 11.3077 39.1863 11.4641C38.9824 11.3927 38.7715 11.3251 38.554 11.2609C38.1077 11.1189 37.8168 11.0097 37.6305 10.9398C37.3981 10.8526 37.3283 10.8264 37.3222 10.8736C37.3335 10.7791 37.5583 10.5899 37.9581 10.5899ZM37.9581 20.3182C40.5952 20.3182 42.8369 18.3391 42.8369 15.745C42.8369 13.7855 41.7689 12.5842 39.9986 11.7865C40.5072 11.8737 41.0484 11.7751 41.5143 11.4679C42.4949 10.8214 42.7702 9.49536 42.1291 8.50624C41.2415 7.13652 39.6622 6.31059 37.9581 6.31059C35.3218 6.31059 33.0793 8.28881 33.0793 10.8809C33.0793 13.325 34.6306 14.5004 37.3208 15.3552C37.8145 15.5012 38.1278 15.6203 38.3201 15.6934C38.5222 15.7702 38.5907 15.7962 38.5943 15.7493C38.5878 15.8453 38.3625 16.0389 37.9581 16.0389C37.5593 16.0389 36.7203 15.6841 36.2259 15.2498C35.3424 14.4738 34.0025 14.567 33.2332 15.4582C32.4638 16.3493 32.5563 17.7009 33.4398 18.4769C34.6676 19.5555 36.4713 20.3182 37.9581 20.3182ZM37.3217 10.8809C37.3217 10.8782 37.3219 10.8757 37.3222 10.8733C37.3219 10.8761 37.3217 10.8785 37.3217 10.8809Z" fill="white"/>
</mask>
<g mask="url(#mask0)">
<rect width="284.375" height="286.848" transform="matrix(-1 0 0 1 177.188 -108.12)" fill="#D1D1D1"/>
</g>
</svg>
