<svg width="39" height="39" viewBox="0 0 39 39" fill="none" xmlns="http://www.w3.org/2000/svg">
<path fill-rule="evenodd" clip-rule="evenodd" d="M6.03416 8.92773H37.1148C38.0909 8.92773 38.8822 9.71666 38.8822 10.6898C38.8822 11.6629 38.0909 12.4518 37.1148 12.4518H6.03416L11.8539 18.254C12.5441 18.9422 12.5441 20.0579 11.8539 20.7459C11.5089 21.09 11.0566 21.2621 10.6042 21.2621C10.1519 21.2621 9.69957 21.09 9.35446 20.7459L0.517602 11.9357C-0.172615 11.2475 -0.172615 10.1318 0.517602 9.44378L9.35446 0.633536C10.0447 -0.054603 11.1638 -0.054603 11.8539 0.633536C12.5441 1.32167 12.5441 2.4374 11.8539 3.12542L6.03416 8.92773ZM27.0282 18.254C27.7184 17.566 28.8375 17.566 29.5276 18.254L38.3644 27.0643C39.0547 27.7524 39.0547 28.8681 38.3644 29.5561L29.5276 38.3664C29.1826 38.7104 28.7303 38.8825 28.2779 38.8825C27.8256 38.8825 27.3733 38.7104 27.0283 38.3665C26.3381 37.6784 26.3381 36.5626 27.0283 35.8746L32.848 30.0723H1.76736C0.791299 30.0723 -1.27042e-05 29.2834 -1.27042e-05 28.3103C-1.27042e-05 27.3371 0.791299 26.5482 1.76736 26.5482H32.848L27.0282 20.7459C26.3379 20.0578 26.3379 18.942 27.0282 18.254Z" fill="black"/>
<mask id="mask0" mask-type="alpha" maskUnits="userSpaceOnUse" x="0" y="0" width="39" height="39">
<path fill-rule="evenodd" clip-rule="evenodd" d="M6.03416 8.92773H37.1148C38.0909 8.92773 38.8822 9.71666 38.8822 10.6898C38.8822 11.6629 38.0909 12.4518 37.1148 12.4518H6.03416L11.8539 18.254C12.5441 18.9422 12.5441 20.0579 11.8539 20.7459C11.5089 21.09 11.0566 21.2621 10.6042 21.2621C10.1519 21.2621 9.69957 21.09 9.35446 20.7459L0.517602 11.9357C-0.172615 11.2475 -0.172615 10.1318 0.517602 9.44378L9.35446 0.633536C10.0447 -0.054603 11.1638 -0.054603 11.8539 0.633536C12.5441 1.32167 12.5441 2.4374 11.8539 3.12542L6.03416 8.92773ZM27.0282 18.254C27.7184 17.566 28.8375 17.566 29.5276 18.254L38.3644 27.0643C39.0547 27.7524 39.0547 28.8681 38.3644 29.5561L29.5276 38.3664C29.1826 38.7104 28.7303 38.8825 28.2779 38.8825C27.8256 38.8825 27.3733 38.7104 27.0283 38.3665C26.3381 37.6784 26.3381 36.5626 27.0283 35.8746L32.848 30.0723H1.76736C0.791299 30.0723 -1.27042e-05 29.2834 -1.27042e-05 28.3103C-1.27042e-05 27.3371 0.791299 26.5482 1.76736 26.5482H32.848L27.0282 20.7459C26.3379 20.0578 26.3379 18.942 27.0282 18.254Z" fill="white"/>
</mask>
<g mask="url(#mask0)">
<rect x="-54.8438" y="-48.75" width="158.438" height="158.438" fill="#D1D1D1"/>
</g>
</svg>
