<svg width="106" height="66" viewBox="0 0 106 66" fill="none" xmlns="http://www.w3.org/2000/svg">
<path fill-rule="evenodd" clip-rule="evenodd" d="M9.82786 33.7013C13.0169 33.7013 15.8436 35.0762 17.6384 37.1966C20.2278 35.7226 23.2855 34.8569 26.5741 34.8569C27.3475 34.8569 28.0998 34.9198 28.8414 35.0114C28.4706 33.8901 28.2629 32.7041 28.2629 31.4741C28.2629 24.6437 34.4164 19.1062 42.0109 19.1062C45.3906 19.1062 48.4822 20.2084 50.8766 22.0294C54.4556 16.6578 60.9651 13.0519 68.4281 13.0519C79.735 13.0519 88.8995 21.2991 88.8995 31.4741C88.8995 41.3975 80.1757 49.4654 69.2566 49.8601C69.2566 49.883 69.2609 49.9059 69.2609 49.9307C69.2609 58.2542 61.7618 65.0045 52.5125 65.0045C47.2829 65.0045 42.6169 62.8459 39.5422 59.4669C36.4719 62.8459 31.8059 65.0045 26.5741 65.0045C17.8715 65.0045 10.7221 59.0245 9.90838 51.3818C9.87872 51.3818 9.85329 51.3856 9.82786 51.3856C4.39904 51.3856 5.34058e-05 47.4289 5.34058e-05 42.5435C5.34058e-05 37.6619 4.39904 33.7013 9.82786 33.7013Z" fill="#5E76FA" fill-opacity="0.1"/>
<path fill-rule="evenodd" clip-rule="evenodd" d="M102.12 29C104.447 25.8715 105.802 22.0322 106 18H100.154C100.077 20.8799 99.6832 23.7091 99 26.2807C100.122 27.0655 101.166 27.9758 102.12 29Z" fill="#FDC51C"/>
<path fill-rule="evenodd" clip-rule="evenodd" d="M78 26.2812C77.3165 23.7091 76.9223 20.8798 76.8462 18H71C71.1981 22.0326 72.5531 25.8724 74.8816 29C75.8348 27.9773 76.8788 27.0673 78 26.2812Z" fill="#FDC51C"/>
<path fill-rule="evenodd" clip-rule="evenodd" d="M74.8816 6C72.5531 9.1263 71.1981 12.966 71 17H76.8462C76.9223 14.1208 77.3165 11.2914 78 8.7192C76.8785 7.93263 75.8344 7.02215 74.8816 6Z" fill="#FDC51C"/>
<path fill-rule="evenodd" clip-rule="evenodd" d="M99 8.71937C99.6835 11.291 100.078 14.1206 100.154 17H106C105.802 12.9679 104.448 9.1286 102.12 6C101.168 7.02186 100.123 7.93205 99 8.71937Z" fill="#FDC51C"/>
<path fill-rule="evenodd" clip-rule="evenodd" d="M77.496 6C78.411 3.95513 79.6072 2.26435 81 1C80.8766 1.03943 80.7554 1.08132 80.6339 1.12347L80.583 1.14115C80.4463 1.18847 80.3076 1.24041 80.1703 1.29181C79.5025 1.54501 78.8581 1.83084 78.2577 2.14006C78.1936 2.1727 78.1375 2.20179 78.0818 2.23089L78.0471 2.24884C77.8894 2.32989 77.7215 2.42181 77.5291 2.5325C77.5223 2.53631 77.5151 2.54011 77.5083 2.54392C77.4665 2.56649 77.4267 2.59016 77.3865 2.61382L77.347 2.6372C77.0062 2.83465 76.6695 3.04623 76.3426 3.2687C76.2224 3.3492 76.1103 3.42698 75.9979 3.50775C75.9211 3.56133 75.8592 3.60674 75.7983 3.65352C75.7873 3.66195 75.776 3.67038 75.7643 3.67854C75.7157 3.71254 75.6687 3.74816 75.6217 3.78352C75.4037 3.94833 75.1941 4.11395 75 4.27522C75.7692 4.91379 76.6041 5.49035 77.496 6Z" fill="#FDC51C"/>
<path fill-rule="evenodd" clip-rule="evenodd" d="M99.0111 4.01948C98.9045 3.92888 98.7937 3.83438 98.6791 3.74183C98.5914 3.66876 98.5146 3.60771 98.4374 3.54828C98.3484 3.47716 98.2716 3.41871 98.1951 3.36058C98.1106 3.29628 98.027 3.23263 97.9434 3.17255C97.937 3.16768 97.9303 3.16281 97.9239 3.15826C97.8471 3.09981 97.7686 3.04492 97.6905 2.98939L97.6297 2.9462C97.614 2.93516 97.5987 2.92347 97.583 2.9134C97.5705 2.90561 97.5583 2.89749 97.5462 2.88905C97.4271 2.80591 97.3061 2.72472 97.185 2.64549C97.0695 2.56917 96.9529 2.49545 96.8367 2.42174C96.7272 2.35354 96.6085 2.2808 96.4878 2.21163C96.4823 2.20838 96.4766 2.20546 96.4711 2.20188C96.3463 2.12687 96.2176 2.0538 96.0892 1.98236C95.9487 1.90474 95.8056 1.82843 95.6628 1.75211C95.4188 1.62676 95.1531 1.49784 94.8855 1.37476C94.7536 1.315 94.6159 1.25298 94.4786 1.19517C94.3262 1.13022 94.1684 1.06592 94 1C95.4083 2.52241 96.6206 4.55954 97.5305 7C98.4144 6.3911 99.2403 5.70167 100 4.93916C99.999 4.93787 99.9978 4.93657 99.9968 4.93559C99.8918 4.8294 99.7865 4.72775 99.6811 4.62773C99.4612 4.41795 99.2371 4.21433 99.0111 4.01948Z" fill="#FDC51C"/>
<path fill-rule="evenodd" clip-rule="evenodd" d="M77.4091 32.0805C77.517 32.1552 77.6269 32.2303 77.7367 32.3033C77.7399 32.3053 77.7428 32.3072 77.7457 32.3095L77.7598 32.318C77.7665 32.3222 77.7729 32.3264 77.7793 32.331C77.8805 32.3982 77.9814 32.4635 78.0839 32.5271L78.1614 32.5749C78.2834 32.6528 78.3997 32.723 78.5176 32.7918C78.6518 32.8711 78.7808 32.9458 78.9118 33.0185C79.0415 33.0903 79.1744 33.1611 79.307 33.2306C79.5633 33.3638 79.8169 33.4888 80.0613 33.6015C80.0859 33.6116 80.1074 33.6213 80.126 33.6304C80.257 33.6898 80.3896 33.7489 80.5222 33.8051C80.6855 33.8746 80.8437 33.9389 81 34C79.5911 32.4774 78.3789 30.4414 77.4683 28C76.5866 28.6083 75.761 29.2975 75 30.0607C75.2306 30.2904 75.4423 30.4927 75.6444 30.6762C75.6473 30.6788 75.6495 30.6811 75.6524 30.6833C75.6598 30.6902 75.6671 30.6973 75.6745 30.7048C75.7747 30.7938 75.8766 30.8831 75.9794 30.9711C76.0966 31.0728 76.2081 31.1663 76.323 31.2595C76.4377 31.3547 76.5479 31.4414 76.6581 31.5265C76.6705 31.5362 76.683 31.5463 76.6952 31.5567C76.8047 31.6414 76.9146 31.7243 77.026 31.8055C77.1423 31.8928 77.2496 31.9688 77.3579 32.0445C77.3742 32.0555 77.3899 32.0666 77.4059 32.0783C77.4069 32.0789 77.4081 32.0799 77.4091 32.0805Z" fill="#CBE5C0"/>
<path fill-rule="evenodd" clip-rule="evenodd" d="M94 34C94.1716 33.9331 94.3272 33.8695 94.4733 33.8074C94.6138 33.7477 94.7518 33.686 94.8879 33.6243C95.1386 33.5093 95.3926 33.3862 95.6404 33.2593C95.6657 33.2443 95.6916 33.2307 95.7185 33.2183C95.8425 33.1534 95.9651 33.0868 96.0877 33.0186C96.2161 32.9472 96.3449 32.8738 96.4701 32.7988C96.602 32.7228 96.7173 32.6526 96.8306 32.5822C96.8569 32.5649 96.8847 32.5474 96.9126 32.5299C97.0163 32.4656 97.1143 32.4026 97.2123 32.3373C97.2321 32.3237 97.252 32.3107 97.2731 32.2977C97.3654 32.2357 97.456 32.174 97.5466 32.1123L97.69 32.0113C97.7659 31.9577 97.8421 31.9034 97.9177 31.8479C97.942 31.8291 97.967 31.8112 97.9923 31.7927L98.0109 31.7794C98.1015 31.7125 98.1921 31.644 98.2827 31.5732L98.3148 31.5485C98.3381 31.5303 98.3618 31.5118 98.3862 31.4943C98.4822 31.4186 98.5767 31.3433 98.6699 31.2663C98.7835 31.1744 98.8866 31.0867 98.9888 30.9997C99.0035 30.9854 99.0192 30.9714 99.0352 30.9581C99.1108 30.8951 99.1851 30.8279 99.2594 30.7613C99.2706 30.7512 99.2831 30.7405 99.2946 30.7311C99.3263 30.7051 99.3567 30.6759 99.3874 30.6473C99.3913 30.6438 99.3996 30.6363 99.4038 30.6324C99.4941 30.5509 99.5834 30.4674 99.6705 30.3827C99.7867 30.2726 99.8918 30.1712 99.9936 30.0683C99.9958 30.066 99.9978 30.0638 100 30.0618C99.2386 29.2974 98.4124 28.6076 97.5303 28C96.6199 30.4414 95.4079 32.4776 94 34Z" fill="#FDC51C"/>
<path fill-rule="evenodd" clip-rule="evenodd" d="M86 36V25C83.5505 25.1504 81.1587 25.901 79 27.1988C80.5698 32.16 83.1707 35.4177 86 36Z" fill="#FDC51C"/>
<path fill-rule="evenodd" clip-rule="evenodd" d="M96 27.1989C93.8407 25.9011 91.4493 25.1504 89 25V36C91.83 35.4166 94.4304 32.1589 96 27.1989Z" fill="#FDC51C"/>
<path fill-rule="evenodd" clip-rule="evenodd" d="M87 22.1331V18H78C78.0725 20.082 78.4074 22.125 78.9835 24C81.4693 22.8906 84.2037 22.2532 87 22.1331Z" fill="#FDC51C"/>
<path fill-rule="evenodd" clip-rule="evenodd" d="M86 11V0C83.171 0.581325 80.5692 3.84162 79 8.80141C81.1587 10.0989 83.5505 10.8496 86 11Z" fill="#FDC51C"/>
<path fill-rule="evenodd" clip-rule="evenodd" d="M89 0V11C91.4496 10.8496 93.8407 10.0989 96 8.80141C94.4307 3.84162 91.8288 0.581325 89 0Z" fill="#FDC51C"/>
<path fill-rule="evenodd" clip-rule="evenodd" d="M89 11.8672V16H98C97.9278 13.9182 97.5922 11.8754 97.0159 10C94.5302 11.1098 91.7956 11.7471 89 11.8672Z" fill="#FDC51C"/>
<path fill-rule="evenodd" clip-rule="evenodd" d="M87 16V11.8674C84.204 11.7473 81.4693 11.1098 78.9835 10C78.4077 11.8756 78.0725 13.918 78 16H87Z" fill="#FDC51C"/>
<path fill-rule="evenodd" clip-rule="evenodd" d="M97.0159 24C97.5925 22.125 97.9275 20.0823 98 18H89V22.1331C91.7959 22.2532 94.5299 22.8903 97.0159 24Z" fill="#FDC51C"/>
<mask id="mask0" mask-type="alpha" maskUnits="userSpaceOnUse" x="44" y="25" width="43" height="29">
<path fill-rule="evenodd" clip-rule="evenodd" d="M44 25.2874H86.7587V53.8524H44V25.2874Z" fill="white"/>
</mask>
<g mask="url(#mask0)">
<path fill-rule="evenodd" clip-rule="evenodd" d="M47.1065 53.8524H83.6525C85.3682 53.8524 86.7587 52.4666 86.7587 50.7576V28.3821C86.7587 26.6731 85.3682 25.2874 83.6525 25.2874H47.1065C45.3908 25.2874 43.9999 26.6731 43.9999 28.3821V50.7576C43.9999 52.4666 45.3908 53.8524 47.1065 53.8524Z" fill="#5D76F8"/>
</g>
<mask id="mask1" mask-type="alpha" maskUnits="userSpaceOnUse" x="44" y="0" width="62" height="62">
<path fill-rule="evenodd" clip-rule="evenodd" d="M44 62H106V0H44V62Z" fill="white"/>
</mask>
<g mask="url(#mask1)">
<path fill-rule="evenodd" clip-rule="evenodd" d="M47 49H82V28H47V49Z" fill="white"/>
<path fill-rule="evenodd" clip-rule="evenodd" d="M58 57H73V53H58V57Z" fill="#5D76F8"/>
<path fill-rule="evenodd" clip-rule="evenodd" d="M55 62H76V61.2854C76 59.4709 74.5134 58 72.6796 58H58.3204C56.4866 58 55 59.4709 55 61.2854V62Z" fill="#FDC51C"/>
</g>
</svg>
