<svg width="25" height="25" viewBox="0 0 25 25" fill="none" xmlns="http://www.w3.org/2000/svg">
<path fill-rule="evenodd" clip-rule="evenodd" d="M24.7179 11.886C24.709 12.292 24.3727 12.614 23.9667 12.6051C23.5607 12.5962 23.2388 12.2598 23.2477 11.8538C23.3685 6.33785 18.8958 1.86337 13.3779 1.98409C12.9719 1.99297 12.6356 1.67105 12.6267 1.26506C12.6178 0.859061 12.9397 0.522737 13.3457 0.513855C19.7009 0.374817 24.857 5.53294 24.7179 11.886ZM21.7011 19.9716C22.1607 20.439 22.1708 21.1868 21.7235 21.6673C21.6616 21.7337 21.4964 21.9128 21.3827 22.036L21.3812 22.0376L21.272 22.1559C19.4234 24.1521 18.1564 24.9619 16.1352 24.8436C13.6257 24.6968 10.5564 22.771 6.4963 18.6307C-0.641823 11.3502 -0.912305 7.79854 2.93682 4.12721C3.0304 4.03795 3.42651 3.66361 3.33716 3.7482C3.4898 3.60371 3.60012 3.49795 3.70619 3.39378C3.93682 3.16822 4.24622 3.04299 4.57393 3.04301C4.90086 3.04558 5.21412 3.17935 5.43786 3.41074L10.3328 8.40183C10.8076 8.88181 10.8021 9.65934 10.3183 10.138L8.92122 11.5048C8.92297 11.5085 8.92452 11.5143 8.92617 11.5226C8.95804 11.6824 9.05462 11.9152 9.21183 12.1943C9.54472 12.7854 10.1081 13.5148 10.7711 14.2147C12.0039 15.5161 13.3285 16.3943 13.6432 16.3699C13.7505 16.266 13.9933 16.0292 14.3163 15.7135L14.8307 15.2106C15.0169 15.0284 15.017 15.0283 15.0795 14.9676L15.0796 14.9675C15.5654 14.5198 16.319 14.5328 16.7844 15.0048L21.7011 19.9716ZM15.8591 16.2618L15.3459 16.7636C14.8983 17.201 14.6349 17.4577 14.6073 17.4829C14.5266 17.5635 14.4368 17.6267 14.3417 17.6742C12.2339 18.7414 6.13388 12.3018 7.79293 10.552L9.11383 9.25914L4.55926 4.6151C4.49507 4.67673 4.42487 4.74353 4.34344 4.8206C4.4469 4.72268 4.04398 5.10344 3.95182 5.19135C2.44086 6.63251 1.88442 7.57311 1.99395 9.01125C2.14932 11.0514 3.84118 13.822 7.54633 17.601C11.3737 21.5041 14.1646 23.2552 16.2211 23.3755C17.6734 23.4605 18.6195 22.8559 20.193 21.1567L20.4883 20.8368L15.91 16.2119L15.8591 16.2618ZM4.71117 4.46503C4.71527 4.46193 4.71929 4.4587 4.72323 4.45532L4.71117 4.46503ZM4.72323 4.45532L4.72779 4.45165L4.73551 4.44408C4.73152 4.44798 4.72742 4.45173 4.72323 4.45532ZM20.491 12.6048C20.8969 12.6182 21.2367 12.2999 21.25 11.8941C21.3959 7.44968 17.7802 3.83612 13.3381 3.98211C12.9322 3.99545 12.614 4.33529 12.6273 4.74116C12.6406 5.14704 12.9805 5.46525 13.3864 5.45191C16.979 5.33383 19.8982 8.25133 19.7802 11.8458C19.7669 12.2517 20.0852 12.5915 20.491 12.6048ZM12.6283 8.23284C12.655 8.63805 13.0051 8.94491 13.4103 8.91823C15.0634 8.80936 16.4223 10.1688 16.3142 11.8225C16.2877 12.2277 16.5947 12.5777 16.9999 12.6042C17.4052 12.6307 17.7552 12.3237 17.7817 11.9184C17.9478 9.37845 15.8537 7.28355 13.3137 7.45082C12.9085 7.4775 12.6016 7.82762 12.6283 8.23284Z" fill="black"/>
<mask id="mask0" mask-type="alpha" maskUnits="userSpaceOnUse" x="0" y="0" width="25" height="25">
<path fill-rule="evenodd" clip-rule="evenodd" d="M24.7179 11.886C24.709 12.292 24.3727 12.614 23.9667 12.6051C23.5607 12.5962 23.2388 12.2598 23.2477 11.8538C23.3685 6.33785 18.8958 1.86337 13.3779 1.98409C12.9719 1.99297 12.6356 1.67105 12.6267 1.26506C12.6178 0.859061 12.9397 0.522737 13.3457 0.513855C19.7009 0.374817 24.857 5.53294 24.7179 11.886ZM21.7011 19.9716C22.1607 20.439 22.1708 21.1868 21.7235 21.6673C21.6616 21.7337 21.4964 21.9128 21.3827 22.036L21.3812 22.0376L21.272 22.1559C19.4234 24.1521 18.1564 24.9619 16.1352 24.8436C13.6257 24.6968 10.5564 22.771 6.4963 18.6307C-0.641823 11.3502 -0.912305 7.79854 2.93682 4.12721C3.0304 4.03795 3.42651 3.66361 3.33716 3.7482C3.4898 3.60371 3.60012 3.49795 3.70619 3.39378C3.93682 3.16822 4.24622 3.04299 4.57393 3.04301C4.90086 3.04558 5.21412 3.17935 5.43786 3.41074L10.3328 8.40183C10.8076 8.88181 10.8021 9.65934 10.3183 10.138L8.92122 11.5048C8.92297 11.5085 8.92452 11.5143 8.92617 11.5226C8.95804 11.6824 9.05462 11.9152 9.21183 12.1943C9.54472 12.7854 10.1081 13.5148 10.7711 14.2147C12.0039 15.5161 13.3285 16.3943 13.6432 16.3699C13.7505 16.266 13.9933 16.0292 14.3163 15.7135L14.8307 15.2106C15.0169 15.0284 15.017 15.0283 15.0795 14.9676L15.0796 14.9675C15.5654 14.5198 16.319 14.5328 16.7844 15.0048L21.7011 19.9716ZM15.8591 16.2618L15.3459 16.7636C14.8983 17.201 14.6349 17.4577 14.6073 17.4829C14.5266 17.5635 14.4368 17.6267 14.3417 17.6742C12.2339 18.7414 6.13388 12.3018 7.79293 10.552L9.11383 9.25914L4.55926 4.6151C4.49507 4.67673 4.42487 4.74353 4.34344 4.8206C4.4469 4.72268 4.04398 5.10344 3.95182 5.19135C2.44086 6.63251 1.88442 7.57311 1.99395 9.01125C2.14932 11.0514 3.84118 13.822 7.54633 17.601C11.3737 21.5041 14.1646 23.2552 16.2211 23.3755C17.6734 23.4605 18.6195 22.8559 20.193 21.1567L20.4883 20.8368L15.91 16.2119L15.8591 16.2618ZM4.71117 4.46503C4.71527 4.46193 4.71929 4.4587 4.72323 4.45532L4.71117 4.46503ZM4.72323 4.45532L4.72779 4.45165L4.73551 4.44408C4.73152 4.44798 4.72742 4.45173 4.72323 4.45532ZM20.491 12.6048C20.8969 12.6182 21.2367 12.2999 21.25 11.8941C21.3959 7.44968 17.7802 3.83612 13.3381 3.98211C12.9322 3.99545 12.614 4.33529 12.6273 4.74116C12.6406 5.14704 12.9805 5.46525 13.3864 5.45191C16.979 5.33383 19.8982 8.25133 19.7802 11.8458C19.7669 12.2517 20.0852 12.5915 20.491 12.6048ZM12.6283 8.23284C12.655 8.63805 13.0051 8.94491 13.4103 8.91823C15.0634 8.80936 16.4223 10.1688 16.3142 11.8225C16.2877 12.2277 16.5947 12.5777 16.9999 12.6042C17.4052 12.6307 17.7552 12.3237 17.7817 11.9184C17.9478 9.37845 15.8537 7.28355 13.3137 7.45082C12.9085 7.4775 12.6016 7.82762 12.6283 8.23284Z" fill="white"/>
</mask>
<g mask="url(#mask0)">
<rect width="101.562" height="101.562" transform="matrix(-1 0 0 1 63.2812 -38.2812)" fill="#D1D1D1"/>
</g>
</svg>
