<svg width="85" height="85" viewBox="0 0 85 85" fill="none" xmlns="http://www.w3.org/2000/svg">
<circle cx="42.5" cy="42.5" r="42.5" fill="white"/>
<path fill-rule="evenodd" clip-rule="evenodd" d="M58.8553 33.9116C58.8434 33.9116 58.8315 33.9118 58.8197 33.9121L45.2178 33.1374H58.8553C59.5457 33.1374 60.1053 32.5778 60.1053 31.8874C60.1053 31.1971 59.5457 30.6374 58.8553 30.6374H26.9653C26.275 30.6374 25.7153 31.1971 25.7153 31.8874C25.7153 31.9347 25.7179 31.9813 25.723 32.0271L25.0621 31.9895C25.0609 31.9556 25.0603 31.9215 25.0603 31.8871C25.0603 30.7173 25.7443 29.8638 26.4336 29.8638H58.8553C59.5457 29.8638 60.1053 29.3041 60.1053 28.6138C60.1053 27.9234 59.5457 27.3638 58.8553 27.3638H26.4336C24.2387 27.3638 22.5786 29.4205 22.5605 31.847C22.56 31.8604 22.5598 31.8739 22.5598 31.8874V54.3074C22.5598 56.4474 24.2941 58.1824 26.4331 58.1824H58.8548C59.5452 58.1824 60.1048 57.6228 60.1048 56.9324V51.5473C60.1048 51.534 60.1039 51.5209 60.1021 51.5081H62.2245C62.9148 51.5081 63.4745 50.9484 63.4745 50.2581V42.0231C63.4745 41.3327 62.9148 40.7731 62.2245 40.7731H60.0643C60.0909 40.7286 60.1053 40.6802 60.1053 40.6278L60.1053 35.1621L60.1052 35.1459C60.105 35.1303 60.1045 35.1147 60.1037 35.0992C60.0712 34.4378 59.5247 33.9116 58.8553 33.9116ZM57.6463 40.7731C57.6197 40.7286 57.6053 40.6802 57.6053 40.6278V36.4121H58.8553C59.5457 36.4121 60.1053 35.8525 60.1053 35.1621L58.8197 33.9121H26.4336C25.7644 33.9121 25.1005 33.1078 25.0621 31.9895L22.5605 31.847L22.5603 31.8871C22.5603 33.7912 23.5705 35.4736 25.0598 36.1251V54.3074C25.0598 55.0669 25.675 55.6824 26.4331 55.6824H57.6048V51.5473C57.6048 51.534 57.6057 51.5209 57.6076 51.5081H60.1021C60.0111 50.87 57.6985 50.87 57.6076 51.5081H54.7978C51.8328 51.5081 49.4295 49.1054 49.4295 46.1414C49.4295 43.1761 51.8325 40.7731 54.7978 40.7731H57.6463ZM57.6463 40.7731C57.9438 41.2698 59.7668 41.2698 60.0643 40.7731H57.6463ZM54.7978 43.2731H60.9745V49.0081H54.7978C53.2133 49.0081 51.9295 47.7246 51.9295 46.1414C51.9295 44.5568 53.2132 43.2731 54.7978 43.2731Z" fill="black"/>
<mask id="mask0" mask-type="alpha" maskUnits="userSpaceOnUse" x="22" y="27" width="42" height="32">
<path fill-rule="evenodd" clip-rule="evenodd" d="M58.8553 33.9116C58.8434 33.9116 58.8315 33.9118 58.8197 33.9121L45.2178 33.1374H58.8553C59.5457 33.1374 60.1053 32.5778 60.1053 31.8874C60.1053 31.1971 59.5457 30.6374 58.8553 30.6374H26.9653C26.275 30.6374 25.7153 31.1971 25.7153 31.8874C25.7153 31.9347 25.7179 31.9813 25.723 32.0271L25.0621 31.9895C25.0609 31.9556 25.0603 31.9215 25.0603 31.8871C25.0603 30.7173 25.7443 29.8638 26.4336 29.8638H58.8553C59.5457 29.8638 60.1053 29.3041 60.1053 28.6138C60.1053 27.9234 59.5457 27.3638 58.8553 27.3638H26.4336C24.2387 27.3638 22.5786 29.4205 22.5605 31.847C22.56 31.8604 22.5598 31.8739 22.5598 31.8874V54.3074C22.5598 56.4474 24.2941 58.1824 26.4331 58.1824H58.8548C59.5452 58.1824 60.1048 57.6228 60.1048 56.9324V51.5473C60.1048 51.534 60.1039 51.5209 60.1021 51.5081H62.2245C62.9148 51.5081 63.4745 50.9484 63.4745 50.2581V42.0231C63.4745 41.3327 62.9148 40.7731 62.2245 40.7731H60.0643C60.0909 40.7286 60.1053 40.6802 60.1053 40.6278L60.1053 35.1621L60.1052 35.1459C60.105 35.1303 60.1045 35.1147 60.1037 35.0992C60.0712 34.4378 59.5247 33.9116 58.8553 33.9116ZM57.6463 40.7731C57.6197 40.7286 57.6053 40.6802 57.6053 40.6278V36.4121H58.8553C59.5457 36.4121 60.1053 35.8525 60.1053 35.1621L58.8197 33.9121H26.4336C25.7644 33.9121 25.1005 33.1078 25.0621 31.9895L22.5605 31.847L22.5603 31.8871C22.5603 33.7912 23.5705 35.4736 25.0598 36.1251V54.3074C25.0598 55.0669 25.675 55.6824 26.4331 55.6824H57.6048V51.5473C57.6048 51.534 57.6057 51.5209 57.6076 51.5081H60.1021C60.0111 50.87 57.6985 50.87 57.6076 51.5081H54.7978C51.8328 51.5081 49.4295 49.1054 49.4295 46.1414C49.4295 43.1761 51.8325 40.7731 54.7978 40.7731H57.6463ZM57.6463 40.7731C57.9438 41.2698 59.7668 41.2698 60.0643 40.7731H57.6463ZM54.7978 43.2731H60.9745V49.0081H54.7978C53.2133 49.0081 51.9295 47.7246 51.9295 46.1414C51.9295 44.5568 53.2132 43.2731 54.7978 43.2731Z" fill="white"/>
</mask>
<g mask="url(#mask0)">
<rect width="162.5" height="162.5" transform="matrix(-1 0 0 1 124.25 -38.5)" fill="#130DFF"/>
<rect width="162.5" height="162.5" transform="matrix(-1 0 0 1 124.25 -38.5)" fill="#130DFF"/>
</g>
<path fill-rule="evenodd" clip-rule="evenodd" d="M43.5774 20.2776L47.4353 16.1341C47.7614 15.7839 48.3097 15.7643 48.66 16.0904C49.0103 16.4165 49.0299 16.9649 48.7037 17.3151L43.4203 22.9897C43.0942 23.34 42.5459 23.3595 42.1956 23.0334L36.5211 17.75C36.1708 17.4239 36.1512 16.8756 36.4773 16.5253C36.8035 16.175 37.3518 16.1554 37.7021 16.4816L41.8454 20.3393L41.4467 9.17129C41.4296 8.693 41.8035 8.29143 42.2818 8.27436C42.7601 8.25729 43.1616 8.63117 43.1787 9.10946L43.5774 20.2776Z" fill="black"/>
<mask id="mask1" mask-type="alpha" maskUnits="userSpaceOnUse" x="36" y="8" width="13" height="16">
<path fill-rule="evenodd" clip-rule="evenodd" d="M43.5774 20.2776L47.4353 16.1341C47.7614 15.7839 48.3097 15.7643 48.66 16.0904C49.0103 16.4165 49.0299 16.9649 48.7037 17.3151L43.4203 22.9897C43.0942 23.34 42.5459 23.3595 42.1956 23.0334L36.5211 17.75C36.1708 17.4239 36.1512 16.8756 36.4773 16.5253C36.8035 16.175 37.3518 16.1554 37.7021 16.4816L41.8454 20.3393L41.4467 9.17129C41.4296 8.693 41.8035 8.29143 42.2818 8.27436C42.7601 8.25729 43.1616 8.63117 43.1787 9.10946L43.5774 20.2776Z" fill="white"/>
</mask>
<g mask="url(#mask1)">
<rect x="13.4004" y="47.2988" width="60.9375" height="60.9375" transform="rotate(-92.0444 13.4004 47.2988)" fill="#130DFF"/>
</g>
</svg>
