<svg width="25" height="25" viewBox="0 0 25 25" fill="none" xmlns="http://www.w3.org/2000/svg">
<path fill-rule="evenodd" clip-rule="evenodd" d="M14.3143 8.84606C14.7204 8.84606 15.0496 8.51685 15.0496 8.11076V6.91586H17.5273V8.93351C17.5273 9.3396 17.8565 9.6688 18.2626 9.6688C18.6687 9.6688 18.9979 9.3396 18.9979 8.93351V6.18056C18.9979 5.77447 18.6687 5.44527 18.2626 5.44527H15.0496V4.84213C15.0496 2.50062 13.2445 0.490173 10.9701 0.490173H10.9103C8.62392 0.490173 6.71622 2.51785 6.71622 4.84213V5.44527H3.56946C3.16337 5.44527 2.83417 5.77447 2.83417 6.18056V23.8159C2.83417 24.222 3.16337 24.5512 3.56946 24.5512H18.2626C18.6687 24.5512 18.9979 24.222 18.9979 23.8159V21.8855C18.9979 21.4794 18.6687 21.1502 18.2626 21.1502C17.8565 21.1502 17.5273 21.4794 17.5273 21.8855V23.0806H4.30476V6.91586H6.71622V8.11076C6.71622 8.51685 7.04542 8.84606 7.45152 8.84606C7.85761 8.84606 8.18681 8.51685 8.18681 8.11076V6.91586H13.579V8.11076C13.579 8.51685 13.9082 8.84606 14.3143 8.84606ZM13.579 5.44527V4.84213C13.579 3.27958 12.3949 1.96076 10.9701 1.96076H10.9103C9.45683 1.96076 8.18681 3.31066 8.18681 4.84213V5.44527H13.579ZM18.885 20.5125L22.6165 16.7458C23.0349 16.3274 23.0323 15.6448 22.6091 15.227L17.9753 10.6373C17.7722 10.4373 17.5006 10.3263 17.2177 10.3263L16.9687 10.3273L13.4622 10.344C12.8598 10.3531 12.3901 10.8362 12.3932 11.4244C12.3933 11.4425 12.3916 11.6913 12.391 11.7922L12.391 11.793L12.3907 11.8334C12.3873 12.4018 12.3869 12.9174 12.3916 13.42C12.4099 15.39 12.4217 15.6243 12.7256 15.93C12.5681 15.7746 14.2221 17.416 15.0976 18.2817L15.1181 18.302C17.3639 20.5224 17.4933 20.6503 17.6486 20.7231C17.6532 20.7253 17.6579 20.7274 17.6627 20.7295C17.6676 20.7318 17.6727 20.734 17.6779 20.7363L17.6834 20.7387C17.9016 20.8403 18.1681 20.8653 18.4188 20.7914C18.5669 20.7528 18.7533 20.6475 18.885 20.5125ZM17.057 11.7976L16.9751 11.7979L13.8615 11.8127L13.8613 11.8423C13.8579 12.4038 13.8575 12.9126 13.8621 13.4063C13.867 13.9351 13.8773 14.3765 13.8939 14.7035C13.9008 14.8405 13.9087 14.9543 13.9172 15.0412C14.3365 15.4576 15.4582 16.5702 16.1113 17.2159L16.1315 17.2359C16.7824 17.8794 17.326 18.4149 17.7291 18.809C17.8828 18.9593 18.0146 19.0875 18.1229 19.1923L21.2925 15.9927L17.057 11.7976ZM16.1811 13.6172C16.0243 13.4604 15.7711 13.4604 15.6149 13.6172C15.458 13.7735 15.458 14.0264 15.6157 14.1836C15.7711 14.3395 16.0243 14.3395 16.1811 14.1827C16.3379 14.0264 16.3379 13.7735 16.1811 13.6172ZM15.0958 14.7035C15.5376 15.1467 16.257 15.1467 16.7006 14.7031C17.1452 14.2599 17.1453 13.5403 16.7004 13.0966C16.2567 12.6532 15.5375 12.6533 15.0949 13.0973C14.6507 13.5401 14.6507 14.2598 15.0958 14.7035Z" fill="black"/>
<mask id="mask0" mask-type="alpha" maskUnits="userSpaceOnUse" x="2" y="0" width="21" height="25">
<path fill-rule="evenodd" clip-rule="evenodd" d="M14.3143 8.84606C14.7204 8.84606 15.0496 8.51685 15.0496 8.11076V6.91586H17.5273V8.93351C17.5273 9.3396 17.8565 9.6688 18.2626 9.6688C18.6687 9.6688 18.9979 9.3396 18.9979 8.93351V6.18056C18.9979 5.77447 18.6687 5.44527 18.2626 5.44527H15.0496V4.84213C15.0496 2.50062 13.2445 0.490173 10.9701 0.490173H10.9103C8.62392 0.490173 6.71622 2.51785 6.71622 4.84213V5.44527H3.56946C3.16337 5.44527 2.83417 5.77447 2.83417 6.18056V23.8159C2.83417 24.222 3.16337 24.5512 3.56946 24.5512H18.2626C18.6687 24.5512 18.9979 24.222 18.9979 23.8159V21.8855C18.9979 21.4794 18.6687 21.1502 18.2626 21.1502C17.8565 21.1502 17.5273 21.4794 17.5273 21.8855V23.0806H4.30476V6.91586H6.71622V8.11076C6.71622 8.51685 7.04542 8.84606 7.45152 8.84606C7.85761 8.84606 8.18681 8.51685 8.18681 8.11076V6.91586H13.579V8.11076C13.579 8.51685 13.9082 8.84606 14.3143 8.84606ZM13.579 5.44527V4.84213C13.579 3.27958 12.3949 1.96076 10.9701 1.96076H10.9103C9.45683 1.96076 8.18681 3.31066 8.18681 4.84213V5.44527H13.579ZM18.885 20.5125L22.6165 16.7458C23.0349 16.3274 23.0323 15.6448 22.6091 15.227L17.9753 10.6373C17.7722 10.4373 17.5006 10.3263 17.2177 10.3263L16.9687 10.3273L13.4622 10.344C12.8598 10.3531 12.3901 10.8362 12.3932 11.4244C12.3933 11.4425 12.3916 11.6913 12.391 11.7922L12.391 11.793L12.3907 11.8334C12.3873 12.4018 12.3869 12.9174 12.3916 13.42C12.4099 15.39 12.4217 15.6243 12.7256 15.93C12.5681 15.7746 14.2221 17.416 15.0976 18.2817L15.1181 18.302C17.3639 20.5224 17.4933 20.6503 17.6486 20.7231C17.6532 20.7253 17.6579 20.7274 17.6627 20.7295C17.6676 20.7318 17.6727 20.734 17.6779 20.7363L17.6834 20.7387C17.9016 20.8403 18.1681 20.8653 18.4188 20.7914C18.5669 20.7528 18.7533 20.6475 18.885 20.5125ZM17.057 11.7976L16.9751 11.7979L13.8615 11.8127L13.8613 11.8423C13.8579 12.4038 13.8575 12.9126 13.8621 13.4063C13.867 13.9351 13.8773 14.3765 13.8939 14.7035C13.9008 14.8405 13.9087 14.9543 13.9172 15.0412C14.3365 15.4576 15.4582 16.5702 16.1113 17.2159L16.1315 17.2359C16.7824 17.8794 17.326 18.4149 17.7291 18.809C17.8828 18.9593 18.0146 19.0875 18.1229 19.1923L21.2925 15.9927L17.057 11.7976ZM16.1811 13.6172C16.0243 13.4604 15.7711 13.4604 15.6149 13.6172C15.458 13.7735 15.458 14.0264 15.6157 14.1836C15.7711 14.3395 16.0243 14.3395 16.1811 14.1827C16.3379 14.0264 16.3379 13.7735 16.1811 13.6172ZM15.0958 14.7035C15.5376 15.1467 16.257 15.1467 16.7006 14.7031C17.1452 14.2599 17.1453 13.5403 16.7004 13.0966C16.2567 12.6532 15.5375 12.6533 15.0949 13.0973C14.6507 13.5401 14.6507 14.2598 15.0958 14.7035Z" fill="white"/>
</mask>
<g mask="url(#mask0)">
<rect width="101.562" height="101.562" transform="matrix(-1 0 0 1 63.2812 -38.2812)" fill="#D1D1D1"/>
</g>
</svg>
