<svg width="39" height="38" viewBox="0 0 39 38" fill="none" xmlns="http://www.w3.org/2000/svg">
<path fill-rule="evenodd" clip-rule="evenodd" d="M7.32614 14.5884L5.77602 10.2514L28.374 3.28572L31.8781 14.5884H7.32614ZM5.02524 14.5884H4.37474C3.67765 14.5884 3.00523 13.7491 3.00523 12.6106C3.00523 11.8544 3.30201 11.2301 3.70559 10.8962L5.02524 14.5884ZM4.19569 8.47122C2.27265 8.58012 0.838568 10.4351 0.838568 12.6106C0.838568 12.6107 0.838568 12.6107 0.838568 12.6108H0.83844V33.5698C0.83844 35.5231 2.42148 37.1071 4.37462 37.1071H35.7667V30.8676H38.916V21.0027H35.7667V15.6717H34.6834V14.5884H34.1465L29.8029 0.578003L4.19569 8.47122ZM33.6001 16.755H4.37474C3.88416 16.755 3.42261 16.642 3.00511 16.4386V33.5698C3.00511 34.3268 3.6184 34.9404 4.37462 34.9404H33.6001V30.8676H30.89C28.1649 30.8676 25.957 28.6596 25.957 25.9351C25.957 23.2106 28.165 21.0027 30.89 21.0027H33.6001V16.755ZM30.89 23.1694H36.7494V28.7009H30.89C29.3616 28.7009 28.1237 27.463 28.1237 25.9351C28.1237 24.4072 29.3616 23.1694 30.89 23.1694Z" fill="black"/>
<mask id="mask0" mask-type="alpha" maskUnits="userSpaceOnUse" x="0" y="0" width="39" height="38">
<path fill-rule="evenodd" clip-rule="evenodd" d="M7.32614 14.5884L5.77602 10.2514L28.374 3.28572L31.8781 14.5884H7.32614ZM5.02524 14.5884H4.37474C3.67765 14.5884 3.00523 13.7491 3.00523 12.6106C3.00523 11.8544 3.30201 11.2301 3.70559 10.8962L5.02524 14.5884ZM4.19569 8.47122C2.27265 8.58012 0.838568 10.4351 0.838568 12.6106C0.838568 12.6107 0.838568 12.6107 0.838568 12.6108H0.83844V33.5698C0.83844 35.5231 2.42148 37.1071 4.37462 37.1071H35.7667V30.8676H38.916V21.0027H35.7667V15.6717H34.6834V14.5884H34.1465L29.8029 0.578003L4.19569 8.47122ZM33.6001 16.755H4.37474C3.88416 16.755 3.42261 16.642 3.00511 16.4386V33.5698C3.00511 34.3268 3.6184 34.9404 4.37462 34.9404H33.6001V30.8676H30.89C28.1649 30.8676 25.957 28.6596 25.957 25.9351C25.957 23.2106 28.165 21.0027 30.89 21.0027H33.6001V16.755ZM30.89 23.1694H36.7494V28.7009H30.89C29.3616 28.7009 28.1237 27.463 28.1237 25.9351C28.1237 24.4072 29.3616 23.1694 30.89 23.1694Z" fill="white"/>
</mask>
<g mask="url(#mask0)">
<rect x="-52.5208" y="-47.0209" width="140.833" height="140.833" fill="#D1D1D1"/>
</g>
</svg>
